%TF.GenerationSoftware,KiCad,Pcbnew,(6.0.8)*%
%TF.CreationDate,2022-12-15T01:08:10+01:00*%
%TF.ProjectId,Couleur,436f756c-6575-4722-9e6b-696361645f70,rev?*%
%TF.SameCoordinates,Original*%
%TF.FileFunction,Copper,L1,Top*%
%TF.FilePolarity,Positive*%
%FSLAX46Y46*%
G04 Gerber Fmt 4.6, Leading zero omitted, Abs format (unit mm)*
G04 Created by KiCad (PCBNEW (6.0.8)) date 2022-12-15 01:08:10*
%MOMM*%
%LPD*%
G01*
G04 APERTURE LIST*
G04 Aperture macros list*
%AMRoundRect*
0 Rectangle with rounded corners*
0 $1 Rounding radius*
0 $2 $3 $4 $5 $6 $7 $8 $9 X,Y pos of 4 corners*
0 Add a 4 corners polygon primitive as box body*
4,1,4,$2,$3,$4,$5,$6,$7,$8,$9,$2,$3,0*
0 Add four circle primitives for the rounded corners*
1,1,$1+$1,$2,$3*
1,1,$1+$1,$4,$5*
1,1,$1+$1,$6,$7*
1,1,$1+$1,$8,$9*
0 Add four rect primitives between the rounded corners*
20,1,$1+$1,$2,$3,$4,$5,0*
20,1,$1+$1,$4,$5,$6,$7,0*
20,1,$1+$1,$6,$7,$8,$9,0*
20,1,$1+$1,$8,$9,$2,$3,0*%
G04 Aperture macros list end*
%TA.AperFunction,SMDPad,CuDef*%
%ADD10RoundRect,0.100000X-0.217500X-0.100000X0.217500X-0.100000X0.217500X0.100000X-0.217500X0.100000X0*%
%TD*%
%TA.AperFunction,ComponentPad*%
%ADD11R,1.700000X1.700000*%
%TD*%
%TA.AperFunction,ComponentPad*%
%ADD12O,1.700000X1.700000*%
%TD*%
%TA.AperFunction,SMDPad,CuDef*%
%ADD13R,0.900000X0.350000*%
%TD*%
%TA.AperFunction,SMDPad,CuDef*%
%ADD14R,1.000000X0.350000*%
%TD*%
%TA.AperFunction,Conductor*%
%ADD15C,0.400000*%
%TD*%
%TA.AperFunction,Conductor*%
%ADD16C,0.250000*%
%TD*%
%TA.AperFunction,Conductor*%
%ADD17C,0.500000*%
%TD*%
G04 APERTURE END LIST*
D10*
%TO.P,C1,1*%
%TO.N,+3.3V*%
X87592500Y-82500000D03*
%TO.P,C1,2*%
%TO.N,GND*%
X88407500Y-82500000D03*
%TD*%
D11*
%TO.P,J1,1,Pin_1*%
%TO.N,+3.3V*%
X84200000Y-76500000D03*
D12*
%TO.P,J1,2,Pin_2*%
%TO.N,COLOR_I2C_SCL*%
X86740000Y-76500000D03*
%TO.P,J1,3,Pin_3*%
%TO.N,COLOR_I2C_SDA*%
X89280000Y-76500000D03*
%TO.P,J1,4,Pin_4*%
%TO.N,GND*%
X91820000Y-76500000D03*
%TD*%
D13*
%TO.P,IC1,1,GND*%
%TO.N,GND*%
X88950000Y-80850000D03*
%TO.P,IC1,2,SDA*%
%TO.N,COLOR_I2C_SDA*%
X88950000Y-80150000D03*
D14*
%TO.P,IC1,3,SCL*%
%TO.N,COLOR_I2C_SCL*%
X87100000Y-80150000D03*
D13*
%TO.P,IC1,4,VDD*%
%TO.N,+3.3V*%
X87050000Y-80850000D03*
%TD*%
D15*
%TO.N,+3.3V*%
X86150000Y-80850000D02*
X86000000Y-81000000D01*
X86275000Y-80850000D02*
X84200000Y-78775000D01*
D16*
X86275000Y-80850000D02*
X86150000Y-80850000D01*
D15*
X87050000Y-80850000D02*
X86275000Y-80850000D01*
X86500000Y-82500000D02*
X87592500Y-82500000D01*
X86000000Y-82000000D02*
X86500000Y-82500000D01*
X84200000Y-78775000D02*
X84200000Y-76500000D01*
X86000000Y-81000000D02*
X86000000Y-82000000D01*
%TO.N,GND*%
X91820000Y-78755000D02*
X91820000Y-76500000D01*
X89937500Y-82062500D02*
X89937500Y-81000000D01*
X89937500Y-81000000D02*
X89787500Y-80850000D01*
X89787500Y-80850000D02*
X89725000Y-80850000D01*
X89500000Y-82500000D02*
X89937500Y-82062500D01*
X88950000Y-80850000D02*
X89725000Y-80850000D01*
X88407500Y-82500000D02*
X89500000Y-82500000D01*
D16*
X89000000Y-80900000D02*
X88950000Y-80850000D01*
D15*
X89725000Y-80850000D02*
X91820000Y-78755000D01*
%TO.N,COLOR_I2C_SDA*%
X89280000Y-76500000D02*
X89280000Y-78620000D01*
X89280000Y-78620000D02*
X89000000Y-78900000D01*
D16*
X88950000Y-78950000D02*
X89000000Y-78900000D01*
D15*
X88950000Y-80150000D02*
X88950000Y-78950000D01*
D17*
%TO.N,COLOR_I2C_SCL*%
X86740000Y-79790000D02*
X87000500Y-80050500D01*
X86740000Y-76500000D02*
X86740000Y-79790000D01*
%TD*%
%TA.AperFunction,Conductor*%
%TO.N,GND*%
G36*
X82783621Y-75528502D02*
G01*
X82830114Y-75582158D01*
X82841500Y-75634500D01*
X82841500Y-77398134D01*
X82848255Y-77460316D01*
X82899385Y-77596705D01*
X82986739Y-77713261D01*
X83103295Y-77800615D01*
X83239684Y-77851745D01*
X83301866Y-77858500D01*
X83365500Y-77858500D01*
X83433621Y-77878502D01*
X83480114Y-77932158D01*
X83491500Y-77984500D01*
X83491500Y-78746088D01*
X83491208Y-78754658D01*
X83488802Y-78789957D01*
X83487275Y-78812352D01*
X83488580Y-78819829D01*
X83488580Y-78819830D01*
X83493201Y-78846308D01*
X83497175Y-78869074D01*
X83498261Y-78875299D01*
X83499223Y-78881821D01*
X83506898Y-78945242D01*
X83509581Y-78952343D01*
X83510222Y-78954952D01*
X83514685Y-78971262D01*
X83515450Y-78973798D01*
X83516757Y-78981284D01*
X83519811Y-78988241D01*
X83542442Y-79039795D01*
X83544933Y-79045899D01*
X83567513Y-79105656D01*
X83571817Y-79111919D01*
X83573054Y-79114285D01*
X83581299Y-79129097D01*
X83582632Y-79131351D01*
X83585685Y-79138305D01*
X83590307Y-79144328D01*
X83624579Y-79188991D01*
X83628459Y-79194332D01*
X83660339Y-79240720D01*
X83660344Y-79240725D01*
X83664643Y-79246981D01*
X83670313Y-79252032D01*
X83670314Y-79252034D01*
X83711170Y-79288435D01*
X83716446Y-79293416D01*
X85254981Y-80831952D01*
X85289007Y-80894264D01*
X85289775Y-80944012D01*
X85287704Y-80955186D01*
X85288141Y-80962766D01*
X85288141Y-80962767D01*
X85291291Y-81017392D01*
X85291500Y-81024646D01*
X85291500Y-81971088D01*
X85291208Y-81979658D01*
X85287275Y-82037352D01*
X85288580Y-82044829D01*
X85288580Y-82044830D01*
X85298261Y-82100299D01*
X85299223Y-82106821D01*
X85306898Y-82170242D01*
X85309581Y-82177343D01*
X85310222Y-82179952D01*
X85314685Y-82196262D01*
X85315450Y-82198798D01*
X85316757Y-82206284D01*
X85319811Y-82213241D01*
X85342442Y-82264795D01*
X85344933Y-82270899D01*
X85367513Y-82330656D01*
X85371817Y-82336919D01*
X85373054Y-82339285D01*
X85381299Y-82354097D01*
X85382632Y-82356351D01*
X85385685Y-82363305D01*
X85417971Y-82405379D01*
X85424579Y-82413991D01*
X85428459Y-82419332D01*
X85460339Y-82465720D01*
X85460344Y-82465725D01*
X85464643Y-82471981D01*
X85470313Y-82477032D01*
X85470314Y-82477034D01*
X85511170Y-82513435D01*
X85516446Y-82518416D01*
X85978550Y-82980520D01*
X85984404Y-82986785D01*
X86022439Y-83030385D01*
X86028657Y-83034755D01*
X86074697Y-83067112D01*
X86079993Y-83071045D01*
X86130282Y-83110477D01*
X86137204Y-83113602D01*
X86139452Y-83114964D01*
X86154185Y-83123368D01*
X86156524Y-83124622D01*
X86162739Y-83128990D01*
X86169815Y-83131749D01*
X86169819Y-83131751D01*
X86222269Y-83152200D01*
X86228334Y-83154749D01*
X86286573Y-83181045D01*
X86294038Y-83182429D01*
X86296582Y-83183226D01*
X86312848Y-83187859D01*
X86315428Y-83188521D01*
X86322509Y-83191282D01*
X86330042Y-83192274D01*
X86330043Y-83192274D01*
X86342524Y-83193917D01*
X86385857Y-83199622D01*
X86392355Y-83200650D01*
X86455187Y-83212296D01*
X86462767Y-83211859D01*
X86462768Y-83211859D01*
X86517393Y-83208709D01*
X86524647Y-83208500D01*
X87635503Y-83208500D01*
X87635506Y-83208499D01*
X87849884Y-83208499D01*
X87853969Y-83207961D01*
X87853973Y-83207961D01*
X87960655Y-83193917D01*
X87960656Y-83193917D01*
X87968850Y-83192838D01*
X87971230Y-83191852D01*
X88033590Y-83191852D01*
X88039474Y-83193429D01*
X88146066Y-83207462D01*
X88154275Y-83208000D01*
X88189385Y-83208000D01*
X88204624Y-83203525D01*
X88205829Y-83202135D01*
X88207500Y-83194452D01*
X88207500Y-83121140D01*
X88227502Y-83053019D01*
X88240981Y-83036294D01*
X88243987Y-83033987D01*
X88341524Y-82906875D01*
X88365091Y-82849979D01*
X88409639Y-82794698D01*
X88477003Y-82772277D01*
X88545794Y-82789835D01*
X88594172Y-82841797D01*
X88607500Y-82898197D01*
X88607500Y-83189884D01*
X88611975Y-83205123D01*
X88613365Y-83206328D01*
X88621048Y-83207999D01*
X88660723Y-83207999D01*
X88668935Y-83207461D01*
X88775533Y-83193428D01*
X88791348Y-83189190D01*
X88923993Y-83134247D01*
X88938176Y-83126059D01*
X89052080Y-83038656D01*
X89063656Y-83027080D01*
X89151059Y-82913176D01*
X89159247Y-82898993D01*
X89214189Y-82766351D01*
X89218428Y-82750531D01*
X89222716Y-82717960D01*
X89220505Y-82703778D01*
X89207348Y-82700000D01*
X88625614Y-82700000D01*
X88579997Y-82713394D01*
X88509001Y-82713394D01*
X88449275Y-82675010D01*
X88419782Y-82610429D01*
X88418500Y-82592499D01*
X88418499Y-82405379D01*
X88438501Y-82337258D01*
X88492156Y-82290765D01*
X88562430Y-82280660D01*
X88589981Y-82293242D01*
X88621048Y-82300000D01*
X89206965Y-82300000D01*
X89220736Y-82295956D01*
X89222765Y-82282417D01*
X89218428Y-82249467D01*
X89214190Y-82233652D01*
X89159247Y-82101007D01*
X89151059Y-82086824D01*
X89063656Y-81972920D01*
X89052080Y-81961344D01*
X88938176Y-81873941D01*
X88923993Y-81865753D01*
X88791350Y-81810810D01*
X88775532Y-81806572D01*
X88668934Y-81792538D01*
X88660725Y-81792000D01*
X88625615Y-81792000D01*
X88610376Y-81796475D01*
X88609171Y-81797865D01*
X88607500Y-81805548D01*
X88607500Y-82101802D01*
X88587498Y-82169923D01*
X88533842Y-82216416D01*
X88463568Y-82226520D01*
X88398988Y-82197026D01*
X88365091Y-82150020D01*
X88344684Y-82100752D01*
X88344683Y-82100750D01*
X88341524Y-82093124D01*
X88243987Y-81966013D01*
X88242882Y-81965165D01*
X88210379Y-81905642D01*
X88207500Y-81878859D01*
X88207500Y-81810116D01*
X88203025Y-81794877D01*
X88201635Y-81793672D01*
X88193952Y-81792001D01*
X88154277Y-81792001D01*
X88146065Y-81792539D01*
X88039475Y-81806571D01*
X88033591Y-81808148D01*
X87971230Y-81808148D01*
X87968850Y-81807162D01*
X87960658Y-81806083D01*
X87960656Y-81806083D01*
X87853972Y-81792038D01*
X87853971Y-81792038D01*
X87849885Y-81791500D01*
X87246328Y-81791500D01*
X87178207Y-81771498D01*
X87131714Y-81717842D01*
X87121610Y-81647568D01*
X87151104Y-81582988D01*
X87215366Y-81543692D01*
X87220242Y-81543102D01*
X87227346Y-81540418D01*
X87234726Y-81538605D01*
X87234983Y-81539651D01*
X87268665Y-81533500D01*
X87548134Y-81533500D01*
X87610316Y-81526745D01*
X87746705Y-81475615D01*
X87863261Y-81388261D01*
X87899487Y-81339925D01*
X87956345Y-81297411D01*
X88027164Y-81292385D01*
X88089457Y-81326445D01*
X88101138Y-81339925D01*
X88131717Y-81380726D01*
X88144276Y-81393285D01*
X88246351Y-81469786D01*
X88261946Y-81478324D01*
X88382394Y-81523478D01*
X88397649Y-81527105D01*
X88448514Y-81532631D01*
X88455328Y-81533000D01*
X88756885Y-81533000D01*
X88772124Y-81528525D01*
X88773329Y-81527135D01*
X88775000Y-81519452D01*
X88775000Y-80984289D01*
X88795002Y-80916168D01*
X88848658Y-80869675D01*
X88901659Y-80858291D01*
X89008395Y-80858850D01*
X89076409Y-80879208D01*
X89122620Y-80933107D01*
X89132356Y-81003433D01*
X89130855Y-81011630D01*
X89125000Y-81038547D01*
X89125000Y-81514884D01*
X89129475Y-81530123D01*
X89130865Y-81531328D01*
X89138548Y-81532999D01*
X89444669Y-81532999D01*
X89451490Y-81532629D01*
X89502352Y-81527105D01*
X89517604Y-81523479D01*
X89638054Y-81478324D01*
X89653649Y-81469786D01*
X89755724Y-81393285D01*
X89768285Y-81380724D01*
X89844786Y-81278649D01*
X89853324Y-81263054D01*
X89898478Y-81142606D01*
X89902105Y-81127351D01*
X89907631Y-81076486D01*
X89908000Y-81069672D01*
X89908000Y-81043115D01*
X89903525Y-81027876D01*
X89902135Y-81026671D01*
X89894452Y-81025000D01*
X89676523Y-81025000D01*
X89608402Y-81004998D01*
X89561909Y-80951342D01*
X89551805Y-80881068D01*
X89581299Y-80816488D01*
X89632291Y-80781018D01*
X89646705Y-80775615D01*
X89747365Y-80700174D01*
X89813873Y-80675326D01*
X89822931Y-80675000D01*
X89889884Y-80675000D01*
X89905123Y-80670525D01*
X89906328Y-80669135D01*
X89907999Y-80661452D01*
X89907999Y-80632703D01*
X94890743Y-80632703D01*
X94928268Y-80917734D01*
X94929401Y-80921874D01*
X94929401Y-80921876D01*
X94933035Y-80935159D01*
X95004129Y-81195036D01*
X95116923Y-81459476D01*
X95264561Y-81706161D01*
X95444313Y-81930528D01*
X95548899Y-82029776D01*
X95626627Y-82103537D01*
X95652851Y-82128423D01*
X95775306Y-82216416D01*
X95851134Y-82270904D01*
X95886317Y-82296186D01*
X95890112Y-82298195D01*
X95890113Y-82298196D01*
X95911869Y-82309715D01*
X96140392Y-82430712D01*
X96164699Y-82439607D01*
X96373032Y-82515846D01*
X96410373Y-82529511D01*
X96691264Y-82590755D01*
X96713424Y-82592499D01*
X96914282Y-82608307D01*
X96914291Y-82608307D01*
X96916739Y-82608500D01*
X97072271Y-82608500D01*
X97074407Y-82608354D01*
X97074418Y-82608354D01*
X97282548Y-82594165D01*
X97282554Y-82594164D01*
X97286825Y-82593873D01*
X97291020Y-82593004D01*
X97291022Y-82593004D01*
X97427583Y-82564724D01*
X97568342Y-82535574D01*
X97839343Y-82439607D01*
X97927363Y-82394177D01*
X98091005Y-82309715D01*
X98091006Y-82309715D01*
X98094812Y-82307750D01*
X98098313Y-82305289D01*
X98098317Y-82305287D01*
X98229285Y-82213241D01*
X98330023Y-82142441D01*
X98512449Y-81972920D01*
X98537479Y-81949661D01*
X98537481Y-81949658D01*
X98540622Y-81946740D01*
X98722713Y-81724268D01*
X98872927Y-81479142D01*
X98916130Y-81380724D01*
X98986757Y-81219830D01*
X98988483Y-81215898D01*
X99067244Y-80939406D01*
X99102987Y-80688261D01*
X99107146Y-80659036D01*
X99107146Y-80659034D01*
X99107751Y-80654784D01*
X99107845Y-80636951D01*
X99109235Y-80371583D01*
X99109235Y-80371576D01*
X99109257Y-80367297D01*
X99071732Y-80082266D01*
X98995871Y-79804964D01*
X98963169Y-79728295D01*
X98884763Y-79544476D01*
X98884761Y-79544472D01*
X98883077Y-79540524D01*
X98784048Y-79375058D01*
X98737643Y-79297521D01*
X98737640Y-79297517D01*
X98735439Y-79293839D01*
X98555687Y-79069472D01*
X98416830Y-78937702D01*
X98350258Y-78874527D01*
X98350255Y-78874525D01*
X98347149Y-78871577D01*
X98113683Y-78703814D01*
X98091843Y-78692250D01*
X97955044Y-78619819D01*
X97859608Y-78569288D01*
X97619798Y-78481530D01*
X97593658Y-78471964D01*
X97593656Y-78471963D01*
X97589627Y-78470489D01*
X97308736Y-78409245D01*
X97277685Y-78406801D01*
X97085718Y-78391693D01*
X97085709Y-78391693D01*
X97083261Y-78391500D01*
X96927729Y-78391500D01*
X96925593Y-78391646D01*
X96925582Y-78391646D01*
X96717452Y-78405835D01*
X96717446Y-78405836D01*
X96713175Y-78406127D01*
X96708980Y-78406996D01*
X96708978Y-78406996D01*
X96601083Y-78429340D01*
X96431658Y-78464426D01*
X96160657Y-78560393D01*
X95905188Y-78692250D01*
X95901687Y-78694711D01*
X95901683Y-78694713D01*
X95828584Y-78746088D01*
X95669977Y-78857559D01*
X95620760Y-78903294D01*
X95467941Y-79045303D01*
X95459378Y-79053260D01*
X95277287Y-79275732D01*
X95127073Y-79520858D01*
X95125347Y-79524791D01*
X95125346Y-79524792D01*
X95072487Y-79645208D01*
X95011517Y-79784102D01*
X94932756Y-80060594D01*
X94892249Y-80345216D01*
X94892227Y-80349505D01*
X94892226Y-80349512D01*
X94890791Y-80623510D01*
X94890743Y-80632703D01*
X89907999Y-80632703D01*
X89907999Y-80630331D01*
X89907629Y-80623510D01*
X89902105Y-80572648D01*
X89898479Y-80557397D01*
X89893810Y-80544942D01*
X89888627Y-80474135D01*
X89893808Y-80456488D01*
X89901745Y-80435316D01*
X89908500Y-80373134D01*
X89908500Y-79926866D01*
X89901745Y-79864684D01*
X89850615Y-79728295D01*
X89763261Y-79611739D01*
X89708935Y-79571024D01*
X89666420Y-79514165D01*
X89658500Y-79470198D01*
X89658500Y-79295660D01*
X89678502Y-79227539D01*
X89695405Y-79206565D01*
X89760520Y-79141450D01*
X89766785Y-79135596D01*
X89791214Y-79114285D01*
X89810385Y-79097561D01*
X89847114Y-79045300D01*
X89851046Y-79040005D01*
X89885791Y-78995694D01*
X89890477Y-78989718D01*
X89893602Y-78982796D01*
X89894964Y-78980548D01*
X89903368Y-78965815D01*
X89904622Y-78963476D01*
X89908990Y-78957261D01*
X89911749Y-78950185D01*
X89911751Y-78950181D01*
X89932200Y-78897731D01*
X89934749Y-78891666D01*
X89961045Y-78833427D01*
X89962429Y-78825962D01*
X89963226Y-78823418D01*
X89967859Y-78807152D01*
X89968521Y-78804572D01*
X89971282Y-78797491D01*
X89979622Y-78734143D01*
X89980653Y-78727629D01*
X89992296Y-78664813D01*
X89989702Y-78619819D01*
X89988709Y-78602607D01*
X89988500Y-78595353D01*
X89988500Y-77728297D01*
X90008502Y-77660176D01*
X90041332Y-77625718D01*
X90155656Y-77544172D01*
X90155659Y-77544170D01*
X90159860Y-77541173D01*
X90318096Y-77383489D01*
X90448453Y-77202077D01*
X90449640Y-77202930D01*
X90496960Y-77159362D01*
X90566897Y-77147145D01*
X90632338Y-77174678D01*
X90660166Y-77206511D01*
X90717694Y-77300388D01*
X90723777Y-77308699D01*
X90863213Y-77469667D01*
X90870580Y-77476883D01*
X91034434Y-77612916D01*
X91042881Y-77618831D01*
X91226756Y-77726279D01*
X91236042Y-77730729D01*
X91435001Y-77806703D01*
X91444899Y-77809579D01*
X91548250Y-77830606D01*
X91562299Y-77829410D01*
X91566000Y-77819065D01*
X91566000Y-77818517D01*
X92074000Y-77818517D01*
X92078064Y-77832359D01*
X92091478Y-77834393D01*
X92098184Y-77833534D01*
X92108262Y-77831392D01*
X92312255Y-77770191D01*
X92321842Y-77766433D01*
X92513095Y-77672739D01*
X92521945Y-77667464D01*
X92695328Y-77543792D01*
X92703200Y-77537139D01*
X92854052Y-77386812D01*
X92860730Y-77378965D01*
X92985003Y-77206020D01*
X92990313Y-77197183D01*
X93084670Y-77006267D01*
X93088469Y-76996672D01*
X93150377Y-76792910D01*
X93152555Y-76782837D01*
X93153986Y-76771962D01*
X93151775Y-76757778D01*
X93138617Y-76754000D01*
X92092115Y-76754000D01*
X92076876Y-76758475D01*
X92075671Y-76759865D01*
X92074000Y-76767548D01*
X92074000Y-77818517D01*
X91566000Y-77818517D01*
X91566000Y-76372000D01*
X91586002Y-76303879D01*
X91639658Y-76257386D01*
X91692000Y-76246000D01*
X93138344Y-76246000D01*
X93151875Y-76242027D01*
X93153180Y-76232947D01*
X93111214Y-76065875D01*
X93107894Y-76056124D01*
X93022972Y-75860814D01*
X93018105Y-75851739D01*
X92921843Y-75702940D01*
X92901636Y-75634880D01*
X92921432Y-75566699D01*
X92974947Y-75520045D01*
X93027635Y-75508500D01*
X99865500Y-75508500D01*
X99933621Y-75528502D01*
X99980114Y-75582158D01*
X99991500Y-75634500D01*
X99991500Y-83865500D01*
X99971498Y-83933621D01*
X99917842Y-83980114D01*
X99865500Y-83991500D01*
X76134500Y-83991500D01*
X76066379Y-83971498D01*
X76019886Y-83917842D01*
X76008500Y-83865500D01*
X76008500Y-80632703D01*
X76890743Y-80632703D01*
X76928268Y-80917734D01*
X76929401Y-80921874D01*
X76929401Y-80921876D01*
X76933035Y-80935159D01*
X77004129Y-81195036D01*
X77116923Y-81459476D01*
X77264561Y-81706161D01*
X77444313Y-81930528D01*
X77548899Y-82029776D01*
X77626627Y-82103537D01*
X77652851Y-82128423D01*
X77775306Y-82216416D01*
X77851134Y-82270904D01*
X77886317Y-82296186D01*
X77890112Y-82298195D01*
X77890113Y-82298196D01*
X77911869Y-82309715D01*
X78140392Y-82430712D01*
X78164699Y-82439607D01*
X78373032Y-82515846D01*
X78410373Y-82529511D01*
X78691264Y-82590755D01*
X78713424Y-82592499D01*
X78914282Y-82608307D01*
X78914291Y-82608307D01*
X78916739Y-82608500D01*
X79072271Y-82608500D01*
X79074407Y-82608354D01*
X79074418Y-82608354D01*
X79282548Y-82594165D01*
X79282554Y-82594164D01*
X79286825Y-82593873D01*
X79291020Y-82593004D01*
X79291022Y-82593004D01*
X79427583Y-82564724D01*
X79568342Y-82535574D01*
X79839343Y-82439607D01*
X79927363Y-82394177D01*
X80091005Y-82309715D01*
X80091006Y-82309715D01*
X80094812Y-82307750D01*
X80098313Y-82305289D01*
X80098317Y-82305287D01*
X80229285Y-82213241D01*
X80330023Y-82142441D01*
X80512449Y-81972920D01*
X80537479Y-81949661D01*
X80537481Y-81949658D01*
X80540622Y-81946740D01*
X80722713Y-81724268D01*
X80872927Y-81479142D01*
X80916130Y-81380724D01*
X80986757Y-81219830D01*
X80988483Y-81215898D01*
X81067244Y-80939406D01*
X81102987Y-80688261D01*
X81107146Y-80659036D01*
X81107146Y-80659034D01*
X81107751Y-80654784D01*
X81107845Y-80636951D01*
X81109235Y-80371583D01*
X81109235Y-80371576D01*
X81109257Y-80367297D01*
X81071732Y-80082266D01*
X80995871Y-79804964D01*
X80963169Y-79728295D01*
X80884763Y-79544476D01*
X80884761Y-79544472D01*
X80883077Y-79540524D01*
X80784048Y-79375058D01*
X80737643Y-79297521D01*
X80737640Y-79297517D01*
X80735439Y-79293839D01*
X80555687Y-79069472D01*
X80416830Y-78937702D01*
X80350258Y-78874527D01*
X80350255Y-78874525D01*
X80347149Y-78871577D01*
X80113683Y-78703814D01*
X80091843Y-78692250D01*
X79955044Y-78619819D01*
X79859608Y-78569288D01*
X79619798Y-78481530D01*
X79593658Y-78471964D01*
X79593656Y-78471963D01*
X79589627Y-78470489D01*
X79308736Y-78409245D01*
X79277685Y-78406801D01*
X79085718Y-78391693D01*
X79085709Y-78391693D01*
X79083261Y-78391500D01*
X78927729Y-78391500D01*
X78925593Y-78391646D01*
X78925582Y-78391646D01*
X78717452Y-78405835D01*
X78717446Y-78405836D01*
X78713175Y-78406127D01*
X78708980Y-78406996D01*
X78708978Y-78406996D01*
X78601083Y-78429340D01*
X78431658Y-78464426D01*
X78160657Y-78560393D01*
X77905188Y-78692250D01*
X77901687Y-78694711D01*
X77901683Y-78694713D01*
X77828584Y-78746088D01*
X77669977Y-78857559D01*
X77620760Y-78903294D01*
X77467941Y-79045303D01*
X77459378Y-79053260D01*
X77277287Y-79275732D01*
X77127073Y-79520858D01*
X77125347Y-79524791D01*
X77125346Y-79524792D01*
X77072487Y-79645208D01*
X77011517Y-79784102D01*
X76932756Y-80060594D01*
X76892249Y-80345216D01*
X76892227Y-80349505D01*
X76892226Y-80349512D01*
X76890791Y-80623510D01*
X76890743Y-80632703D01*
X76008500Y-80632703D01*
X76008500Y-75634500D01*
X76028502Y-75566379D01*
X76082158Y-75519886D01*
X76134500Y-75508500D01*
X82715500Y-75508500D01*
X82783621Y-75528502D01*
G37*
%TD.AperFunction*%
%TD*%
M02*
