%TF.GenerationSoftware,KiCad,Pcbnew,(6.0.8)*%
%TF.CreationDate,2022-12-15T01:08:10+01:00*%
%TF.ProjectId,Couleur,436f756c-6575-4722-9e6b-696361645f70,rev?*%
%TF.SameCoordinates,Original*%
%TF.FileFunction,Legend,Bot*%
%TF.FilePolarity,Positive*%
%FSLAX46Y46*%
G04 Gerber Fmt 4.6, Leading zero omitted, Abs format (unit mm)*
G04 Created by KiCad (PCBNEW (6.0.8)) date 2022-12-15 01:08:10*
%MOMM*%
%LPD*%
G01*
G04 APERTURE LIST*
%ADD10C,0.150000*%
G04 APERTURE END LIST*
D10*
%TO.C,R2*%
X87166666Y-79952380D02*
X87500000Y-79476190D01*
X87738095Y-79952380D02*
X87738095Y-78952380D01*
X87357142Y-78952380D01*
X87261904Y-79000000D01*
X87214285Y-79047619D01*
X87166666Y-79142857D01*
X87166666Y-79285714D01*
X87214285Y-79380952D01*
X87261904Y-79428571D01*
X87357142Y-79476190D01*
X87738095Y-79476190D01*
X86785714Y-79047619D02*
X86738095Y-79000000D01*
X86642857Y-78952380D01*
X86404761Y-78952380D01*
X86309523Y-79000000D01*
X86261904Y-79047619D01*
X86214285Y-79142857D01*
X86214285Y-79238095D01*
X86261904Y-79380952D01*
X86833333Y-79952380D01*
X86214285Y-79952380D01*
%TO.C,R1*%
X89666666Y-79952380D02*
X90000000Y-79476190D01*
X90238095Y-79952380D02*
X90238095Y-78952380D01*
X89857142Y-78952380D01*
X89761904Y-79000000D01*
X89714285Y-79047619D01*
X89666666Y-79142857D01*
X89666666Y-79285714D01*
X89714285Y-79380952D01*
X89761904Y-79428571D01*
X89857142Y-79476190D01*
X90238095Y-79476190D01*
X88714285Y-79952380D02*
X89285714Y-79952380D01*
X89000000Y-79952380D02*
X89000000Y-78952380D01*
X89095238Y-79095238D01*
X89190476Y-79190476D01*
X89285714Y-79238095D01*
%TD*%
M02*
