%TF.GenerationSoftware,KiCad,Pcbnew,(6.0.8)*%
%TF.CreationDate,2022-12-15T00:39:14+01:00*%
%TF.ProjectId,CarteMereRobobeer,43617274-654d-4657-9265-526f626f6265,rev?*%
%TF.SameCoordinates,Original*%
%TF.FileFunction,Legend,Top*%
%TF.FilePolarity,Positive*%
%FSLAX46Y46*%
G04 Gerber Fmt 4.6, Leading zero omitted, Abs format (unit mm)*
G04 Created by KiCad (PCBNEW (6.0.8)) date 2022-12-15 00:39:14*
%MOMM*%
%LPD*%
G01*
G04 APERTURE LIST*
%ADD10C,0.150000*%
%ADD11C,0.080000*%
%ADD12C,0.254000*%
%ADD13C,0.120000*%
%ADD14C,0.127000*%
%ADD15C,0.200000*%
G04 APERTURE END LIST*
D10*
%TO.C,R11*%
X99332380Y-100642857D02*
X98856190Y-100976190D01*
X99332380Y-101214285D02*
X98332380Y-101214285D01*
X98332380Y-100833333D01*
X98380000Y-100738095D01*
X98427619Y-100690476D01*
X98522857Y-100642857D01*
X98665714Y-100642857D01*
X98760952Y-100690476D01*
X98808571Y-100738095D01*
X98856190Y-100833333D01*
X98856190Y-101214285D01*
X99332380Y-99690476D02*
X99332380Y-100261904D01*
X99332380Y-99976190D02*
X98332380Y-99976190D01*
X98475238Y-100071428D01*
X98570476Y-100166666D01*
X98618095Y-100261904D01*
X99332380Y-98738095D02*
X99332380Y-99309523D01*
X99332380Y-99023809D02*
X98332380Y-99023809D01*
X98475238Y-99119047D01*
X98570476Y-99214285D01*
X98618095Y-99309523D01*
%TO.C,R27*%
X186357142Y-83677380D02*
X186023809Y-83201190D01*
X185785714Y-83677380D02*
X185785714Y-82677380D01*
X186166666Y-82677380D01*
X186261904Y-82725000D01*
X186309523Y-82772619D01*
X186357142Y-82867857D01*
X186357142Y-83010714D01*
X186309523Y-83105952D01*
X186261904Y-83153571D01*
X186166666Y-83201190D01*
X185785714Y-83201190D01*
X186738095Y-82772619D02*
X186785714Y-82725000D01*
X186880952Y-82677380D01*
X187119047Y-82677380D01*
X187214285Y-82725000D01*
X187261904Y-82772619D01*
X187309523Y-82867857D01*
X187309523Y-82963095D01*
X187261904Y-83105952D01*
X186690476Y-83677380D01*
X187309523Y-83677380D01*
X187642857Y-82677380D02*
X188309523Y-82677380D01*
X187880952Y-83677380D01*
%TO.C,R17*%
X101857142Y-75022380D02*
X101523809Y-74546190D01*
X101285714Y-75022380D02*
X101285714Y-74022380D01*
X101666666Y-74022380D01*
X101761904Y-74070000D01*
X101809523Y-74117619D01*
X101857142Y-74212857D01*
X101857142Y-74355714D01*
X101809523Y-74450952D01*
X101761904Y-74498571D01*
X101666666Y-74546190D01*
X101285714Y-74546190D01*
X102809523Y-75022380D02*
X102238095Y-75022380D01*
X102523809Y-75022380D02*
X102523809Y-74022380D01*
X102428571Y-74165238D01*
X102333333Y-74260476D01*
X102238095Y-74308095D01*
X103142857Y-74022380D02*
X103809523Y-74022380D01*
X103380952Y-75022380D01*
%TO.C,D7*%
X116261904Y-66814880D02*
X116261904Y-65814880D01*
X116500000Y-65814880D01*
X116642857Y-65862500D01*
X116738095Y-65957738D01*
X116785714Y-66052976D01*
X116833333Y-66243452D01*
X116833333Y-66386309D01*
X116785714Y-66576785D01*
X116738095Y-66672023D01*
X116642857Y-66767261D01*
X116500000Y-66814880D01*
X116261904Y-66814880D01*
X117166666Y-65814880D02*
X117833333Y-65814880D01*
X117404761Y-66814880D01*
X115023809Y-64814880D02*
X115023809Y-63814880D01*
X115261904Y-63814880D01*
X115404761Y-63862500D01*
X115500000Y-63957738D01*
X115547619Y-64052976D01*
X115595238Y-64243452D01*
X115595238Y-64386309D01*
X115547619Y-64576785D01*
X115500000Y-64672023D01*
X115404761Y-64767261D01*
X115261904Y-64814880D01*
X115023809Y-64814880D01*
X116023809Y-64814880D02*
X116023809Y-63814880D01*
X116690476Y-63814880D02*
X116880952Y-63814880D01*
X116976190Y-63862500D01*
X117071428Y-63957738D01*
X117119047Y-64148214D01*
X117119047Y-64481547D01*
X117071428Y-64672023D01*
X116976190Y-64767261D01*
X116880952Y-64814880D01*
X116690476Y-64814880D01*
X116595238Y-64767261D01*
X116500000Y-64672023D01*
X116452380Y-64481547D01*
X116452380Y-64148214D01*
X116500000Y-63957738D01*
X116595238Y-63862500D01*
X116690476Y-63814880D01*
X117547619Y-64814880D02*
X117547619Y-63814880D01*
X117785714Y-63814880D01*
X117928571Y-63862500D01*
X118023809Y-63957738D01*
X118071428Y-64052976D01*
X118119047Y-64243452D01*
X118119047Y-64386309D01*
X118071428Y-64576785D01*
X118023809Y-64672023D01*
X117928571Y-64767261D01*
X117785714Y-64814880D01*
X117547619Y-64814880D01*
X118547619Y-64291071D02*
X118880952Y-64291071D01*
X119023809Y-64814880D02*
X118547619Y-64814880D01*
X118547619Y-63814880D01*
X119023809Y-63814880D01*
X119712199Y-61814880D02*
X119712199Y-62052976D01*
X119474103Y-61957738D02*
X119712199Y-62052976D01*
X119950294Y-61957738D01*
X119569341Y-62243452D02*
X119712199Y-62052976D01*
X119855056Y-62243452D01*
X119712199Y-61814880D02*
X119712199Y-62052976D01*
X119474103Y-61957738D02*
X119712199Y-62052976D01*
X119950294Y-61957738D01*
X119569341Y-62243452D02*
X119712199Y-62052976D01*
X119855056Y-62243452D01*
%TO.C,CapteurCouleur1*%
X150095238Y-116857142D02*
X150047619Y-116904761D01*
X149904761Y-116952380D01*
X149809523Y-116952380D01*
X149666666Y-116904761D01*
X149571428Y-116809523D01*
X149523809Y-116714285D01*
X149476190Y-116523809D01*
X149476190Y-116380952D01*
X149523809Y-116190476D01*
X149571428Y-116095238D01*
X149666666Y-116000000D01*
X149809523Y-115952380D01*
X149904761Y-115952380D01*
X150047619Y-116000000D01*
X150095238Y-116047619D01*
X150952380Y-116952380D02*
X150952380Y-116428571D01*
X150904761Y-116333333D01*
X150809523Y-116285714D01*
X150619047Y-116285714D01*
X150523809Y-116333333D01*
X150952380Y-116904761D02*
X150857142Y-116952380D01*
X150619047Y-116952380D01*
X150523809Y-116904761D01*
X150476190Y-116809523D01*
X150476190Y-116714285D01*
X150523809Y-116619047D01*
X150619047Y-116571428D01*
X150857142Y-116571428D01*
X150952380Y-116523809D01*
X151428571Y-116285714D02*
X151428571Y-117285714D01*
X151428571Y-116333333D02*
X151523809Y-116285714D01*
X151714285Y-116285714D01*
X151809523Y-116333333D01*
X151857142Y-116380952D01*
X151904761Y-116476190D01*
X151904761Y-116761904D01*
X151857142Y-116857142D01*
X151809523Y-116904761D01*
X151714285Y-116952380D01*
X151523809Y-116952380D01*
X151428571Y-116904761D01*
X152190476Y-116285714D02*
X152571428Y-116285714D01*
X152333333Y-115952380D02*
X152333333Y-116809523D01*
X152380952Y-116904761D01*
X152476190Y-116952380D01*
X152571428Y-116952380D01*
X153285714Y-116904761D02*
X153190476Y-116952380D01*
X153000000Y-116952380D01*
X152904761Y-116904761D01*
X152857142Y-116809523D01*
X152857142Y-116428571D01*
X152904761Y-116333333D01*
X153000000Y-116285714D01*
X153190476Y-116285714D01*
X153285714Y-116333333D01*
X153333333Y-116428571D01*
X153333333Y-116523809D01*
X152857142Y-116619047D01*
X154190476Y-116285714D02*
X154190476Y-116952380D01*
X153761904Y-116285714D02*
X153761904Y-116809523D01*
X153809523Y-116904761D01*
X153904761Y-116952380D01*
X154047619Y-116952380D01*
X154142857Y-116904761D01*
X154190476Y-116857142D01*
X154666666Y-116952380D02*
X154666666Y-116285714D01*
X154666666Y-116476190D02*
X154714285Y-116380952D01*
X154761904Y-116333333D01*
X154857142Y-116285714D01*
X154952380Y-116285714D01*
X155857142Y-116857142D02*
X155809523Y-116904761D01*
X155666666Y-116952380D01*
X155571428Y-116952380D01*
X155428571Y-116904761D01*
X155333333Y-116809523D01*
X155285714Y-116714285D01*
X155238095Y-116523809D01*
X155238095Y-116380952D01*
X155285714Y-116190476D01*
X155333333Y-116095238D01*
X155428571Y-116000000D01*
X155571428Y-115952380D01*
X155666666Y-115952380D01*
X155809523Y-116000000D01*
X155857142Y-116047619D01*
X156428571Y-116952380D02*
X156333333Y-116904761D01*
X156285714Y-116857142D01*
X156238095Y-116761904D01*
X156238095Y-116476190D01*
X156285714Y-116380952D01*
X156333333Y-116333333D01*
X156428571Y-116285714D01*
X156571428Y-116285714D01*
X156666666Y-116333333D01*
X156714285Y-116380952D01*
X156761904Y-116476190D01*
X156761904Y-116761904D01*
X156714285Y-116857142D01*
X156666666Y-116904761D01*
X156571428Y-116952380D01*
X156428571Y-116952380D01*
X157619047Y-116285714D02*
X157619047Y-116952380D01*
X157190476Y-116285714D02*
X157190476Y-116809523D01*
X157238095Y-116904761D01*
X157333333Y-116952380D01*
X157476190Y-116952380D01*
X157571428Y-116904761D01*
X157619047Y-116857142D01*
X158238095Y-116952380D02*
X158142857Y-116904761D01*
X158095238Y-116809523D01*
X158095238Y-115952380D01*
X159000000Y-116904761D02*
X158904761Y-116952380D01*
X158714285Y-116952380D01*
X158619047Y-116904761D01*
X158571428Y-116809523D01*
X158571428Y-116428571D01*
X158619047Y-116333333D01*
X158714285Y-116285714D01*
X158904761Y-116285714D01*
X159000000Y-116333333D01*
X159047619Y-116428571D01*
X159047619Y-116523809D01*
X158571428Y-116619047D01*
X159904761Y-116285714D02*
X159904761Y-116952380D01*
X159476190Y-116285714D02*
X159476190Y-116809523D01*
X159523809Y-116904761D01*
X159619047Y-116952380D01*
X159761904Y-116952380D01*
X159857142Y-116904761D01*
X159904761Y-116857142D01*
X160380952Y-116952380D02*
X160380952Y-116285714D01*
X160380952Y-116476190D02*
X160428571Y-116380952D01*
X160476190Y-116333333D01*
X160571428Y-116285714D01*
X160666666Y-116285714D01*
X161523809Y-116952380D02*
X160952380Y-116952380D01*
X161238095Y-116952380D02*
X161238095Y-115952380D01*
X161142857Y-116095238D01*
X161047619Y-116190476D01*
X160952380Y-116238095D01*
%TO.C,R7*%
X155022380Y-107666666D02*
X154546190Y-108000000D01*
X155022380Y-108238095D02*
X154022380Y-108238095D01*
X154022380Y-107857142D01*
X154070000Y-107761904D01*
X154117619Y-107714285D01*
X154212857Y-107666666D01*
X154355714Y-107666666D01*
X154450952Y-107714285D01*
X154498571Y-107761904D01*
X154546190Y-107857142D01*
X154546190Y-108238095D01*
X154022380Y-107333333D02*
X154022380Y-106666666D01*
X155022380Y-107095238D01*
%TO.C,U4*%
X163353095Y-45915380D02*
X163353095Y-46724904D01*
X163400714Y-46820142D01*
X163448333Y-46867761D01*
X163543571Y-46915380D01*
X163734047Y-46915380D01*
X163829285Y-46867761D01*
X163876904Y-46820142D01*
X163924523Y-46724904D01*
X163924523Y-45915380D01*
X164829285Y-46248714D02*
X164829285Y-46915380D01*
X164591190Y-45867761D02*
X164353095Y-46582047D01*
X164972142Y-46582047D01*
%TO.C,R3*%
X143283333Y-49882380D02*
X142950000Y-49406190D01*
X142711904Y-49882380D02*
X142711904Y-48882380D01*
X143092857Y-48882380D01*
X143188095Y-48930000D01*
X143235714Y-48977619D01*
X143283333Y-49072857D01*
X143283333Y-49215714D01*
X143235714Y-49310952D01*
X143188095Y-49358571D01*
X143092857Y-49406190D01*
X142711904Y-49406190D01*
X143616666Y-48882380D02*
X144235714Y-48882380D01*
X143902380Y-49263333D01*
X144045238Y-49263333D01*
X144140476Y-49310952D01*
X144188095Y-49358571D01*
X144235714Y-49453809D01*
X144235714Y-49691904D01*
X144188095Y-49787142D01*
X144140476Y-49834761D01*
X144045238Y-49882380D01*
X143759523Y-49882380D01*
X143664285Y-49834761D01*
X143616666Y-49787142D01*
%TO.C,BDT1*%
X90714285Y-77928571D02*
X90857142Y-77976190D01*
X90904761Y-78023809D01*
X90952380Y-78119047D01*
X90952380Y-78261904D01*
X90904761Y-78357142D01*
X90857142Y-78404761D01*
X90761904Y-78452380D01*
X90380952Y-78452380D01*
X90380952Y-77452380D01*
X90714285Y-77452380D01*
X90809523Y-77500000D01*
X90857142Y-77547619D01*
X90904761Y-77642857D01*
X90904761Y-77738095D01*
X90857142Y-77833333D01*
X90809523Y-77880952D01*
X90714285Y-77928571D01*
X90380952Y-77928571D01*
X91380952Y-78452380D02*
X91380952Y-77452380D01*
X91619047Y-77452380D01*
X91761904Y-77500000D01*
X91857142Y-77595238D01*
X91904761Y-77690476D01*
X91952380Y-77880952D01*
X91952380Y-78023809D01*
X91904761Y-78214285D01*
X91857142Y-78309523D01*
X91761904Y-78404761D01*
X91619047Y-78452380D01*
X91380952Y-78452380D01*
X92238095Y-77452380D02*
X92809523Y-77452380D01*
X92523809Y-78452380D02*
X92523809Y-77452380D01*
X93666666Y-78452380D02*
X93095238Y-78452380D01*
X93380952Y-78452380D02*
X93380952Y-77452380D01*
X93285714Y-77595238D01*
X93190476Y-77690476D01*
X93095238Y-77738095D01*
%TO.C,R26*%
X186357142Y-71162380D02*
X186023809Y-70686190D01*
X185785714Y-71162380D02*
X185785714Y-70162380D01*
X186166666Y-70162380D01*
X186261904Y-70210000D01*
X186309523Y-70257619D01*
X186357142Y-70352857D01*
X186357142Y-70495714D01*
X186309523Y-70590952D01*
X186261904Y-70638571D01*
X186166666Y-70686190D01*
X185785714Y-70686190D01*
X186738095Y-70257619D02*
X186785714Y-70210000D01*
X186880952Y-70162380D01*
X187119047Y-70162380D01*
X187214285Y-70210000D01*
X187261904Y-70257619D01*
X187309523Y-70352857D01*
X187309523Y-70448095D01*
X187261904Y-70590952D01*
X186690476Y-71162380D01*
X187309523Y-71162380D01*
X188166666Y-70162380D02*
X187976190Y-70162380D01*
X187880952Y-70210000D01*
X187833333Y-70257619D01*
X187738095Y-70400476D01*
X187690476Y-70590952D01*
X187690476Y-70971904D01*
X187738095Y-71067142D01*
X187785714Y-71114761D01*
X187880952Y-71162380D01*
X188071428Y-71162380D01*
X188166666Y-71114761D01*
X188214285Y-71067142D01*
X188261904Y-70971904D01*
X188261904Y-70733809D01*
X188214285Y-70638571D01*
X188166666Y-70590952D01*
X188071428Y-70543333D01*
X187880952Y-70543333D01*
X187785714Y-70590952D01*
X187738095Y-70638571D01*
X187690476Y-70733809D01*
%TO.C,R6*%
X136022380Y-108166666D02*
X135546190Y-108500000D01*
X136022380Y-108738095D02*
X135022380Y-108738095D01*
X135022380Y-108357142D01*
X135070000Y-108261904D01*
X135117619Y-108214285D01*
X135212857Y-108166666D01*
X135355714Y-108166666D01*
X135450952Y-108214285D01*
X135498571Y-108261904D01*
X135546190Y-108357142D01*
X135546190Y-108738095D01*
X135022380Y-107309523D02*
X135022380Y-107500000D01*
X135070000Y-107595238D01*
X135117619Y-107642857D01*
X135260476Y-107738095D01*
X135450952Y-107785714D01*
X135831904Y-107785714D01*
X135927142Y-107738095D01*
X135974761Y-107690476D01*
X136022380Y-107595238D01*
X136022380Y-107404761D01*
X135974761Y-107309523D01*
X135927142Y-107261904D01*
X135831904Y-107214285D01*
X135593809Y-107214285D01*
X135498571Y-107261904D01*
X135450952Y-107309523D01*
X135403333Y-107404761D01*
X135403333Y-107595238D01*
X135450952Y-107690476D01*
X135498571Y-107738095D01*
X135593809Y-107785714D01*
%TO.C,R24*%
X186357142Y-74162380D02*
X186023809Y-73686190D01*
X185785714Y-74162380D02*
X185785714Y-73162380D01*
X186166666Y-73162380D01*
X186261904Y-73210000D01*
X186309523Y-73257619D01*
X186357142Y-73352857D01*
X186357142Y-73495714D01*
X186309523Y-73590952D01*
X186261904Y-73638571D01*
X186166666Y-73686190D01*
X185785714Y-73686190D01*
X186738095Y-73257619D02*
X186785714Y-73210000D01*
X186880952Y-73162380D01*
X187119047Y-73162380D01*
X187214285Y-73210000D01*
X187261904Y-73257619D01*
X187309523Y-73352857D01*
X187309523Y-73448095D01*
X187261904Y-73590952D01*
X186690476Y-74162380D01*
X187309523Y-74162380D01*
X188166666Y-73495714D02*
X188166666Y-74162380D01*
X187928571Y-73114761D02*
X187690476Y-73829047D01*
X188309523Y-73829047D01*
D11*
%TO.C,D5*%
X148409809Y-46691561D02*
X148409809Y-46371561D01*
X148486000Y-46371561D01*
X148531714Y-46386800D01*
X148562190Y-46417276D01*
X148577428Y-46447752D01*
X148592666Y-46508704D01*
X148592666Y-46554419D01*
X148577428Y-46615371D01*
X148562190Y-46645847D01*
X148531714Y-46676323D01*
X148486000Y-46691561D01*
X148409809Y-46691561D01*
X148882190Y-46371561D02*
X148729809Y-46371561D01*
X148714571Y-46523942D01*
X148729809Y-46508704D01*
X148760285Y-46493466D01*
X148836476Y-46493466D01*
X148866952Y-46508704D01*
X148882190Y-46523942D01*
X148897428Y-46554419D01*
X148897428Y-46630609D01*
X148882190Y-46661085D01*
X148866952Y-46676323D01*
X148836476Y-46691561D01*
X148760285Y-46691561D01*
X148729809Y-46676323D01*
X148714571Y-46661085D01*
D10*
%TO.C,CO1*%
X133309523Y-53219642D02*
X133261904Y-53267261D01*
X133119047Y-53314880D01*
X133023809Y-53314880D01*
X132880952Y-53267261D01*
X132785714Y-53172023D01*
X132738095Y-53076785D01*
X132690476Y-52886309D01*
X132690476Y-52743452D01*
X132738095Y-52552976D01*
X132785714Y-52457738D01*
X132880952Y-52362500D01*
X133023809Y-52314880D01*
X133119047Y-52314880D01*
X133261904Y-52362500D01*
X133309523Y-52410119D01*
X133928571Y-52314880D02*
X134119047Y-52314880D01*
X134214285Y-52362500D01*
X134309523Y-52457738D01*
X134357142Y-52648214D01*
X134357142Y-52981547D01*
X134309523Y-53172023D01*
X134214285Y-53267261D01*
X134119047Y-53314880D01*
X133928571Y-53314880D01*
X133833333Y-53267261D01*
X133738095Y-53172023D01*
X133690476Y-52981547D01*
X133690476Y-52648214D01*
X133738095Y-52457738D01*
X133833333Y-52362500D01*
X133928571Y-52314880D01*
X135309523Y-53314880D02*
X134738095Y-53314880D01*
X135023809Y-53314880D02*
X135023809Y-52314880D01*
X134928571Y-52457738D01*
X134833333Y-52552976D01*
X134738095Y-52600595D01*
%TO.C,C2*%
X116787142Y-53529166D02*
X116834761Y-53576785D01*
X116882380Y-53719642D01*
X116882380Y-53814880D01*
X116834761Y-53957738D01*
X116739523Y-54052976D01*
X116644285Y-54100595D01*
X116453809Y-54148214D01*
X116310952Y-54148214D01*
X116120476Y-54100595D01*
X116025238Y-54052976D01*
X115930000Y-53957738D01*
X115882380Y-53814880D01*
X115882380Y-53719642D01*
X115930000Y-53576785D01*
X115977619Y-53529166D01*
X115977619Y-53148214D02*
X115930000Y-53100595D01*
X115882380Y-53005357D01*
X115882380Y-52767261D01*
X115930000Y-52672023D01*
X115977619Y-52624404D01*
X116072857Y-52576785D01*
X116168095Y-52576785D01*
X116310952Y-52624404D01*
X116882380Y-53195833D01*
X116882380Y-52576785D01*
%TO.C,R8*%
X152022380Y-107666666D02*
X151546190Y-108000000D01*
X152022380Y-108238095D02*
X151022380Y-108238095D01*
X151022380Y-107857142D01*
X151070000Y-107761904D01*
X151117619Y-107714285D01*
X151212857Y-107666666D01*
X151355714Y-107666666D01*
X151450952Y-107714285D01*
X151498571Y-107761904D01*
X151546190Y-107857142D01*
X151546190Y-108238095D01*
X151450952Y-107095238D02*
X151403333Y-107190476D01*
X151355714Y-107238095D01*
X151260476Y-107285714D01*
X151212857Y-107285714D01*
X151117619Y-107238095D01*
X151070000Y-107190476D01*
X151022380Y-107095238D01*
X151022380Y-106904761D01*
X151070000Y-106809523D01*
X151117619Y-106761904D01*
X151212857Y-106714285D01*
X151260476Y-106714285D01*
X151355714Y-106761904D01*
X151403333Y-106809523D01*
X151450952Y-106904761D01*
X151450952Y-107095238D01*
X151498571Y-107190476D01*
X151546190Y-107238095D01*
X151641428Y-107285714D01*
X151831904Y-107285714D01*
X151927142Y-107238095D01*
X151974761Y-107190476D01*
X152022380Y-107095238D01*
X152022380Y-106904761D01*
X151974761Y-106809523D01*
X151927142Y-106761904D01*
X151831904Y-106714285D01*
X151641428Y-106714285D01*
X151546190Y-106761904D01*
X151498571Y-106809523D01*
X151450952Y-106904761D01*
%TO.C,GND1*%
X138261904Y-105170000D02*
X138166666Y-105122380D01*
X138023809Y-105122380D01*
X137880952Y-105170000D01*
X137785714Y-105265238D01*
X137738095Y-105360476D01*
X137690476Y-105550952D01*
X137690476Y-105693809D01*
X137738095Y-105884285D01*
X137785714Y-105979523D01*
X137880952Y-106074761D01*
X138023809Y-106122380D01*
X138119047Y-106122380D01*
X138261904Y-106074761D01*
X138309523Y-106027142D01*
X138309523Y-105693809D01*
X138119047Y-105693809D01*
X138738095Y-106122380D02*
X138738095Y-105122380D01*
X139309523Y-106122380D01*
X139309523Y-105122380D01*
X139785714Y-106122380D02*
X139785714Y-105122380D01*
X140023809Y-105122380D01*
X140166666Y-105170000D01*
X140261904Y-105265238D01*
X140309523Y-105360476D01*
X140357142Y-105550952D01*
X140357142Y-105693809D01*
X140309523Y-105884285D01*
X140261904Y-105979523D01*
X140166666Y-106074761D01*
X140023809Y-106122380D01*
X139785714Y-106122380D01*
X141309523Y-106122380D02*
X140738095Y-106122380D01*
X141023809Y-106122380D02*
X141023809Y-105122380D01*
X140928571Y-105265238D01*
X140833333Y-105360476D01*
X140738095Y-105408095D01*
%TO.C,STLinkv3*%
X118476190Y-82909761D02*
X118619047Y-82957380D01*
X118857142Y-82957380D01*
X118952380Y-82909761D01*
X119000000Y-82862142D01*
X119047619Y-82766904D01*
X119047619Y-82671666D01*
X119000000Y-82576428D01*
X118952380Y-82528809D01*
X118857142Y-82481190D01*
X118666666Y-82433571D01*
X118571428Y-82385952D01*
X118523809Y-82338333D01*
X118476190Y-82243095D01*
X118476190Y-82147857D01*
X118523809Y-82052619D01*
X118571428Y-82005000D01*
X118666666Y-81957380D01*
X118904761Y-81957380D01*
X119047619Y-82005000D01*
X119333333Y-81957380D02*
X119904761Y-81957380D01*
X119619047Y-82957380D02*
X119619047Y-81957380D01*
X120714285Y-82957380D02*
X120238095Y-82957380D01*
X120238095Y-81957380D01*
X121047619Y-82957380D02*
X121047619Y-82290714D01*
X121047619Y-81957380D02*
X121000000Y-82005000D01*
X121047619Y-82052619D01*
X121095238Y-82005000D01*
X121047619Y-81957380D01*
X121047619Y-82052619D01*
X121523809Y-82290714D02*
X121523809Y-82957380D01*
X121523809Y-82385952D02*
X121571428Y-82338333D01*
X121666666Y-82290714D01*
X121809523Y-82290714D01*
X121904761Y-82338333D01*
X121952380Y-82433571D01*
X121952380Y-82957380D01*
X122428571Y-82957380D02*
X122428571Y-81957380D01*
X122523809Y-82576428D02*
X122809523Y-82957380D01*
X122809523Y-82290714D02*
X122428571Y-82671666D01*
X123142857Y-82290714D02*
X123380952Y-82957380D01*
X123619047Y-82290714D01*
X123904761Y-81957380D02*
X124523809Y-81957380D01*
X124190476Y-82338333D01*
X124333333Y-82338333D01*
X124428571Y-82385952D01*
X124476190Y-82433571D01*
X124523809Y-82528809D01*
X124523809Y-82766904D01*
X124476190Y-82862142D01*
X124428571Y-82909761D01*
X124333333Y-82957380D01*
X124047619Y-82957380D01*
X123952380Y-82909761D01*
X123904761Y-82862142D01*
%TO.C,R22*%
X186357142Y-68177380D02*
X186023809Y-67701190D01*
X185785714Y-68177380D02*
X185785714Y-67177380D01*
X186166666Y-67177380D01*
X186261904Y-67225000D01*
X186309523Y-67272619D01*
X186357142Y-67367857D01*
X186357142Y-67510714D01*
X186309523Y-67605952D01*
X186261904Y-67653571D01*
X186166666Y-67701190D01*
X185785714Y-67701190D01*
X186738095Y-67272619D02*
X186785714Y-67225000D01*
X186880952Y-67177380D01*
X187119047Y-67177380D01*
X187214285Y-67225000D01*
X187261904Y-67272619D01*
X187309523Y-67367857D01*
X187309523Y-67463095D01*
X187261904Y-67605952D01*
X186690476Y-68177380D01*
X187309523Y-68177380D01*
X187690476Y-67272619D02*
X187738095Y-67225000D01*
X187833333Y-67177380D01*
X188071428Y-67177380D01*
X188166666Y-67225000D01*
X188214285Y-67272619D01*
X188261904Y-67367857D01*
X188261904Y-67463095D01*
X188214285Y-67605952D01*
X187642857Y-68177380D01*
X188261904Y-68177380D01*
D11*
%TO.C,D1*%
X160597961Y-112882190D02*
X160277961Y-112882190D01*
X160277961Y-112806000D01*
X160293200Y-112760285D01*
X160323676Y-112729809D01*
X160354152Y-112714571D01*
X160415104Y-112699333D01*
X160460819Y-112699333D01*
X160521771Y-112714571D01*
X160552247Y-112729809D01*
X160582723Y-112760285D01*
X160597961Y-112806000D01*
X160597961Y-112882190D01*
X160597961Y-112394571D02*
X160597961Y-112577428D01*
X160597961Y-112486000D02*
X160277961Y-112486000D01*
X160323676Y-112516476D01*
X160354152Y-112546952D01*
X160369390Y-112577428D01*
D10*
%TO.C,L1*%
X104833333Y-65714880D02*
X104357142Y-65714880D01*
X104357142Y-64714880D01*
X105690476Y-65714880D02*
X105119047Y-65714880D01*
X105404761Y-65714880D02*
X105404761Y-64714880D01*
X105309523Y-64857738D01*
X105214285Y-64952976D01*
X105119047Y-65000595D01*
%TO.C,C11*%
X178787142Y-105142857D02*
X178834761Y-105190476D01*
X178882380Y-105333333D01*
X178882380Y-105428571D01*
X178834761Y-105571428D01*
X178739523Y-105666666D01*
X178644285Y-105714285D01*
X178453809Y-105761904D01*
X178310952Y-105761904D01*
X178120476Y-105714285D01*
X178025238Y-105666666D01*
X177930000Y-105571428D01*
X177882380Y-105428571D01*
X177882380Y-105333333D01*
X177930000Y-105190476D01*
X177977619Y-105142857D01*
X178882380Y-104190476D02*
X178882380Y-104761904D01*
X178882380Y-104476190D02*
X177882380Y-104476190D01*
X178025238Y-104571428D01*
X178120476Y-104666666D01*
X178168095Y-104761904D01*
X178882380Y-103238095D02*
X178882380Y-103809523D01*
X178882380Y-103523809D02*
X177882380Y-103523809D01*
X178025238Y-103619047D01*
X178120476Y-103714285D01*
X178168095Y-103809523D01*
%TO.C,C14*%
X147857142Y-69927142D02*
X147809523Y-69974761D01*
X147666666Y-70022380D01*
X147571428Y-70022380D01*
X147428571Y-69974761D01*
X147333333Y-69879523D01*
X147285714Y-69784285D01*
X147238095Y-69593809D01*
X147238095Y-69450952D01*
X147285714Y-69260476D01*
X147333333Y-69165238D01*
X147428571Y-69070000D01*
X147571428Y-69022380D01*
X147666666Y-69022380D01*
X147809523Y-69070000D01*
X147857142Y-69117619D01*
X148809523Y-70022380D02*
X148238095Y-70022380D01*
X148523809Y-70022380D02*
X148523809Y-69022380D01*
X148428571Y-69165238D01*
X148333333Y-69260476D01*
X148238095Y-69308095D01*
X149666666Y-69355714D02*
X149666666Y-70022380D01*
X149428571Y-68974761D02*
X149190476Y-69689047D01*
X149809523Y-69689047D01*
%TO.C,Jumper4*%
X113822380Y-78642857D02*
X114536666Y-78642857D01*
X114679523Y-78690476D01*
X114774761Y-78785714D01*
X114822380Y-78928571D01*
X114822380Y-79023809D01*
X114155714Y-77738095D02*
X114822380Y-77738095D01*
X114155714Y-78166666D02*
X114679523Y-78166666D01*
X114774761Y-78119047D01*
X114822380Y-78023809D01*
X114822380Y-77880952D01*
X114774761Y-77785714D01*
X114727142Y-77738095D01*
X114822380Y-77261904D02*
X114155714Y-77261904D01*
X114250952Y-77261904D02*
X114203333Y-77214285D01*
X114155714Y-77119047D01*
X114155714Y-76976190D01*
X114203333Y-76880952D01*
X114298571Y-76833333D01*
X114822380Y-76833333D01*
X114298571Y-76833333D02*
X114203333Y-76785714D01*
X114155714Y-76690476D01*
X114155714Y-76547619D01*
X114203333Y-76452380D01*
X114298571Y-76404761D01*
X114822380Y-76404761D01*
X114155714Y-75928571D02*
X115155714Y-75928571D01*
X114203333Y-75928571D02*
X114155714Y-75833333D01*
X114155714Y-75642857D01*
X114203333Y-75547619D01*
X114250952Y-75500000D01*
X114346190Y-75452380D01*
X114631904Y-75452380D01*
X114727142Y-75500000D01*
X114774761Y-75547619D01*
X114822380Y-75642857D01*
X114822380Y-75833333D01*
X114774761Y-75928571D01*
X114774761Y-74642857D02*
X114822380Y-74738095D01*
X114822380Y-74928571D01*
X114774761Y-75023809D01*
X114679523Y-75071428D01*
X114298571Y-75071428D01*
X114203333Y-75023809D01*
X114155714Y-74928571D01*
X114155714Y-74738095D01*
X114203333Y-74642857D01*
X114298571Y-74595238D01*
X114393809Y-74595238D01*
X114489047Y-75071428D01*
X114822380Y-74166666D02*
X114155714Y-74166666D01*
X114346190Y-74166666D02*
X114250952Y-74119047D01*
X114203333Y-74071428D01*
X114155714Y-73976190D01*
X114155714Y-73880952D01*
X114155714Y-73119047D02*
X114822380Y-73119047D01*
X113774761Y-73357142D02*
X114489047Y-73595238D01*
X114489047Y-72976190D01*
%TO.C,R23*%
X186357142Y-80677380D02*
X186023809Y-80201190D01*
X185785714Y-80677380D02*
X185785714Y-79677380D01*
X186166666Y-79677380D01*
X186261904Y-79725000D01*
X186309523Y-79772619D01*
X186357142Y-79867857D01*
X186357142Y-80010714D01*
X186309523Y-80105952D01*
X186261904Y-80153571D01*
X186166666Y-80201190D01*
X185785714Y-80201190D01*
X186738095Y-79772619D02*
X186785714Y-79725000D01*
X186880952Y-79677380D01*
X187119047Y-79677380D01*
X187214285Y-79725000D01*
X187261904Y-79772619D01*
X187309523Y-79867857D01*
X187309523Y-79963095D01*
X187261904Y-80105952D01*
X186690476Y-80677380D01*
X187309523Y-80677380D01*
X187642857Y-79677380D02*
X188261904Y-79677380D01*
X187928571Y-80058333D01*
X188071428Y-80058333D01*
X188166666Y-80105952D01*
X188214285Y-80153571D01*
X188261904Y-80248809D01*
X188261904Y-80486904D01*
X188214285Y-80582142D01*
X188166666Y-80629761D01*
X188071428Y-80677380D01*
X187785714Y-80677380D01*
X187690476Y-80629761D01*
X187642857Y-80582142D01*
%TO.C,C13*%
X147857142Y-64927142D02*
X147809523Y-64974761D01*
X147666666Y-65022380D01*
X147571428Y-65022380D01*
X147428571Y-64974761D01*
X147333333Y-64879523D01*
X147285714Y-64784285D01*
X147238095Y-64593809D01*
X147238095Y-64450952D01*
X147285714Y-64260476D01*
X147333333Y-64165238D01*
X147428571Y-64070000D01*
X147571428Y-64022380D01*
X147666666Y-64022380D01*
X147809523Y-64070000D01*
X147857142Y-64117619D01*
X148809523Y-65022380D02*
X148238095Y-65022380D01*
X148523809Y-65022380D02*
X148523809Y-64022380D01*
X148428571Y-64165238D01*
X148333333Y-64260476D01*
X148238095Y-64308095D01*
X149142857Y-64022380D02*
X149761904Y-64022380D01*
X149428571Y-64403333D01*
X149571428Y-64403333D01*
X149666666Y-64450952D01*
X149714285Y-64498571D01*
X149761904Y-64593809D01*
X149761904Y-64831904D01*
X149714285Y-64927142D01*
X149666666Y-64974761D01*
X149571428Y-65022380D01*
X149285714Y-65022380D01*
X149190476Y-64974761D01*
X149142857Y-64927142D01*
%TO.C,JVL53L0X_2490*%
X93952380Y-58515714D02*
X94666666Y-58515714D01*
X94809523Y-58563333D01*
X94904761Y-58658571D01*
X94952380Y-58801428D01*
X94952380Y-58896666D01*
X93952380Y-58182380D02*
X94952380Y-57849047D01*
X93952380Y-57515714D01*
X94952380Y-56706190D02*
X94952380Y-57182380D01*
X93952380Y-57182380D01*
X93952380Y-55896666D02*
X93952380Y-56372857D01*
X94428571Y-56420476D01*
X94380952Y-56372857D01*
X94333333Y-56277619D01*
X94333333Y-56039523D01*
X94380952Y-55944285D01*
X94428571Y-55896666D01*
X94523809Y-55849047D01*
X94761904Y-55849047D01*
X94857142Y-55896666D01*
X94904761Y-55944285D01*
X94952380Y-56039523D01*
X94952380Y-56277619D01*
X94904761Y-56372857D01*
X94857142Y-56420476D01*
X93952380Y-55515714D02*
X93952380Y-54896666D01*
X94333333Y-55230000D01*
X94333333Y-55087142D01*
X94380952Y-54991904D01*
X94428571Y-54944285D01*
X94523809Y-54896666D01*
X94761904Y-54896666D01*
X94857142Y-54944285D01*
X94904761Y-54991904D01*
X94952380Y-55087142D01*
X94952380Y-55372857D01*
X94904761Y-55468095D01*
X94857142Y-55515714D01*
X94952380Y-53991904D02*
X94952380Y-54468095D01*
X93952380Y-54468095D01*
X93952380Y-53468095D02*
X93952380Y-53372857D01*
X94000000Y-53277619D01*
X94047619Y-53230000D01*
X94142857Y-53182380D01*
X94333333Y-53134761D01*
X94571428Y-53134761D01*
X94761904Y-53182380D01*
X94857142Y-53230000D01*
X94904761Y-53277619D01*
X94952380Y-53372857D01*
X94952380Y-53468095D01*
X94904761Y-53563333D01*
X94857142Y-53610952D01*
X94761904Y-53658571D01*
X94571428Y-53706190D01*
X94333333Y-53706190D01*
X94142857Y-53658571D01*
X94047619Y-53610952D01*
X94000000Y-53563333D01*
X93952380Y-53468095D01*
X93952380Y-52801428D02*
X94952380Y-52134761D01*
X93952380Y-52134761D02*
X94952380Y-52801428D01*
X95047619Y-51991904D02*
X95047619Y-51230000D01*
X94047619Y-51039523D02*
X94000000Y-50991904D01*
X93952380Y-50896666D01*
X93952380Y-50658571D01*
X94000000Y-50563333D01*
X94047619Y-50515714D01*
X94142857Y-50468095D01*
X94238095Y-50468095D01*
X94380952Y-50515714D01*
X94952380Y-51087142D01*
X94952380Y-50468095D01*
X94285714Y-49610952D02*
X94952380Y-49610952D01*
X93904761Y-49849047D02*
X94619047Y-50087142D01*
X94619047Y-49468095D01*
X94952380Y-49039523D02*
X94952380Y-48849047D01*
X94904761Y-48753809D01*
X94857142Y-48706190D01*
X94714285Y-48610952D01*
X94523809Y-48563333D01*
X94142857Y-48563333D01*
X94047619Y-48610952D01*
X94000000Y-48658571D01*
X93952380Y-48753809D01*
X93952380Y-48944285D01*
X94000000Y-49039523D01*
X94047619Y-49087142D01*
X94142857Y-49134761D01*
X94380952Y-49134761D01*
X94476190Y-49087142D01*
X94523809Y-49039523D01*
X94571428Y-48944285D01*
X94571428Y-48753809D01*
X94523809Y-48658571D01*
X94476190Y-48610952D01*
X94380952Y-48563333D01*
X93952380Y-47944285D02*
X93952380Y-47849047D01*
X94000000Y-47753809D01*
X94047619Y-47706190D01*
X94142857Y-47658571D01*
X94333333Y-47610952D01*
X94571428Y-47610952D01*
X94761904Y-47658571D01*
X94857142Y-47706190D01*
X94904761Y-47753809D01*
X94952380Y-47849047D01*
X94952380Y-47944285D01*
X94904761Y-48039523D01*
X94857142Y-48087142D01*
X94761904Y-48134761D01*
X94571428Y-48182380D01*
X94333333Y-48182380D01*
X94142857Y-48134761D01*
X94047619Y-48087142D01*
X94000000Y-48039523D01*
X93952380Y-47944285D01*
%TO.C,Rsc1*%
X131500000Y-47194880D02*
X131166666Y-46718690D01*
X130928571Y-47194880D02*
X130928571Y-46194880D01*
X131309523Y-46194880D01*
X131404761Y-46242500D01*
X131452380Y-46290119D01*
X131500000Y-46385357D01*
X131500000Y-46528214D01*
X131452380Y-46623452D01*
X131404761Y-46671071D01*
X131309523Y-46718690D01*
X130928571Y-46718690D01*
X131880952Y-47147261D02*
X131976190Y-47194880D01*
X132166666Y-47194880D01*
X132261904Y-47147261D01*
X132309523Y-47052023D01*
X132309523Y-47004404D01*
X132261904Y-46909166D01*
X132166666Y-46861547D01*
X132023809Y-46861547D01*
X131928571Y-46813928D01*
X131880952Y-46718690D01*
X131880952Y-46671071D01*
X131928571Y-46575833D01*
X132023809Y-46528214D01*
X132166666Y-46528214D01*
X132261904Y-46575833D01*
X133166666Y-47147261D02*
X133071428Y-47194880D01*
X132880952Y-47194880D01*
X132785714Y-47147261D01*
X132738095Y-47099642D01*
X132690476Y-47004404D01*
X132690476Y-46718690D01*
X132738095Y-46623452D01*
X132785714Y-46575833D01*
X132880952Y-46528214D01*
X133071428Y-46528214D01*
X133166666Y-46575833D01*
X134119047Y-47194880D02*
X133547619Y-47194880D01*
X133833333Y-47194880D02*
X133833333Y-46194880D01*
X133738095Y-46337738D01*
X133642857Y-46432976D01*
X133547619Y-46480595D01*
%TO.C,AlimRasp1*%
X100809523Y-40666666D02*
X101285714Y-40666666D01*
X100714285Y-40952380D02*
X101047619Y-39952380D01*
X101380952Y-40952380D01*
X101857142Y-40952380D02*
X101761904Y-40904761D01*
X101714285Y-40809523D01*
X101714285Y-39952380D01*
X102238095Y-40952380D02*
X102238095Y-40285714D01*
X102238095Y-39952380D02*
X102190476Y-40000000D01*
X102238095Y-40047619D01*
X102285714Y-40000000D01*
X102238095Y-39952380D01*
X102238095Y-40047619D01*
X102714285Y-40952380D02*
X102714285Y-40285714D01*
X102714285Y-40380952D02*
X102761904Y-40333333D01*
X102857142Y-40285714D01*
X103000000Y-40285714D01*
X103095238Y-40333333D01*
X103142857Y-40428571D01*
X103142857Y-40952380D01*
X103142857Y-40428571D02*
X103190476Y-40333333D01*
X103285714Y-40285714D01*
X103428571Y-40285714D01*
X103523809Y-40333333D01*
X103571428Y-40428571D01*
X103571428Y-40952380D01*
X104619047Y-40952380D02*
X104285714Y-40476190D01*
X104047619Y-40952380D02*
X104047619Y-39952380D01*
X104428571Y-39952380D01*
X104523809Y-40000000D01*
X104571428Y-40047619D01*
X104619047Y-40142857D01*
X104619047Y-40285714D01*
X104571428Y-40380952D01*
X104523809Y-40428571D01*
X104428571Y-40476190D01*
X104047619Y-40476190D01*
X105476190Y-40952380D02*
X105476190Y-40428571D01*
X105428571Y-40333333D01*
X105333333Y-40285714D01*
X105142857Y-40285714D01*
X105047619Y-40333333D01*
X105476190Y-40904761D02*
X105380952Y-40952380D01*
X105142857Y-40952380D01*
X105047619Y-40904761D01*
X105000000Y-40809523D01*
X105000000Y-40714285D01*
X105047619Y-40619047D01*
X105142857Y-40571428D01*
X105380952Y-40571428D01*
X105476190Y-40523809D01*
X105904761Y-40904761D02*
X106000000Y-40952380D01*
X106190476Y-40952380D01*
X106285714Y-40904761D01*
X106333333Y-40809523D01*
X106333333Y-40761904D01*
X106285714Y-40666666D01*
X106190476Y-40619047D01*
X106047619Y-40619047D01*
X105952380Y-40571428D01*
X105904761Y-40476190D01*
X105904761Y-40428571D01*
X105952380Y-40333333D01*
X106047619Y-40285714D01*
X106190476Y-40285714D01*
X106285714Y-40333333D01*
X106761904Y-40285714D02*
X106761904Y-41285714D01*
X106761904Y-40333333D02*
X106857142Y-40285714D01*
X107047619Y-40285714D01*
X107142857Y-40333333D01*
X107190476Y-40380952D01*
X107238095Y-40476190D01*
X107238095Y-40761904D01*
X107190476Y-40857142D01*
X107142857Y-40904761D01*
X107047619Y-40952380D01*
X106857142Y-40952380D01*
X106761904Y-40904761D01*
X108190476Y-40952380D02*
X107619047Y-40952380D01*
X107904761Y-40952380D02*
X107904761Y-39952380D01*
X107809523Y-40095238D01*
X107714285Y-40190476D01*
X107619047Y-40238095D01*
%TO.C,R9*%
X149022380Y-107579166D02*
X148546190Y-107912500D01*
X149022380Y-108150595D02*
X148022380Y-108150595D01*
X148022380Y-107769642D01*
X148070000Y-107674404D01*
X148117619Y-107626785D01*
X148212857Y-107579166D01*
X148355714Y-107579166D01*
X148450952Y-107626785D01*
X148498571Y-107674404D01*
X148546190Y-107769642D01*
X148546190Y-108150595D01*
X149022380Y-107102976D02*
X149022380Y-106912500D01*
X148974761Y-106817261D01*
X148927142Y-106769642D01*
X148784285Y-106674404D01*
X148593809Y-106626785D01*
X148212857Y-106626785D01*
X148117619Y-106674404D01*
X148070000Y-106722023D01*
X148022380Y-106817261D01*
X148022380Y-107007738D01*
X148070000Y-107102976D01*
X148117619Y-107150595D01*
X148212857Y-107198214D01*
X148450952Y-107198214D01*
X148546190Y-107150595D01*
X148593809Y-107102976D01*
X148641428Y-107007738D01*
X148641428Y-106817261D01*
X148593809Y-106722023D01*
X148546190Y-106674404D01*
X148450952Y-106626785D01*
%TO.C,R16*%
X101689918Y-84607380D02*
X101356585Y-84131190D01*
X101118490Y-84607380D02*
X101118490Y-83607380D01*
X101499442Y-83607380D01*
X101594680Y-83655000D01*
X101642299Y-83702619D01*
X101689918Y-83797857D01*
X101689918Y-83940714D01*
X101642299Y-84035952D01*
X101594680Y-84083571D01*
X101499442Y-84131190D01*
X101118490Y-84131190D01*
X102642299Y-84607380D02*
X102070871Y-84607380D01*
X102356585Y-84607380D02*
X102356585Y-83607380D01*
X102261347Y-83750238D01*
X102166109Y-83845476D01*
X102070871Y-83893095D01*
X103499442Y-83607380D02*
X103308966Y-83607380D01*
X103213728Y-83655000D01*
X103166109Y-83702619D01*
X103070871Y-83845476D01*
X103023252Y-84035952D01*
X103023252Y-84416904D01*
X103070871Y-84512142D01*
X103118490Y-84559761D01*
X103213728Y-84607380D01*
X103404204Y-84607380D01*
X103499442Y-84559761D01*
X103547061Y-84512142D01*
X103594680Y-84416904D01*
X103594680Y-84178809D01*
X103547061Y-84083571D01*
X103499442Y-84035952D01*
X103404204Y-83988333D01*
X103213728Y-83988333D01*
X103118490Y-84035952D01*
X103070871Y-84083571D01*
X103023252Y-84178809D01*
%TO.C,R21*%
X102111866Y-71452380D02*
X101778533Y-70976190D01*
X101540438Y-71452380D02*
X101540438Y-70452380D01*
X101921390Y-70452380D01*
X102016628Y-70500000D01*
X102064247Y-70547619D01*
X102111866Y-70642857D01*
X102111866Y-70785714D01*
X102064247Y-70880952D01*
X102016628Y-70928571D01*
X101921390Y-70976190D01*
X101540438Y-70976190D01*
X102492819Y-70547619D02*
X102540438Y-70500000D01*
X102635676Y-70452380D01*
X102873771Y-70452380D01*
X102969009Y-70500000D01*
X103016628Y-70547619D01*
X103064247Y-70642857D01*
X103064247Y-70738095D01*
X103016628Y-70880952D01*
X102445200Y-71452380D01*
X103064247Y-71452380D01*
X104016628Y-71452380D02*
X103445200Y-71452380D01*
X103730914Y-71452380D02*
X103730914Y-70452380D01*
X103635676Y-70595238D01*
X103540438Y-70690476D01*
X103445200Y-70738095D01*
%TO.C,R5*%
X173333333Y-62452380D02*
X173000000Y-61976190D01*
X172761904Y-62452380D02*
X172761904Y-61452380D01*
X173142857Y-61452380D01*
X173238095Y-61500000D01*
X173285714Y-61547619D01*
X173333333Y-61642857D01*
X173333333Y-61785714D01*
X173285714Y-61880952D01*
X173238095Y-61928571D01*
X173142857Y-61976190D01*
X172761904Y-61976190D01*
X174238095Y-61452380D02*
X173761904Y-61452380D01*
X173714285Y-61928571D01*
X173761904Y-61880952D01*
X173857142Y-61833333D01*
X174095238Y-61833333D01*
X174190476Y-61880952D01*
X174238095Y-61928571D01*
X174285714Y-62023809D01*
X174285714Y-62261904D01*
X174238095Y-62357142D01*
X174190476Y-62404761D01*
X174095238Y-62452380D01*
X173857142Y-62452380D01*
X173761904Y-62404761D01*
X173714285Y-62357142D01*
D11*
%TO.C,D4*%
X157597961Y-112882190D02*
X157277961Y-112882190D01*
X157277961Y-112806000D01*
X157293200Y-112760285D01*
X157323676Y-112729809D01*
X157354152Y-112714571D01*
X157415104Y-112699333D01*
X157460819Y-112699333D01*
X157521771Y-112714571D01*
X157552247Y-112729809D01*
X157582723Y-112760285D01*
X157597961Y-112806000D01*
X157597961Y-112882190D01*
X157384628Y-112425047D02*
X157597961Y-112425047D01*
X157262723Y-112501238D02*
X157491295Y-112577428D01*
X157491295Y-112379333D01*
D10*
%TO.C,User_btn1*%
X181694440Y-107811186D02*
X181694440Y-108621781D01*
X181742122Y-108717145D01*
X181789804Y-108764827D01*
X181885168Y-108812509D01*
X182075896Y-108812509D01*
X182171261Y-108764827D01*
X182218943Y-108717145D01*
X182266625Y-108621781D01*
X182266625Y-107811186D01*
X182695763Y-108764827D02*
X182791127Y-108812509D01*
X182981855Y-108812509D01*
X183077219Y-108764827D01*
X183124901Y-108669463D01*
X183124901Y-108621781D01*
X183077219Y-108526417D01*
X182981855Y-108478735D01*
X182838809Y-108478735D01*
X182743445Y-108431053D01*
X182695763Y-108335688D01*
X182695763Y-108288006D01*
X182743445Y-108192642D01*
X182838809Y-108144960D01*
X182981855Y-108144960D01*
X183077219Y-108192642D01*
X183935496Y-108764827D02*
X183840132Y-108812509D01*
X183649404Y-108812509D01*
X183554040Y-108764827D01*
X183506358Y-108669463D01*
X183506358Y-108288006D01*
X183554040Y-108192642D01*
X183649404Y-108144960D01*
X183840132Y-108144960D01*
X183935496Y-108192642D01*
X183983178Y-108288006D01*
X183983178Y-108383371D01*
X183506358Y-108478735D01*
X184412317Y-108812509D02*
X184412317Y-108144960D01*
X184412317Y-108335688D02*
X184459999Y-108240324D01*
X184507681Y-108192642D01*
X184603045Y-108144960D01*
X184698409Y-108144960D01*
X184793773Y-108907873D02*
X185556686Y-108907873D01*
X185795096Y-108812509D02*
X185795096Y-107811186D01*
X185795096Y-108192642D02*
X185890460Y-108144960D01*
X186081188Y-108144960D01*
X186176553Y-108192642D01*
X186224235Y-108240324D01*
X186271917Y-108335688D01*
X186271917Y-108621781D01*
X186224235Y-108717145D01*
X186176553Y-108764827D01*
X186081188Y-108812509D01*
X185890460Y-108812509D01*
X185795096Y-108764827D01*
X186558009Y-108144960D02*
X186939465Y-108144960D01*
X186701055Y-107811186D02*
X186701055Y-108669463D01*
X186748737Y-108764827D01*
X186844101Y-108812509D01*
X186939465Y-108812509D01*
X187273240Y-108144960D02*
X187273240Y-108812509D01*
X187273240Y-108240324D02*
X187320922Y-108192642D01*
X187416286Y-108144960D01*
X187559332Y-108144960D01*
X187654696Y-108192642D01*
X187702378Y-108288006D01*
X187702378Y-108812509D01*
X188703701Y-108812509D02*
X188131516Y-108812509D01*
X188417609Y-108812509D02*
X188417609Y-107811186D01*
X188322245Y-107954232D01*
X188226881Y-108049596D01*
X188131516Y-108097278D01*
%TO.C,U6*%
X154738095Y-79552380D02*
X154738095Y-80361904D01*
X154785714Y-80457142D01*
X154833333Y-80504761D01*
X154928571Y-80552380D01*
X155119047Y-80552380D01*
X155214285Y-80504761D01*
X155261904Y-80457142D01*
X155309523Y-80361904D01*
X155309523Y-79552380D01*
X156214285Y-79552380D02*
X156023809Y-79552380D01*
X155928571Y-79600000D01*
X155880952Y-79647619D01*
X155785714Y-79790476D01*
X155738095Y-79980952D01*
X155738095Y-80361904D01*
X155785714Y-80457142D01*
X155833333Y-80504761D01*
X155928571Y-80552380D01*
X156119047Y-80552380D01*
X156214285Y-80504761D01*
X156261904Y-80457142D01*
X156309523Y-80361904D01*
X156309523Y-80123809D01*
X156261904Y-80028571D01*
X156214285Y-79980952D01*
X156119047Y-79933333D01*
X155928571Y-79933333D01*
X155833333Y-79980952D01*
X155785714Y-80028571D01*
X155738095Y-80123809D01*
%TO.C,BDT2*%
X90714285Y-83098571D02*
X90857142Y-83146190D01*
X90904761Y-83193809D01*
X90952380Y-83289047D01*
X90952380Y-83431904D01*
X90904761Y-83527142D01*
X90857142Y-83574761D01*
X90761904Y-83622380D01*
X90380952Y-83622380D01*
X90380952Y-82622380D01*
X90714285Y-82622380D01*
X90809523Y-82670000D01*
X90857142Y-82717619D01*
X90904761Y-82812857D01*
X90904761Y-82908095D01*
X90857142Y-83003333D01*
X90809523Y-83050952D01*
X90714285Y-83098571D01*
X90380952Y-83098571D01*
X91380952Y-83622380D02*
X91380952Y-82622380D01*
X91619047Y-82622380D01*
X91761904Y-82670000D01*
X91857142Y-82765238D01*
X91904761Y-82860476D01*
X91952380Y-83050952D01*
X91952380Y-83193809D01*
X91904761Y-83384285D01*
X91857142Y-83479523D01*
X91761904Y-83574761D01*
X91619047Y-83622380D01*
X91380952Y-83622380D01*
X92238095Y-82622380D02*
X92809523Y-82622380D01*
X92523809Y-83622380D02*
X92523809Y-82622380D01*
X93095238Y-82717619D02*
X93142857Y-82670000D01*
X93238095Y-82622380D01*
X93476190Y-82622380D01*
X93571428Y-82670000D01*
X93619047Y-82717619D01*
X93666666Y-82812857D01*
X93666666Y-82908095D01*
X93619047Y-83050952D01*
X93047619Y-83622380D01*
X93666666Y-83622380D01*
%TO.C,BAT1*%
X142610714Y-45863571D02*
X142753571Y-45911190D01*
X142801190Y-45958809D01*
X142848809Y-46054047D01*
X142848809Y-46196904D01*
X142801190Y-46292142D01*
X142753571Y-46339761D01*
X142658333Y-46387380D01*
X142277380Y-46387380D01*
X142277380Y-45387380D01*
X142610714Y-45387380D01*
X142705952Y-45435000D01*
X142753571Y-45482619D01*
X142801190Y-45577857D01*
X142801190Y-45673095D01*
X142753571Y-45768333D01*
X142705952Y-45815952D01*
X142610714Y-45863571D01*
X142277380Y-45863571D01*
X143229761Y-46101666D02*
X143705952Y-46101666D01*
X143134523Y-46387380D02*
X143467857Y-45387380D01*
X143801190Y-46387380D01*
X143991666Y-45387380D02*
X144563095Y-45387380D01*
X144277380Y-46387380D02*
X144277380Y-45387380D01*
X145420238Y-46387380D02*
X144848809Y-46387380D01*
X145134523Y-46387380D02*
X145134523Y-45387380D01*
X145039285Y-45530238D01*
X144944047Y-45625476D01*
X144848809Y-45673095D01*
%TO.C,R2*%
X99468733Y-50244880D02*
X99135400Y-49768690D01*
X98897304Y-50244880D02*
X98897304Y-49244880D01*
X99278257Y-49244880D01*
X99373495Y-49292500D01*
X99421114Y-49340119D01*
X99468733Y-49435357D01*
X99468733Y-49578214D01*
X99421114Y-49673452D01*
X99373495Y-49721071D01*
X99278257Y-49768690D01*
X98897304Y-49768690D01*
X99849685Y-49340119D02*
X99897304Y-49292500D01*
X99992542Y-49244880D01*
X100230638Y-49244880D01*
X100325876Y-49292500D01*
X100373495Y-49340119D01*
X100421114Y-49435357D01*
X100421114Y-49530595D01*
X100373495Y-49673452D01*
X99802066Y-50244880D01*
X100421114Y-50244880D01*
%TO.C,Reg3.3*%
X138513095Y-73427380D02*
X138179761Y-72951190D01*
X137941666Y-73427380D02*
X137941666Y-72427380D01*
X138322619Y-72427380D01*
X138417857Y-72475000D01*
X138465476Y-72522619D01*
X138513095Y-72617857D01*
X138513095Y-72760714D01*
X138465476Y-72855952D01*
X138417857Y-72903571D01*
X138322619Y-72951190D01*
X137941666Y-72951190D01*
X139322619Y-73379761D02*
X139227380Y-73427380D01*
X139036904Y-73427380D01*
X138941666Y-73379761D01*
X138894047Y-73284523D01*
X138894047Y-72903571D01*
X138941666Y-72808333D01*
X139036904Y-72760714D01*
X139227380Y-72760714D01*
X139322619Y-72808333D01*
X139370238Y-72903571D01*
X139370238Y-72998809D01*
X138894047Y-73094047D01*
X140227380Y-72760714D02*
X140227380Y-73570238D01*
X140179761Y-73665476D01*
X140132142Y-73713095D01*
X140036904Y-73760714D01*
X139894047Y-73760714D01*
X139798809Y-73713095D01*
X140227380Y-73379761D02*
X140132142Y-73427380D01*
X139941666Y-73427380D01*
X139846428Y-73379761D01*
X139798809Y-73332142D01*
X139751190Y-73236904D01*
X139751190Y-72951190D01*
X139798809Y-72855952D01*
X139846428Y-72808333D01*
X139941666Y-72760714D01*
X140132142Y-72760714D01*
X140227380Y-72808333D01*
X140608333Y-72427380D02*
X141227380Y-72427380D01*
X140894047Y-72808333D01*
X141036904Y-72808333D01*
X141132142Y-72855952D01*
X141179761Y-72903571D01*
X141227380Y-72998809D01*
X141227380Y-73236904D01*
X141179761Y-73332142D01*
X141132142Y-73379761D01*
X141036904Y-73427380D01*
X140751190Y-73427380D01*
X140655952Y-73379761D01*
X140608333Y-73332142D01*
X141655952Y-73332142D02*
X141703571Y-73379761D01*
X141655952Y-73427380D01*
X141608333Y-73379761D01*
X141655952Y-73332142D01*
X141655952Y-73427380D01*
X142036904Y-72427380D02*
X142655952Y-72427380D01*
X142322619Y-72808333D01*
X142465476Y-72808333D01*
X142560714Y-72855952D01*
X142608333Y-72903571D01*
X142655952Y-72998809D01*
X142655952Y-73236904D01*
X142608333Y-73332142D01*
X142560714Y-73379761D01*
X142465476Y-73427380D01*
X142179761Y-73427380D01*
X142084523Y-73379761D01*
X142036904Y-73332142D01*
%TO.C,Rsc2*%
X174500000Y-44452380D02*
X174166666Y-43976190D01*
X173928571Y-44452380D02*
X173928571Y-43452380D01*
X174309523Y-43452380D01*
X174404761Y-43500000D01*
X174452380Y-43547619D01*
X174500000Y-43642857D01*
X174500000Y-43785714D01*
X174452380Y-43880952D01*
X174404761Y-43928571D01*
X174309523Y-43976190D01*
X173928571Y-43976190D01*
X174880952Y-44404761D02*
X174976190Y-44452380D01*
X175166666Y-44452380D01*
X175261904Y-44404761D01*
X175309523Y-44309523D01*
X175309523Y-44261904D01*
X175261904Y-44166666D01*
X175166666Y-44119047D01*
X175023809Y-44119047D01*
X174928571Y-44071428D01*
X174880952Y-43976190D01*
X174880952Y-43928571D01*
X174928571Y-43833333D01*
X175023809Y-43785714D01*
X175166666Y-43785714D01*
X175261904Y-43833333D01*
X176166666Y-44404761D02*
X176071428Y-44452380D01*
X175880952Y-44452380D01*
X175785714Y-44404761D01*
X175738095Y-44357142D01*
X175690476Y-44261904D01*
X175690476Y-43976190D01*
X175738095Y-43880952D01*
X175785714Y-43833333D01*
X175880952Y-43785714D01*
X176071428Y-43785714D01*
X176166666Y-43833333D01*
X176547619Y-43547619D02*
X176595238Y-43500000D01*
X176690476Y-43452380D01*
X176928571Y-43452380D01*
X177023809Y-43500000D01*
X177071428Y-43547619D01*
X177119047Y-43642857D01*
X177119047Y-43738095D01*
X177071428Y-43880952D01*
X176500000Y-44452380D01*
X177119047Y-44452380D01*
%TO.C,Jumper6*%
X174582380Y-74797857D02*
X175296666Y-74797857D01*
X175439523Y-74845476D01*
X175534761Y-74940714D01*
X175582380Y-75083571D01*
X175582380Y-75178809D01*
X174915714Y-73893095D02*
X175582380Y-73893095D01*
X174915714Y-74321666D02*
X175439523Y-74321666D01*
X175534761Y-74274047D01*
X175582380Y-74178809D01*
X175582380Y-74035952D01*
X175534761Y-73940714D01*
X175487142Y-73893095D01*
X175582380Y-73416904D02*
X174915714Y-73416904D01*
X175010952Y-73416904D02*
X174963333Y-73369285D01*
X174915714Y-73274047D01*
X174915714Y-73131190D01*
X174963333Y-73035952D01*
X175058571Y-72988333D01*
X175582380Y-72988333D01*
X175058571Y-72988333D02*
X174963333Y-72940714D01*
X174915714Y-72845476D01*
X174915714Y-72702619D01*
X174963333Y-72607380D01*
X175058571Y-72559761D01*
X175582380Y-72559761D01*
X174915714Y-72083571D02*
X175915714Y-72083571D01*
X174963333Y-72083571D02*
X174915714Y-71988333D01*
X174915714Y-71797857D01*
X174963333Y-71702619D01*
X175010952Y-71655000D01*
X175106190Y-71607380D01*
X175391904Y-71607380D01*
X175487142Y-71655000D01*
X175534761Y-71702619D01*
X175582380Y-71797857D01*
X175582380Y-71988333D01*
X175534761Y-72083571D01*
X175534761Y-70797857D02*
X175582380Y-70893095D01*
X175582380Y-71083571D01*
X175534761Y-71178809D01*
X175439523Y-71226428D01*
X175058571Y-71226428D01*
X174963333Y-71178809D01*
X174915714Y-71083571D01*
X174915714Y-70893095D01*
X174963333Y-70797857D01*
X175058571Y-70750238D01*
X175153809Y-70750238D01*
X175249047Y-71226428D01*
X175582380Y-70321666D02*
X174915714Y-70321666D01*
X175106190Y-70321666D02*
X175010952Y-70274047D01*
X174963333Y-70226428D01*
X174915714Y-70131190D01*
X174915714Y-70035952D01*
X174582380Y-69274047D02*
X174582380Y-69464523D01*
X174630000Y-69559761D01*
X174677619Y-69607380D01*
X174820476Y-69702619D01*
X175010952Y-69750238D01*
X175391904Y-69750238D01*
X175487142Y-69702619D01*
X175534761Y-69655000D01*
X175582380Y-69559761D01*
X175582380Y-69369285D01*
X175534761Y-69274047D01*
X175487142Y-69226428D01*
X175391904Y-69178809D01*
X175153809Y-69178809D01*
X175058571Y-69226428D01*
X175010952Y-69274047D01*
X174963333Y-69369285D01*
X174963333Y-69559761D01*
X175010952Y-69655000D01*
X175058571Y-69702619D01*
X175153809Y-69750238D01*
%TO.C,H1*%
X194238095Y-123952380D02*
X194238095Y-122952380D01*
X194238095Y-123428571D02*
X194809523Y-123428571D01*
X194809523Y-123952380D02*
X194809523Y-122952380D01*
X195809523Y-123952380D02*
X195238095Y-123952380D01*
X195523809Y-123952380D02*
X195523809Y-122952380D01*
X195428571Y-123095238D01*
X195333333Y-123190476D01*
X195238095Y-123238095D01*
%TO.C,Rasp_conn1*%
X112857142Y-41452380D02*
X112523809Y-40976190D01*
X112285714Y-41452380D02*
X112285714Y-40452380D01*
X112666666Y-40452380D01*
X112761904Y-40500000D01*
X112809523Y-40547619D01*
X112857142Y-40642857D01*
X112857142Y-40785714D01*
X112809523Y-40880952D01*
X112761904Y-40928571D01*
X112666666Y-40976190D01*
X112285714Y-40976190D01*
X113714285Y-41452380D02*
X113714285Y-40928571D01*
X113666666Y-40833333D01*
X113571428Y-40785714D01*
X113380952Y-40785714D01*
X113285714Y-40833333D01*
X113714285Y-41404761D02*
X113619047Y-41452380D01*
X113380952Y-41452380D01*
X113285714Y-41404761D01*
X113238095Y-41309523D01*
X113238095Y-41214285D01*
X113285714Y-41119047D01*
X113380952Y-41071428D01*
X113619047Y-41071428D01*
X113714285Y-41023809D01*
X114142857Y-41404761D02*
X114238095Y-41452380D01*
X114428571Y-41452380D01*
X114523809Y-41404761D01*
X114571428Y-41309523D01*
X114571428Y-41261904D01*
X114523809Y-41166666D01*
X114428571Y-41119047D01*
X114285714Y-41119047D01*
X114190476Y-41071428D01*
X114142857Y-40976190D01*
X114142857Y-40928571D01*
X114190476Y-40833333D01*
X114285714Y-40785714D01*
X114428571Y-40785714D01*
X114523809Y-40833333D01*
X115000000Y-40785714D02*
X115000000Y-41785714D01*
X115000000Y-40833333D02*
X115095238Y-40785714D01*
X115285714Y-40785714D01*
X115380952Y-40833333D01*
X115428571Y-40880952D01*
X115476190Y-40976190D01*
X115476190Y-41261904D01*
X115428571Y-41357142D01*
X115380952Y-41404761D01*
X115285714Y-41452380D01*
X115095238Y-41452380D01*
X115000000Y-41404761D01*
X115666666Y-41547619D02*
X116428571Y-41547619D01*
X117095238Y-41404761D02*
X117000000Y-41452380D01*
X116809523Y-41452380D01*
X116714285Y-41404761D01*
X116666666Y-41357142D01*
X116619047Y-41261904D01*
X116619047Y-40976190D01*
X116666666Y-40880952D01*
X116714285Y-40833333D01*
X116809523Y-40785714D01*
X117000000Y-40785714D01*
X117095238Y-40833333D01*
X117666666Y-41452380D02*
X117571428Y-41404761D01*
X117523809Y-41357142D01*
X117476190Y-41261904D01*
X117476190Y-40976190D01*
X117523809Y-40880952D01*
X117571428Y-40833333D01*
X117666666Y-40785714D01*
X117809523Y-40785714D01*
X117904761Y-40833333D01*
X117952380Y-40880952D01*
X118000000Y-40976190D01*
X118000000Y-41261904D01*
X117952380Y-41357142D01*
X117904761Y-41404761D01*
X117809523Y-41452380D01*
X117666666Y-41452380D01*
X118428571Y-40785714D02*
X118428571Y-41452380D01*
X118428571Y-40880952D02*
X118476190Y-40833333D01*
X118571428Y-40785714D01*
X118714285Y-40785714D01*
X118809523Y-40833333D01*
X118857142Y-40928571D01*
X118857142Y-41452380D01*
X119333333Y-40785714D02*
X119333333Y-41452380D01*
X119333333Y-40880952D02*
X119380952Y-40833333D01*
X119476190Y-40785714D01*
X119619047Y-40785714D01*
X119714285Y-40833333D01*
X119761904Y-40928571D01*
X119761904Y-41452380D01*
X120761904Y-41452380D02*
X120190476Y-41452380D01*
X120476190Y-41452380D02*
X120476190Y-40452380D01*
X120380952Y-40595238D01*
X120285714Y-40690476D01*
X120190476Y-40738095D01*
%TO.C,C4*%
X160287142Y-52029166D02*
X160334761Y-52076785D01*
X160382380Y-52219642D01*
X160382380Y-52314880D01*
X160334761Y-52457738D01*
X160239523Y-52552976D01*
X160144285Y-52600595D01*
X159953809Y-52648214D01*
X159810952Y-52648214D01*
X159620476Y-52600595D01*
X159525238Y-52552976D01*
X159430000Y-52457738D01*
X159382380Y-52314880D01*
X159382380Y-52219642D01*
X159430000Y-52076785D01*
X159477619Y-52029166D01*
X159715714Y-51172023D02*
X160382380Y-51172023D01*
X159334761Y-51410119D02*
X160049047Y-51648214D01*
X160049047Y-51029166D01*
D12*
%TO.C,DriverMotor1*%
X117815238Y-107574523D02*
X117815238Y-106304523D01*
X118117619Y-106304523D01*
X118299047Y-106365000D01*
X118420000Y-106485952D01*
X118480476Y-106606904D01*
X118540952Y-106848809D01*
X118540952Y-107030238D01*
X118480476Y-107272142D01*
X118420000Y-107393095D01*
X118299047Y-107514047D01*
X118117619Y-107574523D01*
X117815238Y-107574523D01*
X119085238Y-107574523D02*
X119085238Y-106727857D01*
X119085238Y-106969761D02*
X119145714Y-106848809D01*
X119206190Y-106788333D01*
X119327142Y-106727857D01*
X119448095Y-106727857D01*
X119871428Y-107574523D02*
X119871428Y-106727857D01*
X119871428Y-106304523D02*
X119810952Y-106365000D01*
X119871428Y-106425476D01*
X119931904Y-106365000D01*
X119871428Y-106304523D01*
X119871428Y-106425476D01*
X120355238Y-106727857D02*
X120657619Y-107574523D01*
X120960000Y-106727857D01*
X121927619Y-107514047D02*
X121806666Y-107574523D01*
X121564761Y-107574523D01*
X121443809Y-107514047D01*
X121383333Y-107393095D01*
X121383333Y-106909285D01*
X121443809Y-106788333D01*
X121564761Y-106727857D01*
X121806666Y-106727857D01*
X121927619Y-106788333D01*
X121988095Y-106909285D01*
X121988095Y-107030238D01*
X121383333Y-107151190D01*
X122532380Y-107574523D02*
X122532380Y-106727857D01*
X122532380Y-106969761D02*
X122592857Y-106848809D01*
X122653333Y-106788333D01*
X122774285Y-106727857D01*
X122895238Y-106727857D01*
X123318571Y-107574523D02*
X123318571Y-106304523D01*
X123741904Y-107211666D01*
X124165238Y-106304523D01*
X124165238Y-107574523D01*
X124951428Y-107574523D02*
X124830476Y-107514047D01*
X124770000Y-107453571D01*
X124709523Y-107332619D01*
X124709523Y-106969761D01*
X124770000Y-106848809D01*
X124830476Y-106788333D01*
X124951428Y-106727857D01*
X125132857Y-106727857D01*
X125253809Y-106788333D01*
X125314285Y-106848809D01*
X125374761Y-106969761D01*
X125374761Y-107332619D01*
X125314285Y-107453571D01*
X125253809Y-107514047D01*
X125132857Y-107574523D01*
X124951428Y-107574523D01*
X125737619Y-106727857D02*
X126221428Y-106727857D01*
X125919047Y-106304523D02*
X125919047Y-107393095D01*
X125979523Y-107514047D01*
X126100476Y-107574523D01*
X126221428Y-107574523D01*
X126826190Y-107574523D02*
X126705238Y-107514047D01*
X126644761Y-107453571D01*
X126584285Y-107332619D01*
X126584285Y-106969761D01*
X126644761Y-106848809D01*
X126705238Y-106788333D01*
X126826190Y-106727857D01*
X127007619Y-106727857D01*
X127128571Y-106788333D01*
X127189047Y-106848809D01*
X127249523Y-106969761D01*
X127249523Y-107332619D01*
X127189047Y-107453571D01*
X127128571Y-107514047D01*
X127007619Y-107574523D01*
X126826190Y-107574523D01*
X127793809Y-107574523D02*
X127793809Y-106727857D01*
X127793809Y-106969761D02*
X127854285Y-106848809D01*
X127914761Y-106788333D01*
X128035714Y-106727857D01*
X128156666Y-106727857D01*
X129245238Y-107574523D02*
X128519523Y-107574523D01*
X128882380Y-107574523D02*
X128882380Y-106304523D01*
X128761428Y-106485952D01*
X128640476Y-106606904D01*
X128519523Y-106667380D01*
D10*
%TO.C,D8*%
X157761904Y-67589880D02*
X157761904Y-66589880D01*
X158000000Y-66589880D01*
X158142857Y-66637500D01*
X158238095Y-66732738D01*
X158285714Y-66827976D01*
X158333333Y-67018452D01*
X158333333Y-67161309D01*
X158285714Y-67351785D01*
X158238095Y-67447023D01*
X158142857Y-67542261D01*
X158000000Y-67589880D01*
X157761904Y-67589880D01*
X158904761Y-67018452D02*
X158809523Y-66970833D01*
X158761904Y-66923214D01*
X158714285Y-66827976D01*
X158714285Y-66780357D01*
X158761904Y-66685119D01*
X158809523Y-66637500D01*
X158904761Y-66589880D01*
X159095238Y-66589880D01*
X159190476Y-66637500D01*
X159238095Y-66685119D01*
X159285714Y-66780357D01*
X159285714Y-66827976D01*
X159238095Y-66923214D01*
X159190476Y-66970833D01*
X159095238Y-67018452D01*
X158904761Y-67018452D01*
X158809523Y-67066071D01*
X158761904Y-67113690D01*
X158714285Y-67208928D01*
X158714285Y-67399404D01*
X158761904Y-67494642D01*
X158809523Y-67542261D01*
X158904761Y-67589880D01*
X159095238Y-67589880D01*
X159190476Y-67542261D01*
X159238095Y-67494642D01*
X159285714Y-67399404D01*
X159285714Y-67208928D01*
X159238095Y-67113690D01*
X159190476Y-67066071D01*
X159095238Y-67018452D01*
X156523809Y-65589880D02*
X156523809Y-64589880D01*
X156761904Y-64589880D01*
X156904761Y-64637500D01*
X157000000Y-64732738D01*
X157047619Y-64827976D01*
X157095238Y-65018452D01*
X157095238Y-65161309D01*
X157047619Y-65351785D01*
X157000000Y-65447023D01*
X156904761Y-65542261D01*
X156761904Y-65589880D01*
X156523809Y-65589880D01*
X157523809Y-65589880D02*
X157523809Y-64589880D01*
X158190476Y-64589880D02*
X158380952Y-64589880D01*
X158476190Y-64637500D01*
X158571428Y-64732738D01*
X158619047Y-64923214D01*
X158619047Y-65256547D01*
X158571428Y-65447023D01*
X158476190Y-65542261D01*
X158380952Y-65589880D01*
X158190476Y-65589880D01*
X158095238Y-65542261D01*
X158000000Y-65447023D01*
X157952380Y-65256547D01*
X157952380Y-64923214D01*
X158000000Y-64732738D01*
X158095238Y-64637500D01*
X158190476Y-64589880D01*
X159047619Y-65589880D02*
X159047619Y-64589880D01*
X159285714Y-64589880D01*
X159428571Y-64637500D01*
X159523809Y-64732738D01*
X159571428Y-64827976D01*
X159619047Y-65018452D01*
X159619047Y-65161309D01*
X159571428Y-65351785D01*
X159523809Y-65447023D01*
X159428571Y-65542261D01*
X159285714Y-65589880D01*
X159047619Y-65589880D01*
X160047619Y-65066071D02*
X160380952Y-65066071D01*
X160523809Y-65589880D02*
X160047619Y-65589880D01*
X160047619Y-64589880D01*
X160523809Y-64589880D01*
X161212199Y-62589880D02*
X161212199Y-62827976D01*
X160974103Y-62732738D02*
X161212199Y-62827976D01*
X161450294Y-62732738D01*
X161069341Y-63018452D02*
X161212199Y-62827976D01*
X161355056Y-63018452D01*
X161212199Y-62589880D02*
X161212199Y-62827976D01*
X160974103Y-62732738D02*
X161212199Y-62827976D01*
X161450294Y-62732738D01*
X161069341Y-63018452D02*
X161212199Y-62827976D01*
X161355056Y-63018452D01*
%TO.C,Jumper5*%
X174582380Y-87297857D02*
X175296666Y-87297857D01*
X175439523Y-87345476D01*
X175534761Y-87440714D01*
X175582380Y-87583571D01*
X175582380Y-87678809D01*
X174915714Y-86393095D02*
X175582380Y-86393095D01*
X174915714Y-86821666D02*
X175439523Y-86821666D01*
X175534761Y-86774047D01*
X175582380Y-86678809D01*
X175582380Y-86535952D01*
X175534761Y-86440714D01*
X175487142Y-86393095D01*
X175582380Y-85916904D02*
X174915714Y-85916904D01*
X175010952Y-85916904D02*
X174963333Y-85869285D01*
X174915714Y-85774047D01*
X174915714Y-85631190D01*
X174963333Y-85535952D01*
X175058571Y-85488333D01*
X175582380Y-85488333D01*
X175058571Y-85488333D02*
X174963333Y-85440714D01*
X174915714Y-85345476D01*
X174915714Y-85202619D01*
X174963333Y-85107380D01*
X175058571Y-85059761D01*
X175582380Y-85059761D01*
X174915714Y-84583571D02*
X175915714Y-84583571D01*
X174963333Y-84583571D02*
X174915714Y-84488333D01*
X174915714Y-84297857D01*
X174963333Y-84202619D01*
X175010952Y-84155000D01*
X175106190Y-84107380D01*
X175391904Y-84107380D01*
X175487142Y-84155000D01*
X175534761Y-84202619D01*
X175582380Y-84297857D01*
X175582380Y-84488333D01*
X175534761Y-84583571D01*
X175534761Y-83297857D02*
X175582380Y-83393095D01*
X175582380Y-83583571D01*
X175534761Y-83678809D01*
X175439523Y-83726428D01*
X175058571Y-83726428D01*
X174963333Y-83678809D01*
X174915714Y-83583571D01*
X174915714Y-83393095D01*
X174963333Y-83297857D01*
X175058571Y-83250238D01*
X175153809Y-83250238D01*
X175249047Y-83726428D01*
X175582380Y-82821666D02*
X174915714Y-82821666D01*
X175106190Y-82821666D02*
X175010952Y-82774047D01*
X174963333Y-82726428D01*
X174915714Y-82631190D01*
X174915714Y-82535952D01*
X174582380Y-81726428D02*
X174582380Y-82202619D01*
X175058571Y-82250238D01*
X175010952Y-82202619D01*
X174963333Y-82107380D01*
X174963333Y-81869285D01*
X175010952Y-81774047D01*
X175058571Y-81726428D01*
X175153809Y-81678809D01*
X175391904Y-81678809D01*
X175487142Y-81726428D01*
X175534761Y-81774047D01*
X175582380Y-81869285D01*
X175582380Y-82107380D01*
X175534761Y-82202619D01*
X175487142Y-82250238D01*
%TO.C,Servomoteur1*%
X154031428Y-41904761D02*
X154174285Y-41952380D01*
X154412380Y-41952380D01*
X154507619Y-41904761D01*
X154555238Y-41857142D01*
X154602857Y-41761904D01*
X154602857Y-41666666D01*
X154555238Y-41571428D01*
X154507619Y-41523809D01*
X154412380Y-41476190D01*
X154221904Y-41428571D01*
X154126666Y-41380952D01*
X154079047Y-41333333D01*
X154031428Y-41238095D01*
X154031428Y-41142857D01*
X154079047Y-41047619D01*
X154126666Y-41000000D01*
X154221904Y-40952380D01*
X154460000Y-40952380D01*
X154602857Y-41000000D01*
X155412380Y-41904761D02*
X155317142Y-41952380D01*
X155126666Y-41952380D01*
X155031428Y-41904761D01*
X154983809Y-41809523D01*
X154983809Y-41428571D01*
X155031428Y-41333333D01*
X155126666Y-41285714D01*
X155317142Y-41285714D01*
X155412380Y-41333333D01*
X155460000Y-41428571D01*
X155460000Y-41523809D01*
X154983809Y-41619047D01*
X155888571Y-41952380D02*
X155888571Y-41285714D01*
X155888571Y-41476190D02*
X155936190Y-41380952D01*
X155983809Y-41333333D01*
X156079047Y-41285714D01*
X156174285Y-41285714D01*
X156412380Y-41285714D02*
X156650476Y-41952380D01*
X156888571Y-41285714D01*
X157412380Y-41952380D02*
X157317142Y-41904761D01*
X157269523Y-41857142D01*
X157221904Y-41761904D01*
X157221904Y-41476190D01*
X157269523Y-41380952D01*
X157317142Y-41333333D01*
X157412380Y-41285714D01*
X157555238Y-41285714D01*
X157650476Y-41333333D01*
X157698095Y-41380952D01*
X157745714Y-41476190D01*
X157745714Y-41761904D01*
X157698095Y-41857142D01*
X157650476Y-41904761D01*
X157555238Y-41952380D01*
X157412380Y-41952380D01*
X158174285Y-41952380D02*
X158174285Y-41285714D01*
X158174285Y-41380952D02*
X158221904Y-41333333D01*
X158317142Y-41285714D01*
X158460000Y-41285714D01*
X158555238Y-41333333D01*
X158602857Y-41428571D01*
X158602857Y-41952380D01*
X158602857Y-41428571D02*
X158650476Y-41333333D01*
X158745714Y-41285714D01*
X158888571Y-41285714D01*
X158983809Y-41333333D01*
X159031428Y-41428571D01*
X159031428Y-41952380D01*
X159650476Y-41952380D02*
X159555238Y-41904761D01*
X159507619Y-41857142D01*
X159460000Y-41761904D01*
X159460000Y-41476190D01*
X159507619Y-41380952D01*
X159555238Y-41333333D01*
X159650476Y-41285714D01*
X159793333Y-41285714D01*
X159888571Y-41333333D01*
X159936190Y-41380952D01*
X159983809Y-41476190D01*
X159983809Y-41761904D01*
X159936190Y-41857142D01*
X159888571Y-41904761D01*
X159793333Y-41952380D01*
X159650476Y-41952380D01*
X160269523Y-41285714D02*
X160650476Y-41285714D01*
X160412380Y-40952380D02*
X160412380Y-41809523D01*
X160460000Y-41904761D01*
X160555238Y-41952380D01*
X160650476Y-41952380D01*
X161364761Y-41904761D02*
X161269523Y-41952380D01*
X161079047Y-41952380D01*
X160983809Y-41904761D01*
X160936190Y-41809523D01*
X160936190Y-41428571D01*
X160983809Y-41333333D01*
X161079047Y-41285714D01*
X161269523Y-41285714D01*
X161364761Y-41333333D01*
X161412380Y-41428571D01*
X161412380Y-41523809D01*
X160936190Y-41619047D01*
X162269523Y-41285714D02*
X162269523Y-41952380D01*
X161840952Y-41285714D02*
X161840952Y-41809523D01*
X161888571Y-41904761D01*
X161983809Y-41952380D01*
X162126666Y-41952380D01*
X162221904Y-41904761D01*
X162269523Y-41857142D01*
X162745714Y-41952380D02*
X162745714Y-41285714D01*
X162745714Y-41476190D02*
X162793333Y-41380952D01*
X162840952Y-41333333D01*
X162936190Y-41285714D01*
X163031428Y-41285714D01*
X163888571Y-41952380D02*
X163317142Y-41952380D01*
X163602857Y-41952380D02*
X163602857Y-40952380D01*
X163507619Y-41095238D01*
X163412380Y-41190476D01*
X163317142Y-41238095D01*
%TO.C,J2*%
X111666666Y-80122380D02*
X111666666Y-80836666D01*
X111619047Y-80979523D01*
X111523809Y-81074761D01*
X111380952Y-81122380D01*
X111285714Y-81122380D01*
X112095238Y-80217619D02*
X112142857Y-80170000D01*
X112238095Y-80122380D01*
X112476190Y-80122380D01*
X112571428Y-80170000D01*
X112619047Y-80217619D01*
X112666666Y-80312857D01*
X112666666Y-80408095D01*
X112619047Y-80550952D01*
X112047619Y-81122380D01*
X112666666Y-81122380D01*
%TO.C,J3*%
X177166666Y-75777380D02*
X177166666Y-76491666D01*
X177119047Y-76634523D01*
X177023809Y-76729761D01*
X176880952Y-76777380D01*
X176785714Y-76777380D01*
X177547619Y-75777380D02*
X178166666Y-75777380D01*
X177833333Y-76158333D01*
X177976190Y-76158333D01*
X178071428Y-76205952D01*
X178119047Y-76253571D01*
X178166666Y-76348809D01*
X178166666Y-76586904D01*
X178119047Y-76682142D01*
X178071428Y-76729761D01*
X177976190Y-76777380D01*
X177690476Y-76777380D01*
X177595238Y-76729761D01*
X177547619Y-76682142D01*
%TO.C,CO2*%
X161557142Y-60690476D02*
X161604761Y-60738095D01*
X161652380Y-60880952D01*
X161652380Y-60976190D01*
X161604761Y-61119047D01*
X161509523Y-61214285D01*
X161414285Y-61261904D01*
X161223809Y-61309523D01*
X161080952Y-61309523D01*
X160890476Y-61261904D01*
X160795238Y-61214285D01*
X160700000Y-61119047D01*
X160652380Y-60976190D01*
X160652380Y-60880952D01*
X160700000Y-60738095D01*
X160747619Y-60690476D01*
X160652380Y-60071428D02*
X160652380Y-59880952D01*
X160700000Y-59785714D01*
X160795238Y-59690476D01*
X160985714Y-59642857D01*
X161319047Y-59642857D01*
X161509523Y-59690476D01*
X161604761Y-59785714D01*
X161652380Y-59880952D01*
X161652380Y-60071428D01*
X161604761Y-60166666D01*
X161509523Y-60261904D01*
X161319047Y-60309523D01*
X160985714Y-60309523D01*
X160795238Y-60261904D01*
X160700000Y-60166666D01*
X160652380Y-60071428D01*
X160747619Y-59261904D02*
X160700000Y-59214285D01*
X160652380Y-59119047D01*
X160652380Y-58880952D01*
X160700000Y-58785714D01*
X160747619Y-58738095D01*
X160842857Y-58690476D01*
X160938095Y-58690476D01*
X161080952Y-58738095D01*
X161652380Y-59309523D01*
X161652380Y-58690476D01*
%TO.C,MOTOR_1*%
X95452380Y-106119047D02*
X94452380Y-106119047D01*
X95166666Y-105785714D01*
X94452380Y-105452380D01*
X95452380Y-105452380D01*
X94452380Y-104785714D02*
X94452380Y-104595238D01*
X94500000Y-104500000D01*
X94595238Y-104404761D01*
X94785714Y-104357142D01*
X95119047Y-104357142D01*
X95309523Y-104404761D01*
X95404761Y-104500000D01*
X95452380Y-104595238D01*
X95452380Y-104785714D01*
X95404761Y-104880952D01*
X95309523Y-104976190D01*
X95119047Y-105023809D01*
X94785714Y-105023809D01*
X94595238Y-104976190D01*
X94500000Y-104880952D01*
X94452380Y-104785714D01*
X94452380Y-104071428D02*
X94452380Y-103500000D01*
X95452380Y-103785714D02*
X94452380Y-103785714D01*
X94452380Y-102976190D02*
X94452380Y-102785714D01*
X94500000Y-102690476D01*
X94595238Y-102595238D01*
X94785714Y-102547619D01*
X95119047Y-102547619D01*
X95309523Y-102595238D01*
X95404761Y-102690476D01*
X95452380Y-102785714D01*
X95452380Y-102976190D01*
X95404761Y-103071428D01*
X95309523Y-103166666D01*
X95119047Y-103214285D01*
X94785714Y-103214285D01*
X94595238Y-103166666D01*
X94500000Y-103071428D01*
X94452380Y-102976190D01*
X95452380Y-101547619D02*
X94976190Y-101880952D01*
X95452380Y-102119047D02*
X94452380Y-102119047D01*
X94452380Y-101738095D01*
X94500000Y-101642857D01*
X94547619Y-101595238D01*
X94642857Y-101547619D01*
X94785714Y-101547619D01*
X94880952Y-101595238D01*
X94928571Y-101642857D01*
X94976190Y-101738095D01*
X94976190Y-102119047D01*
X95547619Y-101357142D02*
X95547619Y-100595238D01*
X95452380Y-99833333D02*
X95452380Y-100404761D01*
X95452380Y-100119047D02*
X94452380Y-100119047D01*
X94595238Y-100214285D01*
X94690476Y-100309523D01*
X94738095Y-100404761D01*
%TO.C,Jumper1*%
X108857142Y-103322380D02*
X108857142Y-104036666D01*
X108809523Y-104179523D01*
X108714285Y-104274761D01*
X108571428Y-104322380D01*
X108476190Y-104322380D01*
X109761904Y-103655714D02*
X109761904Y-104322380D01*
X109333333Y-103655714D02*
X109333333Y-104179523D01*
X109380952Y-104274761D01*
X109476190Y-104322380D01*
X109619047Y-104322380D01*
X109714285Y-104274761D01*
X109761904Y-104227142D01*
X110238095Y-104322380D02*
X110238095Y-103655714D01*
X110238095Y-103750952D02*
X110285714Y-103703333D01*
X110380952Y-103655714D01*
X110523809Y-103655714D01*
X110619047Y-103703333D01*
X110666666Y-103798571D01*
X110666666Y-104322380D01*
X110666666Y-103798571D02*
X110714285Y-103703333D01*
X110809523Y-103655714D01*
X110952380Y-103655714D01*
X111047619Y-103703333D01*
X111095238Y-103798571D01*
X111095238Y-104322380D01*
X111571428Y-103655714D02*
X111571428Y-104655714D01*
X111571428Y-103703333D02*
X111666666Y-103655714D01*
X111857142Y-103655714D01*
X111952380Y-103703333D01*
X112000000Y-103750952D01*
X112047619Y-103846190D01*
X112047619Y-104131904D01*
X112000000Y-104227142D01*
X111952380Y-104274761D01*
X111857142Y-104322380D01*
X111666666Y-104322380D01*
X111571428Y-104274761D01*
X112857142Y-104274761D02*
X112761904Y-104322380D01*
X112571428Y-104322380D01*
X112476190Y-104274761D01*
X112428571Y-104179523D01*
X112428571Y-103798571D01*
X112476190Y-103703333D01*
X112571428Y-103655714D01*
X112761904Y-103655714D01*
X112857142Y-103703333D01*
X112904761Y-103798571D01*
X112904761Y-103893809D01*
X112428571Y-103989047D01*
X113333333Y-104322380D02*
X113333333Y-103655714D01*
X113333333Y-103846190D02*
X113380952Y-103750952D01*
X113428571Y-103703333D01*
X113523809Y-103655714D01*
X113619047Y-103655714D01*
X114476190Y-104322380D02*
X113904761Y-104322380D01*
X114190476Y-104322380D02*
X114190476Y-103322380D01*
X114095238Y-103465238D01*
X114000000Y-103560476D01*
X113904761Y-103608095D01*
D11*
%TO.C,D2*%
X157597961Y-112882190D02*
X157277961Y-112882190D01*
X157277961Y-112806000D01*
X157293200Y-112760285D01*
X157323676Y-112729809D01*
X157354152Y-112714571D01*
X157415104Y-112699333D01*
X157460819Y-112699333D01*
X157521771Y-112714571D01*
X157552247Y-112729809D01*
X157582723Y-112760285D01*
X157597961Y-112806000D01*
X157597961Y-112882190D01*
X157308438Y-112577428D02*
X157293200Y-112562190D01*
X157277961Y-112531714D01*
X157277961Y-112455523D01*
X157293200Y-112425047D01*
X157308438Y-112409809D01*
X157338914Y-112394571D01*
X157369390Y-112394571D01*
X157415104Y-112409809D01*
X157597961Y-112592666D01*
X157597961Y-112394571D01*
D10*
%TO.C,R19*%
X101857142Y-78022380D02*
X101523809Y-77546190D01*
X101285714Y-78022380D02*
X101285714Y-77022380D01*
X101666666Y-77022380D01*
X101761904Y-77070000D01*
X101809523Y-77117619D01*
X101857142Y-77212857D01*
X101857142Y-77355714D01*
X101809523Y-77450952D01*
X101761904Y-77498571D01*
X101666666Y-77546190D01*
X101285714Y-77546190D01*
X102809523Y-78022380D02*
X102238095Y-78022380D01*
X102523809Y-78022380D02*
X102523809Y-77022380D01*
X102428571Y-77165238D01*
X102333333Y-77260476D01*
X102238095Y-77308095D01*
X103285714Y-78022380D02*
X103476190Y-78022380D01*
X103571428Y-77974761D01*
X103619047Y-77927142D01*
X103714285Y-77784285D01*
X103761904Y-77593809D01*
X103761904Y-77212857D01*
X103714285Y-77117619D01*
X103666666Y-77070000D01*
X103571428Y-77022380D01*
X103380952Y-77022380D01*
X103285714Y-77070000D01*
X103238095Y-77117619D01*
X103190476Y-77212857D01*
X103190476Y-77450952D01*
X103238095Y-77546190D01*
X103285714Y-77593809D01*
X103380952Y-77641428D01*
X103571428Y-77641428D01*
X103666666Y-77593809D01*
X103714285Y-77546190D01*
X103761904Y-77450952D01*
%TO.C,R1*%
X130833333Y-61884880D02*
X130500000Y-61408690D01*
X130261904Y-61884880D02*
X130261904Y-60884880D01*
X130642857Y-60884880D01*
X130738095Y-60932500D01*
X130785714Y-60980119D01*
X130833333Y-61075357D01*
X130833333Y-61218214D01*
X130785714Y-61313452D01*
X130738095Y-61361071D01*
X130642857Y-61408690D01*
X130261904Y-61408690D01*
X131785714Y-61884880D02*
X131214285Y-61884880D01*
X131500000Y-61884880D02*
X131500000Y-60884880D01*
X131404761Y-61027738D01*
X131309523Y-61122976D01*
X131214285Y-61170595D01*
%TO.C,L2*%
X148333333Y-64989880D02*
X147857142Y-64989880D01*
X147857142Y-63989880D01*
X148619047Y-64085119D02*
X148666666Y-64037500D01*
X148761904Y-63989880D01*
X149000000Y-63989880D01*
X149095238Y-64037500D01*
X149142857Y-64085119D01*
X149190476Y-64180357D01*
X149190476Y-64275595D01*
X149142857Y-64418452D01*
X148571428Y-64989880D01*
X149190476Y-64989880D01*
D11*
%TO.C,D6*%
X105617809Y-49960461D02*
X105617809Y-49640461D01*
X105694000Y-49640461D01*
X105739714Y-49655700D01*
X105770190Y-49686176D01*
X105785428Y-49716652D01*
X105800666Y-49777604D01*
X105800666Y-49823319D01*
X105785428Y-49884271D01*
X105770190Y-49914747D01*
X105739714Y-49945223D01*
X105694000Y-49960461D01*
X105617809Y-49960461D01*
X106074952Y-49640461D02*
X106014000Y-49640461D01*
X105983523Y-49655700D01*
X105968285Y-49670938D01*
X105937809Y-49716652D01*
X105922571Y-49777604D01*
X105922571Y-49899509D01*
X105937809Y-49929985D01*
X105953047Y-49945223D01*
X105983523Y-49960461D01*
X106044476Y-49960461D01*
X106074952Y-49945223D01*
X106090190Y-49929985D01*
X106105428Y-49899509D01*
X106105428Y-49823319D01*
X106090190Y-49792842D01*
X106074952Y-49777604D01*
X106044476Y-49762366D01*
X105983523Y-49762366D01*
X105953047Y-49777604D01*
X105937809Y-49792842D01*
X105922571Y-49823319D01*
D10*
%TO.C,J1*%
X107126666Y-80277380D02*
X107126666Y-80991666D01*
X107079047Y-81134523D01*
X106983809Y-81229761D01*
X106840952Y-81277380D01*
X106745714Y-81277380D01*
X108126666Y-81277380D02*
X107555238Y-81277380D01*
X107840952Y-81277380D02*
X107840952Y-80277380D01*
X107745714Y-80420238D01*
X107650476Y-80515476D01*
X107555238Y-80563095D01*
%TO.C,BDT4*%
X192428571Y-85425714D02*
X192476190Y-85282857D01*
X192523809Y-85235238D01*
X192619047Y-85187619D01*
X192761904Y-85187619D01*
X192857142Y-85235238D01*
X192904761Y-85282857D01*
X192952380Y-85378095D01*
X192952380Y-85759047D01*
X191952380Y-85759047D01*
X191952380Y-85425714D01*
X192000000Y-85330476D01*
X192047619Y-85282857D01*
X192142857Y-85235238D01*
X192238095Y-85235238D01*
X192333333Y-85282857D01*
X192380952Y-85330476D01*
X192428571Y-85425714D01*
X192428571Y-85759047D01*
X192952380Y-84759047D02*
X191952380Y-84759047D01*
X191952380Y-84520952D01*
X192000000Y-84378095D01*
X192095238Y-84282857D01*
X192190476Y-84235238D01*
X192380952Y-84187619D01*
X192523809Y-84187619D01*
X192714285Y-84235238D01*
X192809523Y-84282857D01*
X192904761Y-84378095D01*
X192952380Y-84520952D01*
X192952380Y-84759047D01*
X191952380Y-83901904D02*
X191952380Y-83330476D01*
X192952380Y-83616190D02*
X191952380Y-83616190D01*
X192285714Y-82568571D02*
X192952380Y-82568571D01*
X191904761Y-82806666D02*
X192619047Y-83044761D01*
X192619047Y-82425714D01*
%TO.C,MOTOR_2*%
X108110952Y-122952380D02*
X108110952Y-121952380D01*
X108444285Y-122666666D01*
X108777619Y-121952380D01*
X108777619Y-122952380D01*
X109444285Y-121952380D02*
X109634761Y-121952380D01*
X109730000Y-122000000D01*
X109825238Y-122095238D01*
X109872857Y-122285714D01*
X109872857Y-122619047D01*
X109825238Y-122809523D01*
X109730000Y-122904761D01*
X109634761Y-122952380D01*
X109444285Y-122952380D01*
X109349047Y-122904761D01*
X109253809Y-122809523D01*
X109206190Y-122619047D01*
X109206190Y-122285714D01*
X109253809Y-122095238D01*
X109349047Y-122000000D01*
X109444285Y-121952380D01*
X110158571Y-121952380D02*
X110730000Y-121952380D01*
X110444285Y-122952380D02*
X110444285Y-121952380D01*
X111253809Y-121952380D02*
X111444285Y-121952380D01*
X111539523Y-122000000D01*
X111634761Y-122095238D01*
X111682380Y-122285714D01*
X111682380Y-122619047D01*
X111634761Y-122809523D01*
X111539523Y-122904761D01*
X111444285Y-122952380D01*
X111253809Y-122952380D01*
X111158571Y-122904761D01*
X111063333Y-122809523D01*
X111015714Y-122619047D01*
X111015714Y-122285714D01*
X111063333Y-122095238D01*
X111158571Y-122000000D01*
X111253809Y-121952380D01*
X112682380Y-122952380D02*
X112349047Y-122476190D01*
X112110952Y-122952380D02*
X112110952Y-121952380D01*
X112491904Y-121952380D01*
X112587142Y-122000000D01*
X112634761Y-122047619D01*
X112682380Y-122142857D01*
X112682380Y-122285714D01*
X112634761Y-122380952D01*
X112587142Y-122428571D01*
X112491904Y-122476190D01*
X112110952Y-122476190D01*
X112872857Y-123047619D02*
X113634761Y-123047619D01*
X113825238Y-122047619D02*
X113872857Y-122000000D01*
X113968095Y-121952380D01*
X114206190Y-121952380D01*
X114301428Y-122000000D01*
X114349047Y-122047619D01*
X114396666Y-122142857D01*
X114396666Y-122238095D01*
X114349047Y-122380952D01*
X113777619Y-122952380D01*
X114396666Y-122952380D01*
%TO.C,5V1*%
X134833333Y-105097380D02*
X134357142Y-105097380D01*
X134309523Y-105573571D01*
X134357142Y-105525952D01*
X134452380Y-105478333D01*
X134690476Y-105478333D01*
X134785714Y-105525952D01*
X134833333Y-105573571D01*
X134880952Y-105668809D01*
X134880952Y-105906904D01*
X134833333Y-106002142D01*
X134785714Y-106049761D01*
X134690476Y-106097380D01*
X134452380Y-106097380D01*
X134357142Y-106049761D01*
X134309523Y-106002142D01*
X135166666Y-105097380D02*
X135500000Y-106097380D01*
X135833333Y-105097380D01*
X136690476Y-106097380D02*
X136119047Y-106097380D01*
X136404761Y-106097380D02*
X136404761Y-105097380D01*
X136309523Y-105240238D01*
X136214285Y-105335476D01*
X136119047Y-105383095D01*
%TO.C,H3*%
X89238095Y-34952380D02*
X89238095Y-33952380D01*
X89238095Y-34428571D02*
X89809523Y-34428571D01*
X89809523Y-34952380D02*
X89809523Y-33952380D01*
X90190476Y-33952380D02*
X90809523Y-33952380D01*
X90476190Y-34333333D01*
X90619047Y-34333333D01*
X90714285Y-34380952D01*
X90761904Y-34428571D01*
X90809523Y-34523809D01*
X90809523Y-34761904D01*
X90761904Y-34857142D01*
X90714285Y-34904761D01*
X90619047Y-34952380D01*
X90333333Y-34952380D01*
X90238095Y-34904761D01*
X90190476Y-34857142D01*
%TO.C,reset1*%
X183077219Y-99812509D02*
X183077219Y-99144960D01*
X183077219Y-99335688D02*
X183124901Y-99240324D01*
X183172584Y-99192642D01*
X183267948Y-99144960D01*
X183363312Y-99144960D01*
X184078542Y-99764827D02*
X183983178Y-99812509D01*
X183792450Y-99812509D01*
X183697086Y-99764827D01*
X183649404Y-99669463D01*
X183649404Y-99288006D01*
X183697086Y-99192642D01*
X183792450Y-99144960D01*
X183983178Y-99144960D01*
X184078542Y-99192642D01*
X184126224Y-99288006D01*
X184126224Y-99383371D01*
X183649404Y-99478735D01*
X184507681Y-99764827D02*
X184603045Y-99812509D01*
X184793773Y-99812509D01*
X184889137Y-99764827D01*
X184936819Y-99669463D01*
X184936819Y-99621781D01*
X184889137Y-99526417D01*
X184793773Y-99478735D01*
X184650727Y-99478735D01*
X184555363Y-99431053D01*
X184507681Y-99335688D01*
X184507681Y-99288006D01*
X184555363Y-99192642D01*
X184650727Y-99144960D01*
X184793773Y-99144960D01*
X184889137Y-99192642D01*
X185747414Y-99764827D02*
X185652050Y-99812509D01*
X185461322Y-99812509D01*
X185365958Y-99764827D01*
X185318276Y-99669463D01*
X185318276Y-99288006D01*
X185365958Y-99192642D01*
X185461322Y-99144960D01*
X185652050Y-99144960D01*
X185747414Y-99192642D01*
X185795096Y-99288006D01*
X185795096Y-99383371D01*
X185318276Y-99478735D01*
X186081188Y-99144960D02*
X186462645Y-99144960D01*
X186224235Y-98811186D02*
X186224235Y-99669463D01*
X186271917Y-99764827D01*
X186367281Y-99812509D01*
X186462645Y-99812509D01*
X187320922Y-99812509D02*
X186748737Y-99812509D01*
X187034829Y-99812509D02*
X187034829Y-98811186D01*
X186939465Y-98954232D01*
X186844101Y-99049596D01*
X186748737Y-99097278D01*
%TO.C,C5*%
X176333333Y-51007142D02*
X176285714Y-51054761D01*
X176142857Y-51102380D01*
X176047619Y-51102380D01*
X175904761Y-51054761D01*
X175809523Y-50959523D01*
X175761904Y-50864285D01*
X175714285Y-50673809D01*
X175714285Y-50530952D01*
X175761904Y-50340476D01*
X175809523Y-50245238D01*
X175904761Y-50150000D01*
X176047619Y-50102380D01*
X176142857Y-50102380D01*
X176285714Y-50150000D01*
X176333333Y-50197619D01*
X177238095Y-50102380D02*
X176761904Y-50102380D01*
X176714285Y-50578571D01*
X176761904Y-50530952D01*
X176857142Y-50483333D01*
X177095238Y-50483333D01*
X177190476Y-50530952D01*
X177238095Y-50578571D01*
X177285714Y-50673809D01*
X177285714Y-50911904D01*
X177238095Y-51007142D01*
X177190476Y-51054761D01*
X177095238Y-51102380D01*
X176857142Y-51102380D01*
X176761904Y-51054761D01*
X176714285Y-51007142D01*
%TO.C,U2*%
X120353095Y-49277880D02*
X120353095Y-50087404D01*
X120400714Y-50182642D01*
X120448333Y-50230261D01*
X120543571Y-50277880D01*
X120734047Y-50277880D01*
X120829285Y-50230261D01*
X120876904Y-50182642D01*
X120924523Y-50087404D01*
X120924523Y-49277880D01*
X121353095Y-49373119D02*
X121400714Y-49325500D01*
X121495952Y-49277880D01*
X121734047Y-49277880D01*
X121829285Y-49325500D01*
X121876904Y-49373119D01*
X121924523Y-49468357D01*
X121924523Y-49563595D01*
X121876904Y-49706452D01*
X121305476Y-50277880D01*
X121924523Y-50277880D01*
%TO.C,R10*%
X98952380Y-111642857D02*
X98476190Y-111976190D01*
X98952380Y-112214285D02*
X97952380Y-112214285D01*
X97952380Y-111833333D01*
X98000000Y-111738095D01*
X98047619Y-111690476D01*
X98142857Y-111642857D01*
X98285714Y-111642857D01*
X98380952Y-111690476D01*
X98428571Y-111738095D01*
X98476190Y-111833333D01*
X98476190Y-112214285D01*
X98952380Y-110690476D02*
X98952380Y-111261904D01*
X98952380Y-110976190D02*
X97952380Y-110976190D01*
X98095238Y-111071428D01*
X98190476Y-111166666D01*
X98238095Y-111261904D01*
X97952380Y-110071428D02*
X97952380Y-109976190D01*
X98000000Y-109880952D01*
X98047619Y-109833333D01*
X98142857Y-109785714D01*
X98333333Y-109738095D01*
X98571428Y-109738095D01*
X98761904Y-109785714D01*
X98857142Y-109833333D01*
X98904761Y-109880952D01*
X98952380Y-109976190D01*
X98952380Y-110071428D01*
X98904761Y-110166666D01*
X98857142Y-110214285D01*
X98761904Y-110261904D01*
X98571428Y-110309523D01*
X98333333Y-110309523D01*
X98142857Y-110261904D01*
X98047619Y-110214285D01*
X98000000Y-110166666D01*
X97952380Y-110071428D01*
%TO.C,3.3V1*%
X141547619Y-105097380D02*
X142166666Y-105097380D01*
X141833333Y-105478333D01*
X141976190Y-105478333D01*
X142071428Y-105525952D01*
X142119047Y-105573571D01*
X142166666Y-105668809D01*
X142166666Y-105906904D01*
X142119047Y-106002142D01*
X142071428Y-106049761D01*
X141976190Y-106097380D01*
X141690476Y-106097380D01*
X141595238Y-106049761D01*
X141547619Y-106002142D01*
X142595238Y-106002142D02*
X142642857Y-106049761D01*
X142595238Y-106097380D01*
X142547619Y-106049761D01*
X142595238Y-106002142D01*
X142595238Y-106097380D01*
X142976190Y-105097380D02*
X143595238Y-105097380D01*
X143261904Y-105478333D01*
X143404761Y-105478333D01*
X143500000Y-105525952D01*
X143547619Y-105573571D01*
X143595238Y-105668809D01*
X143595238Y-105906904D01*
X143547619Y-106002142D01*
X143500000Y-106049761D01*
X143404761Y-106097380D01*
X143119047Y-106097380D01*
X143023809Y-106049761D01*
X142976190Y-106002142D01*
X143880952Y-105097380D02*
X144214285Y-106097380D01*
X144547619Y-105097380D01*
X145404761Y-106097380D02*
X144833333Y-106097380D01*
X145119047Y-106097380D02*
X145119047Y-105097380D01*
X145023809Y-105240238D01*
X144928571Y-105335476D01*
X144833333Y-105383095D01*
%TO.C,BDT3*%
X191928571Y-72940714D02*
X191976190Y-72797857D01*
X192023809Y-72750238D01*
X192119047Y-72702619D01*
X192261904Y-72702619D01*
X192357142Y-72750238D01*
X192404761Y-72797857D01*
X192452380Y-72893095D01*
X192452380Y-73274047D01*
X191452380Y-73274047D01*
X191452380Y-72940714D01*
X191500000Y-72845476D01*
X191547619Y-72797857D01*
X191642857Y-72750238D01*
X191738095Y-72750238D01*
X191833333Y-72797857D01*
X191880952Y-72845476D01*
X191928571Y-72940714D01*
X191928571Y-73274047D01*
X192452380Y-72274047D02*
X191452380Y-72274047D01*
X191452380Y-72035952D01*
X191500000Y-71893095D01*
X191595238Y-71797857D01*
X191690476Y-71750238D01*
X191880952Y-71702619D01*
X192023809Y-71702619D01*
X192214285Y-71750238D01*
X192309523Y-71797857D01*
X192404761Y-71893095D01*
X192452380Y-72035952D01*
X192452380Y-72274047D01*
X191452380Y-71416904D02*
X191452380Y-70845476D01*
X192452380Y-71131190D02*
X191452380Y-71131190D01*
X191452380Y-70607380D02*
X191452380Y-69988333D01*
X191833333Y-70321666D01*
X191833333Y-70178809D01*
X191880952Y-70083571D01*
X191928571Y-70035952D01*
X192023809Y-69988333D01*
X192261904Y-69988333D01*
X192357142Y-70035952D01*
X192404761Y-70083571D01*
X192452380Y-70178809D01*
X192452380Y-70464523D01*
X192404761Y-70559761D01*
X192357142Y-70607380D01*
%TO.C,H2*%
X194238095Y-36752380D02*
X194238095Y-35752380D01*
X194238095Y-36228571D02*
X194809523Y-36228571D01*
X194809523Y-36752380D02*
X194809523Y-35752380D01*
X195238095Y-35847619D02*
X195285714Y-35800000D01*
X195380952Y-35752380D01*
X195619047Y-35752380D01*
X195714285Y-35800000D01*
X195761904Y-35847619D01*
X195809523Y-35942857D01*
X195809523Y-36038095D01*
X195761904Y-36180952D01*
X195190476Y-36752380D01*
X195809523Y-36752380D01*
%TO.C,R25*%
X186357142Y-86677380D02*
X186023809Y-86201190D01*
X185785714Y-86677380D02*
X185785714Y-85677380D01*
X186166666Y-85677380D01*
X186261904Y-85725000D01*
X186309523Y-85772619D01*
X186357142Y-85867857D01*
X186357142Y-86010714D01*
X186309523Y-86105952D01*
X186261904Y-86153571D01*
X186166666Y-86201190D01*
X185785714Y-86201190D01*
X186738095Y-85772619D02*
X186785714Y-85725000D01*
X186880952Y-85677380D01*
X187119047Y-85677380D01*
X187214285Y-85725000D01*
X187261904Y-85772619D01*
X187309523Y-85867857D01*
X187309523Y-85963095D01*
X187261904Y-86105952D01*
X186690476Y-86677380D01*
X187309523Y-86677380D01*
X188214285Y-85677380D02*
X187738095Y-85677380D01*
X187690476Y-86153571D01*
X187738095Y-86105952D01*
X187833333Y-86058333D01*
X188071428Y-86058333D01*
X188166666Y-86105952D01*
X188214285Y-86153571D01*
X188261904Y-86248809D01*
X188261904Y-86486904D01*
X188214285Y-86582142D01*
X188166666Y-86629761D01*
X188071428Y-86677380D01*
X187833333Y-86677380D01*
X187738095Y-86629761D01*
X187690476Y-86582142D01*
%TO.C,Jumper3*%
X113822380Y-91797857D02*
X114536666Y-91797857D01*
X114679523Y-91845476D01*
X114774761Y-91940714D01*
X114822380Y-92083571D01*
X114822380Y-92178809D01*
X114155714Y-90893095D02*
X114822380Y-90893095D01*
X114155714Y-91321666D02*
X114679523Y-91321666D01*
X114774761Y-91274047D01*
X114822380Y-91178809D01*
X114822380Y-91035952D01*
X114774761Y-90940714D01*
X114727142Y-90893095D01*
X114822380Y-90416904D02*
X114155714Y-90416904D01*
X114250952Y-90416904D02*
X114203333Y-90369285D01*
X114155714Y-90274047D01*
X114155714Y-90131190D01*
X114203333Y-90035952D01*
X114298571Y-89988333D01*
X114822380Y-89988333D01*
X114298571Y-89988333D02*
X114203333Y-89940714D01*
X114155714Y-89845476D01*
X114155714Y-89702619D01*
X114203333Y-89607380D01*
X114298571Y-89559761D01*
X114822380Y-89559761D01*
X114155714Y-89083571D02*
X115155714Y-89083571D01*
X114203333Y-89083571D02*
X114155714Y-88988333D01*
X114155714Y-88797857D01*
X114203333Y-88702619D01*
X114250952Y-88655000D01*
X114346190Y-88607380D01*
X114631904Y-88607380D01*
X114727142Y-88655000D01*
X114774761Y-88702619D01*
X114822380Y-88797857D01*
X114822380Y-88988333D01*
X114774761Y-89083571D01*
X114774761Y-87797857D02*
X114822380Y-87893095D01*
X114822380Y-88083571D01*
X114774761Y-88178809D01*
X114679523Y-88226428D01*
X114298571Y-88226428D01*
X114203333Y-88178809D01*
X114155714Y-88083571D01*
X114155714Y-87893095D01*
X114203333Y-87797857D01*
X114298571Y-87750238D01*
X114393809Y-87750238D01*
X114489047Y-88226428D01*
X114822380Y-87321666D02*
X114155714Y-87321666D01*
X114346190Y-87321666D02*
X114250952Y-87274047D01*
X114203333Y-87226428D01*
X114155714Y-87131190D01*
X114155714Y-87035952D01*
X113822380Y-86797857D02*
X113822380Y-86178809D01*
X114203333Y-86512142D01*
X114203333Y-86369285D01*
X114250952Y-86274047D01*
X114298571Y-86226428D01*
X114393809Y-86178809D01*
X114631904Y-86178809D01*
X114727142Y-86226428D01*
X114774761Y-86274047D01*
X114822380Y-86369285D01*
X114822380Y-86655000D01*
X114774761Y-86750238D01*
X114727142Y-86797857D01*
%TO.C,R20*%
X101944642Y-90382380D02*
X101611309Y-89906190D01*
X101373214Y-90382380D02*
X101373214Y-89382380D01*
X101754166Y-89382380D01*
X101849404Y-89430000D01*
X101897023Y-89477619D01*
X101944642Y-89572857D01*
X101944642Y-89715714D01*
X101897023Y-89810952D01*
X101849404Y-89858571D01*
X101754166Y-89906190D01*
X101373214Y-89906190D01*
X102325595Y-89477619D02*
X102373214Y-89430000D01*
X102468452Y-89382380D01*
X102706547Y-89382380D01*
X102801785Y-89430000D01*
X102849404Y-89477619D01*
X102897023Y-89572857D01*
X102897023Y-89668095D01*
X102849404Y-89810952D01*
X102277976Y-90382380D01*
X102897023Y-90382380D01*
X103516071Y-89382380D02*
X103611309Y-89382380D01*
X103706547Y-89430000D01*
X103754166Y-89477619D01*
X103801785Y-89572857D01*
X103849404Y-89763333D01*
X103849404Y-90001428D01*
X103801785Y-90191904D01*
X103754166Y-90287142D01*
X103706547Y-90334761D01*
X103611309Y-90382380D01*
X103516071Y-90382380D01*
X103420833Y-90334761D01*
X103373214Y-90287142D01*
X103325595Y-90191904D01*
X103277976Y-90001428D01*
X103277976Y-89763333D01*
X103325595Y-89572857D01*
X103373214Y-89477619D01*
X103420833Y-89430000D01*
X103516071Y-89382380D01*
%TO.C,H4*%
X88738095Y-114752380D02*
X88738095Y-113752380D01*
X88738095Y-114228571D02*
X89309523Y-114228571D01*
X89309523Y-114752380D02*
X89309523Y-113752380D01*
X90214285Y-114085714D02*
X90214285Y-114752380D01*
X89976190Y-113704761D02*
X89738095Y-114419047D01*
X90357142Y-114419047D01*
%TO.C,C12*%
X178787142Y-114142857D02*
X178834761Y-114190476D01*
X178882380Y-114333333D01*
X178882380Y-114428571D01*
X178834761Y-114571428D01*
X178739523Y-114666666D01*
X178644285Y-114714285D01*
X178453809Y-114761904D01*
X178310952Y-114761904D01*
X178120476Y-114714285D01*
X178025238Y-114666666D01*
X177930000Y-114571428D01*
X177882380Y-114428571D01*
X177882380Y-114333333D01*
X177930000Y-114190476D01*
X177977619Y-114142857D01*
X178882380Y-113190476D02*
X178882380Y-113761904D01*
X178882380Y-113476190D02*
X177882380Y-113476190D01*
X178025238Y-113571428D01*
X178120476Y-113666666D01*
X178168095Y-113761904D01*
X177977619Y-112809523D02*
X177930000Y-112761904D01*
X177882380Y-112666666D01*
X177882380Y-112428571D01*
X177930000Y-112333333D01*
X177977619Y-112285714D01*
X178072857Y-112238095D01*
X178168095Y-112238095D01*
X178310952Y-112285714D01*
X178882380Y-112857142D01*
X178882380Y-112238095D01*
%TO.C,R29*%
X130357142Y-66744880D02*
X130023809Y-66268690D01*
X129785714Y-66744880D02*
X129785714Y-65744880D01*
X130166666Y-65744880D01*
X130261904Y-65792500D01*
X130309523Y-65840119D01*
X130357142Y-65935357D01*
X130357142Y-66078214D01*
X130309523Y-66173452D01*
X130261904Y-66221071D01*
X130166666Y-66268690D01*
X129785714Y-66268690D01*
X130738095Y-65840119D02*
X130785714Y-65792500D01*
X130880952Y-65744880D01*
X131119047Y-65744880D01*
X131214285Y-65792500D01*
X131261904Y-65840119D01*
X131309523Y-65935357D01*
X131309523Y-66030595D01*
X131261904Y-66173452D01*
X130690476Y-66744880D01*
X131309523Y-66744880D01*
X131785714Y-66744880D02*
X131976190Y-66744880D01*
X132071428Y-66697261D01*
X132119047Y-66649642D01*
X132214285Y-66506785D01*
X132261904Y-66316309D01*
X132261904Y-65935357D01*
X132214285Y-65840119D01*
X132166666Y-65792500D01*
X132071428Y-65744880D01*
X131880952Y-65744880D01*
X131785714Y-65792500D01*
X131738095Y-65840119D01*
X131690476Y-65935357D01*
X131690476Y-66173452D01*
X131738095Y-66268690D01*
X131785714Y-66316309D01*
X131880952Y-66363928D01*
X132071428Y-66363928D01*
X132166666Y-66316309D01*
X132214285Y-66268690D01*
X132261904Y-66173452D01*
D11*
%TO.C,D3*%
X154597961Y-112882190D02*
X154277961Y-112882190D01*
X154277961Y-112806000D01*
X154293200Y-112760285D01*
X154323676Y-112729809D01*
X154354152Y-112714571D01*
X154415104Y-112699333D01*
X154460819Y-112699333D01*
X154521771Y-112714571D01*
X154552247Y-112729809D01*
X154582723Y-112760285D01*
X154597961Y-112806000D01*
X154597961Y-112882190D01*
X154277961Y-112592666D02*
X154277961Y-112394571D01*
X154399866Y-112501238D01*
X154399866Y-112455523D01*
X154415104Y-112425047D01*
X154430342Y-112409809D01*
X154460819Y-112394571D01*
X154537009Y-112394571D01*
X154567485Y-112409809D01*
X154582723Y-112425047D01*
X154597961Y-112455523D01*
X154597961Y-112546952D01*
X154582723Y-112577428D01*
X154567485Y-112592666D01*
D12*
%TO.C,DriverMotor2*%
X117815238Y-95574523D02*
X117815238Y-94304523D01*
X118117619Y-94304523D01*
X118299047Y-94365000D01*
X118420000Y-94485952D01*
X118480476Y-94606904D01*
X118540952Y-94848809D01*
X118540952Y-95030238D01*
X118480476Y-95272142D01*
X118420000Y-95393095D01*
X118299047Y-95514047D01*
X118117619Y-95574523D01*
X117815238Y-95574523D01*
X119085238Y-95574523D02*
X119085238Y-94727857D01*
X119085238Y-94969761D02*
X119145714Y-94848809D01*
X119206190Y-94788333D01*
X119327142Y-94727857D01*
X119448095Y-94727857D01*
X119871428Y-95574523D02*
X119871428Y-94727857D01*
X119871428Y-94304523D02*
X119810952Y-94365000D01*
X119871428Y-94425476D01*
X119931904Y-94365000D01*
X119871428Y-94304523D01*
X119871428Y-94425476D01*
X120355238Y-94727857D02*
X120657619Y-95574523D01*
X120960000Y-94727857D01*
X121927619Y-95514047D02*
X121806666Y-95574523D01*
X121564761Y-95574523D01*
X121443809Y-95514047D01*
X121383333Y-95393095D01*
X121383333Y-94909285D01*
X121443809Y-94788333D01*
X121564761Y-94727857D01*
X121806666Y-94727857D01*
X121927619Y-94788333D01*
X121988095Y-94909285D01*
X121988095Y-95030238D01*
X121383333Y-95151190D01*
X122532380Y-95574523D02*
X122532380Y-94727857D01*
X122532380Y-94969761D02*
X122592857Y-94848809D01*
X122653333Y-94788333D01*
X122774285Y-94727857D01*
X122895238Y-94727857D01*
X123318571Y-95574523D02*
X123318571Y-94304523D01*
X123741904Y-95211666D01*
X124165238Y-94304523D01*
X124165238Y-95574523D01*
X124951428Y-95574523D02*
X124830476Y-95514047D01*
X124770000Y-95453571D01*
X124709523Y-95332619D01*
X124709523Y-94969761D01*
X124770000Y-94848809D01*
X124830476Y-94788333D01*
X124951428Y-94727857D01*
X125132857Y-94727857D01*
X125253809Y-94788333D01*
X125314285Y-94848809D01*
X125374761Y-94969761D01*
X125374761Y-95332619D01*
X125314285Y-95453571D01*
X125253809Y-95514047D01*
X125132857Y-95574523D01*
X124951428Y-95574523D01*
X125737619Y-94727857D02*
X126221428Y-94727857D01*
X125919047Y-94304523D02*
X125919047Y-95393095D01*
X125979523Y-95514047D01*
X126100476Y-95574523D01*
X126221428Y-95574523D01*
X126826190Y-95574523D02*
X126705238Y-95514047D01*
X126644761Y-95453571D01*
X126584285Y-95332619D01*
X126584285Y-94969761D01*
X126644761Y-94848809D01*
X126705238Y-94788333D01*
X126826190Y-94727857D01*
X127007619Y-94727857D01*
X127128571Y-94788333D01*
X127189047Y-94848809D01*
X127249523Y-94969761D01*
X127249523Y-95332619D01*
X127189047Y-95453571D01*
X127128571Y-95514047D01*
X127007619Y-95574523D01*
X126826190Y-95574523D01*
X127793809Y-95574523D02*
X127793809Y-94727857D01*
X127793809Y-94969761D02*
X127854285Y-94848809D01*
X127914761Y-94788333D01*
X128035714Y-94727857D01*
X128156666Y-94727857D01*
X128519523Y-94425476D02*
X128580000Y-94365000D01*
X128700952Y-94304523D01*
X129003333Y-94304523D01*
X129124285Y-94365000D01*
X129184761Y-94425476D01*
X129245238Y-94546428D01*
X129245238Y-94667380D01*
X129184761Y-94848809D01*
X128459047Y-95574523D01*
X129245238Y-95574523D01*
D10*
%TO.C,R18*%
X101944642Y-93382380D02*
X101611309Y-92906190D01*
X101373214Y-93382380D02*
X101373214Y-92382380D01*
X101754166Y-92382380D01*
X101849404Y-92430000D01*
X101897023Y-92477619D01*
X101944642Y-92572857D01*
X101944642Y-92715714D01*
X101897023Y-92810952D01*
X101849404Y-92858571D01*
X101754166Y-92906190D01*
X101373214Y-92906190D01*
X102897023Y-93382380D02*
X102325595Y-93382380D01*
X102611309Y-93382380D02*
X102611309Y-92382380D01*
X102516071Y-92525238D01*
X102420833Y-92620476D01*
X102325595Y-92668095D01*
X103468452Y-92810952D02*
X103373214Y-92763333D01*
X103325595Y-92715714D01*
X103277976Y-92620476D01*
X103277976Y-92572857D01*
X103325595Y-92477619D01*
X103373214Y-92430000D01*
X103468452Y-92382380D01*
X103658928Y-92382380D01*
X103754166Y-92430000D01*
X103801785Y-92477619D01*
X103849404Y-92572857D01*
X103849404Y-92620476D01*
X103801785Y-92715714D01*
X103754166Y-92763333D01*
X103658928Y-92810952D01*
X103468452Y-92810952D01*
X103373214Y-92858571D01*
X103325595Y-92906190D01*
X103277976Y-93001428D01*
X103277976Y-93191904D01*
X103325595Y-93287142D01*
X103373214Y-93334761D01*
X103468452Y-93382380D01*
X103658928Y-93382380D01*
X103754166Y-93334761D01*
X103801785Y-93287142D01*
X103849404Y-93191904D01*
X103849404Y-93001428D01*
X103801785Y-92906190D01*
X103754166Y-92858571D01*
X103658928Y-92810952D01*
%TO.C,C3*%
X120357142Y-63029166D02*
X120404761Y-63076785D01*
X120452380Y-63219642D01*
X120452380Y-63314880D01*
X120404761Y-63457738D01*
X120309523Y-63552976D01*
X120214285Y-63600595D01*
X120023809Y-63648214D01*
X119880952Y-63648214D01*
X119690476Y-63600595D01*
X119595238Y-63552976D01*
X119500000Y-63457738D01*
X119452380Y-63314880D01*
X119452380Y-63219642D01*
X119500000Y-63076785D01*
X119547619Y-63029166D01*
X119452380Y-62695833D02*
X119452380Y-62076785D01*
X119833333Y-62410119D01*
X119833333Y-62267261D01*
X119880952Y-62172023D01*
X119928571Y-62124404D01*
X120023809Y-62076785D01*
X120261904Y-62076785D01*
X120357142Y-62124404D01*
X120404761Y-62172023D01*
X120452380Y-62267261D01*
X120452380Y-62552976D01*
X120404761Y-62648214D01*
X120357142Y-62695833D01*
%TO.C,Jumper2*%
X108857142Y-114822380D02*
X108857142Y-115536666D01*
X108809523Y-115679523D01*
X108714285Y-115774761D01*
X108571428Y-115822380D01*
X108476190Y-115822380D01*
X109761904Y-115155714D02*
X109761904Y-115822380D01*
X109333333Y-115155714D02*
X109333333Y-115679523D01*
X109380952Y-115774761D01*
X109476190Y-115822380D01*
X109619047Y-115822380D01*
X109714285Y-115774761D01*
X109761904Y-115727142D01*
X110238095Y-115822380D02*
X110238095Y-115155714D01*
X110238095Y-115250952D02*
X110285714Y-115203333D01*
X110380952Y-115155714D01*
X110523809Y-115155714D01*
X110619047Y-115203333D01*
X110666666Y-115298571D01*
X110666666Y-115822380D01*
X110666666Y-115298571D02*
X110714285Y-115203333D01*
X110809523Y-115155714D01*
X110952380Y-115155714D01*
X111047619Y-115203333D01*
X111095238Y-115298571D01*
X111095238Y-115822380D01*
X111571428Y-115155714D02*
X111571428Y-116155714D01*
X111571428Y-115203333D02*
X111666666Y-115155714D01*
X111857142Y-115155714D01*
X111952380Y-115203333D01*
X112000000Y-115250952D01*
X112047619Y-115346190D01*
X112047619Y-115631904D01*
X112000000Y-115727142D01*
X111952380Y-115774761D01*
X111857142Y-115822380D01*
X111666666Y-115822380D01*
X111571428Y-115774761D01*
X112857142Y-115774761D02*
X112761904Y-115822380D01*
X112571428Y-115822380D01*
X112476190Y-115774761D01*
X112428571Y-115679523D01*
X112428571Y-115298571D01*
X112476190Y-115203333D01*
X112571428Y-115155714D01*
X112761904Y-115155714D01*
X112857142Y-115203333D01*
X112904761Y-115298571D01*
X112904761Y-115393809D01*
X112428571Y-115489047D01*
X113333333Y-115822380D02*
X113333333Y-115155714D01*
X113333333Y-115346190D02*
X113380952Y-115250952D01*
X113428571Y-115203333D01*
X113523809Y-115155714D01*
X113619047Y-115155714D01*
X113904761Y-114917619D02*
X113952380Y-114870000D01*
X114047619Y-114822380D01*
X114285714Y-114822380D01*
X114380952Y-114870000D01*
X114428571Y-114917619D01*
X114476190Y-115012857D01*
X114476190Y-115108095D01*
X114428571Y-115250952D01*
X113857142Y-115822380D01*
X114476190Y-115822380D01*
%TO.C,R4*%
X173588057Y-66452380D02*
X173254724Y-65976190D01*
X173016628Y-66452380D02*
X173016628Y-65452380D01*
X173397581Y-65452380D01*
X173492819Y-65500000D01*
X173540438Y-65547619D01*
X173588057Y-65642857D01*
X173588057Y-65785714D01*
X173540438Y-65880952D01*
X173492819Y-65928571D01*
X173397581Y-65976190D01*
X173016628Y-65976190D01*
X174445200Y-65785714D02*
X174445200Y-66452380D01*
X174207104Y-65404761D02*
X173969009Y-66119047D01*
X174588057Y-66119047D01*
%TO.C,U5*%
X135902380Y-88324404D02*
X136711904Y-88324404D01*
X136807142Y-88276785D01*
X136854761Y-88229166D01*
X136902380Y-88133928D01*
X136902380Y-87943452D01*
X136854761Y-87848214D01*
X136807142Y-87800595D01*
X136711904Y-87752976D01*
X135902380Y-87752976D01*
X135902380Y-86800595D02*
X135902380Y-87276785D01*
X136378571Y-87324404D01*
X136330952Y-87276785D01*
X136283333Y-87181547D01*
X136283333Y-86943452D01*
X136330952Y-86848214D01*
X136378571Y-86800595D01*
X136473809Y-86752976D01*
X136711904Y-86752976D01*
X136807142Y-86800595D01*
X136854761Y-86848214D01*
X136902380Y-86943452D01*
X136902380Y-87181547D01*
X136854761Y-87276785D01*
X136807142Y-87324404D01*
%TO.C,J4*%
X182166666Y-75777380D02*
X182166666Y-76491666D01*
X182119047Y-76634523D01*
X182023809Y-76729761D01*
X181880952Y-76777380D01*
X181785714Y-76777380D01*
X183071428Y-76110714D02*
X183071428Y-76777380D01*
X182833333Y-75729761D02*
X182595238Y-76444047D01*
X183214285Y-76444047D01*
D13*
%TO.C,R11*%
X103210000Y-102177064D02*
X103210000Y-97822936D01*
X99790000Y-102177064D02*
X99790000Y-97822936D01*
%TO.C,R27*%
X186745276Y-85177500D02*
X187254724Y-85177500D01*
X186745276Y-84132500D02*
X187254724Y-84132500D01*
%TO.C,R17*%
X102245276Y-75477500D02*
X102754724Y-75477500D01*
X102245276Y-76522500D02*
X102754724Y-76522500D01*
%TO.C,D7*%
X115450600Y-61384600D02*
X115450600Y-61720360D01*
X118549400Y-61720360D02*
X118549400Y-61384600D01*
X115450600Y-63004640D02*
X115450600Y-63340400D01*
X118549400Y-61384600D02*
X115450600Y-61384600D01*
X118549400Y-63340400D02*
X118549400Y-63004640D01*
X115450600Y-63340400D02*
X118549400Y-63340400D01*
%TO.C,CapteurCouleur1*%
X152970000Y-120830000D02*
X160650000Y-120830000D01*
X151700000Y-120830000D02*
X150370000Y-120830000D01*
X152970000Y-120830000D02*
X152970000Y-118170000D01*
X150370000Y-120830000D02*
X150370000Y-119500000D01*
X152970000Y-118170000D02*
X160650000Y-118170000D01*
X160650000Y-120830000D02*
X160650000Y-118170000D01*
%TO.C,R7*%
X155477500Y-107754724D02*
X155477500Y-107245276D01*
X156522500Y-107754724D02*
X156522500Y-107245276D01*
D14*
%TO.C,U4*%
X162550000Y-47475000D02*
X166450000Y-47475000D01*
X162550000Y-52525000D02*
X166450000Y-52525000D01*
D15*
X160560000Y-47695000D02*
G75*
G03*
X160560000Y-47695000I-100000J0D01*
G01*
D13*
%TO.C,R3*%
X143704724Y-48522500D02*
X143195276Y-48522500D01*
X143704724Y-47477500D02*
X143195276Y-47477500D01*
%TO.C,BDT1*%
X93330000Y-71745000D02*
X93330000Y-76885000D01*
X90670000Y-71745000D02*
X93330000Y-71745000D01*
X90670000Y-70475000D02*
X90670000Y-69145000D01*
X90670000Y-71745000D02*
X90670000Y-76885000D01*
X90670000Y-69145000D02*
X92000000Y-69145000D01*
X90670000Y-76885000D02*
X93330000Y-76885000D01*
%TO.C,R26*%
X186745276Y-71617500D02*
X187254724Y-71617500D01*
X186745276Y-72662500D02*
X187254724Y-72662500D01*
%TO.C,R6*%
X159522500Y-107754724D02*
X159522500Y-107245276D01*
X158477500Y-107754724D02*
X158477500Y-107245276D01*
%TO.C,R24*%
X186745276Y-74617500D02*
X187254724Y-74617500D01*
X186745276Y-75662500D02*
X187254724Y-75662500D01*
D14*
%TO.C,D5*%
X147230000Y-48700000D02*
X150000000Y-48700000D01*
X148010000Y-47650000D02*
X148010000Y-48370000D01*
X147000000Y-48580000D02*
X147000000Y-48570000D01*
X150000000Y-47420000D02*
X150000000Y-47300000D01*
X147000000Y-47300000D02*
X150000000Y-47300000D01*
X148190000Y-48020000D02*
X148010000Y-47650000D01*
X148010000Y-48370000D02*
X148190000Y-48020000D01*
X147000000Y-48600000D02*
X147130000Y-48690000D01*
X147000000Y-47410000D02*
X147000000Y-47300000D01*
X147220000Y-48700000D02*
X147140000Y-48700000D01*
X150000000Y-48570000D02*
X150000000Y-48700000D01*
D13*
%TO.C,CO1*%
X131654437Y-61272500D02*
X137410000Y-61272500D01*
X129956250Y-55621250D02*
X129956250Y-56408750D01*
X130590000Y-60208063D02*
X131654437Y-61272500D01*
X131654437Y-54452500D02*
X137410000Y-54452500D01*
X130590000Y-60208063D02*
X130590000Y-58922500D01*
X137410000Y-54452500D02*
X137410000Y-56802500D01*
X130590000Y-55516937D02*
X130590000Y-56802500D01*
X129562500Y-56015000D02*
X130350000Y-56015000D01*
X130590000Y-55516937D02*
X131654437Y-54452500D01*
X137410000Y-61272500D02*
X137410000Y-58922500D01*
%TO.C,C2*%
X115510000Y-53216233D02*
X115510000Y-53508767D01*
X114490000Y-53216233D02*
X114490000Y-53508767D01*
%TO.C,R8*%
X152477500Y-107754724D02*
X152477500Y-107245276D01*
X153522500Y-107754724D02*
X153522500Y-107245276D01*
%TO.C,GND1*%
X138170000Y-109270000D02*
X138170000Y-114410000D01*
X140830000Y-109270000D02*
X140830000Y-114410000D01*
X138170000Y-106670000D02*
X139500000Y-106670000D01*
X138170000Y-114410000D02*
X140830000Y-114410000D01*
X138170000Y-108000000D02*
X138170000Y-106670000D01*
X138170000Y-109270000D02*
X140830000Y-109270000D01*
%TO.C,STLinkv3*%
X123265000Y-72495000D02*
X119735000Y-72495000D01*
X123265000Y-81505000D02*
X119735000Y-81505000D01*
X119735000Y-81505000D02*
X119735000Y-81440000D01*
X123265000Y-72560000D02*
X123265000Y-72495000D01*
X123265000Y-81505000D02*
X123265000Y-81440000D01*
X124590000Y-81440000D02*
X123265000Y-81440000D01*
X119735000Y-72560000D02*
X119735000Y-72495000D01*
%TO.C,R22*%
X186745276Y-68632500D02*
X187254724Y-68632500D01*
X186745276Y-69677500D02*
X187254724Y-69677500D01*
D14*
%TO.C,D1*%
X158980000Y-112190000D02*
X159350000Y-112010000D01*
X158430000Y-114000000D02*
X158300000Y-114000000D01*
X159590000Y-111000000D02*
X159700000Y-111000000D01*
X159580000Y-114000000D02*
X159700000Y-114000000D01*
X158300000Y-111220000D02*
X158300000Y-111140000D01*
X158300000Y-111230000D02*
X158300000Y-114000000D01*
X159350000Y-112010000D02*
X158630000Y-112010000D01*
X158400000Y-111000000D02*
X158310000Y-111130000D01*
X159700000Y-111000000D02*
X159700000Y-114000000D01*
X158420000Y-111000000D02*
X158430000Y-111000000D01*
X158630000Y-112010000D02*
X158980000Y-112190000D01*
D13*
%TO.C,L1*%
X111300000Y-61162500D02*
X111300000Y-64162500D01*
X111300000Y-51562500D02*
X111300000Y-54562500D01*
X111300000Y-64162500D02*
X98700000Y-64162500D01*
X98700000Y-54562500D02*
X98700000Y-51562500D01*
X98700000Y-64162500D02*
X98700000Y-61162500D01*
X98700000Y-51562500D02*
X111300000Y-51562500D01*
%TO.C,C11*%
X176490000Y-104353733D02*
X176490000Y-104646267D01*
X177510000Y-104353733D02*
X177510000Y-104646267D01*
%TO.C,C14*%
X148353733Y-70490000D02*
X148646267Y-70490000D01*
X148353733Y-71510000D02*
X148646267Y-71510000D01*
%TO.C,Jumper4*%
X111280000Y-74670000D02*
X107720000Y-74670000D01*
X105630000Y-74670000D02*
X105630000Y-77330000D01*
X106200000Y-77330000D02*
X105630000Y-77330000D01*
X113370000Y-77330000D02*
X110260000Y-77330000D01*
X113370000Y-74670000D02*
X113370000Y-77330000D01*
X112800000Y-74670000D02*
X112800000Y-73150000D01*
X108740000Y-77330000D02*
X105630000Y-77330000D01*
X113370000Y-74670000D02*
X112800000Y-74670000D01*
%TO.C,R23*%
X186745276Y-82177500D02*
X187254724Y-82177500D01*
X186745276Y-81132500D02*
X187254724Y-81132500D01*
%TO.C,C13*%
X148353733Y-66510000D02*
X148646267Y-66510000D01*
X148353733Y-65490000D02*
X148646267Y-65490000D01*
%TO.C,JVL53L0X_2490*%
X92830000Y-58580000D02*
X92830000Y-45820000D01*
X92830000Y-61180000D02*
X91500000Y-61180000D01*
X90170000Y-58580000D02*
X90170000Y-45820000D01*
X92830000Y-58580000D02*
X90170000Y-58580000D01*
X92830000Y-59850000D02*
X92830000Y-61180000D01*
X92830000Y-45820000D02*
X90170000Y-45820000D01*
%TO.C,Rsc1*%
X130322936Y-47652500D02*
X134677064Y-47652500D01*
X130322936Y-51072500D02*
X134677064Y-51072500D01*
%TO.C,AlimRasp1*%
X103225000Y-39830000D02*
X101895000Y-39830000D01*
X101895000Y-39830000D02*
X101895000Y-38500000D01*
X104495000Y-37170000D02*
X107095000Y-37170000D01*
X104495000Y-39830000D02*
X104495000Y-37170000D01*
X104495000Y-39830000D02*
X107095000Y-39830000D01*
X107095000Y-39830000D02*
X107095000Y-37170000D01*
%TO.C,R9*%
X149477500Y-107667224D02*
X149477500Y-107157776D01*
X150522500Y-107667224D02*
X150522500Y-107157776D01*
%TO.C,R16*%
X102332776Y-85632500D02*
X102842224Y-85632500D01*
X102332776Y-86677500D02*
X102842224Y-86677500D01*
%TO.C,R21*%
X102754724Y-73522500D02*
X102245276Y-73522500D01*
X102754724Y-72477500D02*
X102245276Y-72477500D01*
%TO.C,R5*%
X173245276Y-60522500D02*
X173754724Y-60522500D01*
X173245276Y-59477500D02*
X173754724Y-59477500D01*
D14*
%TO.C,D4*%
X149300000Y-111220000D02*
X149300000Y-111140000D01*
X150350000Y-112010000D02*
X149630000Y-112010000D01*
X149980000Y-112190000D02*
X150350000Y-112010000D01*
X150580000Y-114000000D02*
X150700000Y-114000000D01*
X149630000Y-112010000D02*
X149980000Y-112190000D01*
X150590000Y-111000000D02*
X150700000Y-111000000D01*
X149430000Y-114000000D02*
X149300000Y-114000000D01*
X149300000Y-111230000D02*
X149300000Y-114000000D01*
X150700000Y-111000000D02*
X150700000Y-114000000D01*
X149420000Y-111000000D02*
X149430000Y-111000000D01*
X149400000Y-111000000D02*
X149310000Y-111130000D01*
%TO.C,User_btn1*%
X182000000Y-115500000D02*
X182000000Y-109500000D01*
X182000000Y-109500000D02*
X188000000Y-109500000D01*
X188000000Y-109500000D02*
X188000000Y-115500000D01*
X188000000Y-115500000D02*
X182000000Y-115500000D01*
D15*
X180630000Y-109000000D02*
G75*
G03*
X180630000Y-109000000I-130000J0D01*
G01*
D13*
%TO.C,U6*%
X159660000Y-92610000D02*
X160610000Y-92610000D01*
X159660000Y-82390000D02*
X160610000Y-82390000D01*
X150390000Y-92610000D02*
X150390000Y-91660000D01*
X160610000Y-82390000D02*
X160610000Y-83340000D01*
X150390000Y-83340000D02*
X149050000Y-83340000D01*
X151340000Y-92610000D02*
X150390000Y-92610000D01*
X150390000Y-82390000D02*
X150390000Y-83340000D01*
X151340000Y-82390000D02*
X150390000Y-82390000D01*
X160610000Y-92610000D02*
X160610000Y-91660000D01*
%TO.C,BDT2*%
X90670000Y-86770000D02*
X93330000Y-86770000D01*
X90670000Y-84170000D02*
X92000000Y-84170000D01*
X93330000Y-86770000D02*
X93330000Y-91910000D01*
X90670000Y-86770000D02*
X90670000Y-91910000D01*
X90670000Y-91910000D02*
X93330000Y-91910000D01*
X90670000Y-85500000D02*
X90670000Y-84170000D01*
D14*
%TO.C,BAT1*%
X131250000Y-38400000D02*
X134050000Y-35950000D01*
X130500000Y-40000000D02*
X129500000Y-40000000D01*
X146750000Y-44050000D02*
X134050000Y-44050000D01*
X146750000Y-35950000D02*
X146750000Y-44050000D01*
X131250000Y-41600000D02*
X131250000Y-38400000D01*
X148000000Y-40500000D02*
X148000000Y-39500000D01*
X148500000Y-40000000D02*
X147500000Y-40000000D01*
X134050000Y-44050000D02*
X131250000Y-41600000D01*
X134050000Y-35950000D02*
X146750000Y-35950000D01*
D13*
%TO.C,R2*%
X99890124Y-47840000D02*
X99380676Y-47840000D01*
X99890124Y-48885000D02*
X99380676Y-48885000D01*
%TO.C,Reg3.3*%
X142745000Y-71925000D02*
X142745000Y-71655000D01*
X141245000Y-65025000D02*
X142745000Y-65025000D01*
X142745000Y-65025000D02*
X142745000Y-65295000D01*
X141245000Y-71925000D02*
X142745000Y-71925000D01*
X142745000Y-65295000D02*
X143845000Y-65295000D01*
X142745000Y-71655000D02*
X145575000Y-71655000D01*
%TO.C,Rsc2*%
X177677064Y-45290000D02*
X173322936Y-45290000D01*
X177677064Y-48710000D02*
X173322936Y-48710000D01*
%TO.C,Jumper6*%
X183870000Y-73485000D02*
X183870000Y-70825000D01*
X183300000Y-70825000D02*
X183870000Y-70825000D01*
X176130000Y-73485000D02*
X176130000Y-70825000D01*
X176130000Y-73485000D02*
X176700000Y-73485000D01*
X178220000Y-73485000D02*
X181780000Y-73485000D01*
X176700000Y-73485000D02*
X176700000Y-75005000D01*
X180760000Y-70825000D02*
X183870000Y-70825000D01*
X176130000Y-70825000D02*
X179240000Y-70825000D01*
%TO.C,Rasp_conn1*%
X117230000Y-37170000D02*
X112090000Y-37170000D01*
X119830000Y-37170000D02*
X119830000Y-38500000D01*
X117230000Y-37170000D02*
X117230000Y-39830000D01*
X118500000Y-37170000D02*
X119830000Y-37170000D01*
X117230000Y-39830000D02*
X112090000Y-39830000D01*
X112090000Y-37170000D02*
X112090000Y-39830000D01*
%TO.C,C4*%
X159010000Y-51716233D02*
X159010000Y-52008767D01*
X157990000Y-51716233D02*
X157990000Y-52008767D01*
D15*
%TO.C,DriverMotor1*%
X120025000Y-108420000D02*
X121550000Y-108420000D01*
D13*
%TO.C,D8*%
X156950600Y-63779640D02*
X156950600Y-64115400D01*
X160049400Y-62159600D02*
X156950600Y-62159600D01*
X156950600Y-64115400D02*
X160049400Y-64115400D01*
X160049400Y-62495360D02*
X160049400Y-62159600D01*
X156950600Y-62159600D02*
X156950600Y-62495360D01*
X160049400Y-64115400D02*
X160049400Y-63779640D01*
%TO.C,Jumper5*%
X178220000Y-85985000D02*
X181780000Y-85985000D01*
X183870000Y-85985000D02*
X183870000Y-83325000D01*
X176700000Y-85985000D02*
X176700000Y-87505000D01*
X176130000Y-83325000D02*
X179240000Y-83325000D01*
X176130000Y-85985000D02*
X176700000Y-85985000D01*
X183300000Y-83325000D02*
X183870000Y-83325000D01*
X180760000Y-83325000D02*
X183870000Y-83325000D01*
X176130000Y-85985000D02*
X176130000Y-83325000D01*
%TO.C,Servomoteur1*%
X157230000Y-37170000D02*
X162370000Y-37170000D01*
X155960000Y-39830000D02*
X154630000Y-39830000D01*
X157230000Y-39830000D02*
X157230000Y-37170000D01*
X162370000Y-39830000D02*
X162370000Y-37170000D01*
X154630000Y-39830000D02*
X154630000Y-38500000D01*
X157230000Y-39830000D02*
X162370000Y-39830000D01*
%TO.C,J2*%
X110670000Y-84270000D02*
X110670000Y-84330000D01*
X110670000Y-84270000D02*
X113330000Y-84270000D01*
X113330000Y-84270000D02*
X113330000Y-84330000D01*
X110670000Y-81670000D02*
X112000000Y-81670000D01*
X110670000Y-84330000D02*
X113330000Y-84330000D01*
X110670000Y-83000000D02*
X110670000Y-81670000D01*
%TO.C,J3*%
X176170000Y-79985000D02*
X178830000Y-79985000D01*
X178830000Y-79925000D02*
X178830000Y-79985000D01*
X176170000Y-79925000D02*
X178830000Y-79925000D01*
X176170000Y-77325000D02*
X177500000Y-77325000D01*
X176170000Y-78655000D02*
X176170000Y-77325000D01*
X176170000Y-79925000D02*
X176170000Y-79985000D01*
%TO.C,CO2*%
X162140000Y-63295563D02*
X162140000Y-55640000D01*
X169795563Y-64360000D02*
X168010000Y-64360000D01*
X162140000Y-55640000D02*
X164990000Y-55640000D01*
X163204437Y-64360000D02*
X164990000Y-64360000D01*
X170860000Y-63295563D02*
X170860000Y-55640000D01*
X169795563Y-64360000D02*
X170860000Y-63295563D01*
X163490000Y-65100000D02*
X164490000Y-65100000D01*
X163204437Y-64360000D02*
X162140000Y-63295563D01*
X163990000Y-65600000D02*
X163990000Y-64600000D01*
X170860000Y-55640000D02*
X168010000Y-55640000D01*
%TO.C,MOTOR_1*%
X93330000Y-108080000D02*
X90670000Y-108080000D01*
X90670000Y-108080000D02*
X90670000Y-95320000D01*
X93330000Y-109350000D02*
X93330000Y-110680000D01*
X93330000Y-95320000D02*
X90670000Y-95320000D01*
X93330000Y-110680000D02*
X92000000Y-110680000D01*
X93330000Y-108080000D02*
X93330000Y-95320000D01*
%TO.C,Jumper1*%
X112830000Y-100780000D02*
X112830000Y-97220000D01*
X110170000Y-98240000D02*
X110170000Y-95130000D01*
X112830000Y-102870000D02*
X112830000Y-102300000D01*
X112830000Y-102300000D02*
X114350000Y-102300000D01*
X110170000Y-95700000D02*
X110170000Y-95130000D01*
X112830000Y-95130000D02*
X110170000Y-95130000D01*
X110170000Y-102870000D02*
X110170000Y-99760000D01*
X112830000Y-102870000D02*
X110170000Y-102870000D01*
D14*
%TO.C,D2*%
X155420000Y-111000000D02*
X155430000Y-111000000D01*
X155980000Y-112190000D02*
X156350000Y-112010000D01*
X156590000Y-111000000D02*
X156700000Y-111000000D01*
X156700000Y-111000000D02*
X156700000Y-114000000D01*
X155300000Y-111220000D02*
X155300000Y-111140000D01*
X156350000Y-112010000D02*
X155630000Y-112010000D01*
X155400000Y-111000000D02*
X155310000Y-111130000D01*
X155300000Y-111230000D02*
X155300000Y-114000000D01*
X155630000Y-112010000D02*
X155980000Y-112190000D01*
X156580000Y-114000000D02*
X156700000Y-114000000D01*
X155430000Y-114000000D02*
X155300000Y-114000000D01*
D13*
%TO.C,R19*%
X102245276Y-78477500D02*
X102754724Y-78477500D01*
X102245276Y-79522500D02*
X102754724Y-79522500D01*
%TO.C,R1*%
X130745276Y-63385000D02*
X131254724Y-63385000D01*
X130745276Y-62340000D02*
X131254724Y-62340000D01*
%TO.C,L2*%
X142200000Y-53700000D02*
X142200000Y-50700000D01*
X154800000Y-63300000D02*
X142200000Y-63300000D01*
X154800000Y-60300000D02*
X154800000Y-63300000D01*
X142200000Y-63300000D02*
X142200000Y-60300000D01*
X142200000Y-50700000D02*
X154800000Y-50700000D01*
X154800000Y-50700000D02*
X154800000Y-53700000D01*
D14*
%TO.C,D6*%
X107500000Y-47762500D02*
X107370000Y-47672500D01*
X104500000Y-48942500D02*
X104500000Y-49062500D01*
X107500000Y-48952500D02*
X107500000Y-49062500D01*
X106310000Y-48342500D02*
X106490000Y-48712500D01*
X104500000Y-47792500D02*
X104500000Y-47662500D01*
X107280000Y-47662500D02*
X107360000Y-47662500D01*
X106490000Y-47992500D02*
X106310000Y-48342500D01*
X107270000Y-47662500D02*
X104500000Y-47662500D01*
X106490000Y-48712500D02*
X106490000Y-47992500D01*
X107500000Y-47782500D02*
X107500000Y-47792500D01*
X107500000Y-49062500D02*
X104500000Y-49062500D01*
D13*
%TO.C,J1*%
X106130000Y-84425000D02*
X106130000Y-84485000D01*
X106130000Y-84425000D02*
X108790000Y-84425000D01*
X108790000Y-84425000D02*
X108790000Y-84485000D01*
X106130000Y-81825000D02*
X107460000Y-81825000D01*
X106130000Y-84485000D02*
X108790000Y-84485000D01*
X106130000Y-83155000D02*
X106130000Y-81825000D01*
%TO.C,BDT4*%
X196830000Y-80255000D02*
X194170000Y-80255000D01*
X196830000Y-85395000D02*
X196830000Y-80255000D01*
X196830000Y-87995000D02*
X195500000Y-87995000D01*
X194170000Y-85395000D02*
X194170000Y-80255000D01*
X196830000Y-85395000D02*
X194170000Y-85395000D01*
X196830000Y-86665000D02*
X196830000Y-87995000D01*
%TO.C,MOTOR_2*%
X119180000Y-120830000D02*
X119180000Y-118170000D01*
X103820000Y-120830000D02*
X103820000Y-119500000D01*
X106420000Y-120830000D02*
X119180000Y-120830000D01*
X106420000Y-118170000D02*
X119180000Y-118170000D01*
X106420000Y-120830000D02*
X106420000Y-118170000D01*
X105150000Y-120830000D02*
X103820000Y-120830000D01*
%TO.C,5V1*%
X134170000Y-107975000D02*
X134170000Y-106645000D01*
X134170000Y-109245000D02*
X136830000Y-109245000D01*
X134170000Y-114385000D02*
X136830000Y-114385000D01*
X134170000Y-109245000D02*
X134170000Y-114385000D01*
X136830000Y-109245000D02*
X136830000Y-114385000D01*
X134170000Y-106645000D02*
X135500000Y-106645000D01*
D14*
%TO.C,reset1*%
X188000000Y-100500000D02*
X188000000Y-106500000D01*
X182000000Y-100500000D02*
X188000000Y-100500000D01*
X188000000Y-106500000D02*
X182000000Y-106500000D01*
X182000000Y-106500000D02*
X182000000Y-100500000D01*
D15*
X180630000Y-100000000D02*
G75*
G03*
X180630000Y-100000000I-130000J0D01*
G01*
D13*
%TO.C,C5*%
X173090000Y-52654437D02*
X173090000Y-53940000D01*
X174154437Y-58410000D02*
X179910000Y-58410000D01*
X173090000Y-57345563D02*
X173090000Y-56060000D01*
X179910000Y-51590000D02*
X179910000Y-53940000D01*
X174154437Y-51590000D02*
X179910000Y-51590000D01*
X179910000Y-58410000D02*
X179910000Y-56060000D01*
X172456250Y-52758750D02*
X172456250Y-53546250D01*
X172062500Y-53152500D02*
X172850000Y-53152500D01*
X173090000Y-57345563D02*
X174154437Y-58410000D01*
X173090000Y-52654437D02*
X174154437Y-51590000D01*
D14*
%TO.C,U2*%
X119550000Y-50837500D02*
X123450000Y-50837500D01*
X119550000Y-55887500D02*
X123450000Y-55887500D01*
D15*
X117560000Y-51057500D02*
G75*
G03*
X117560000Y-51057500I-100000J0D01*
G01*
D13*
%TO.C,R10*%
X99790000Y-113177064D02*
X99790000Y-108822936D01*
X103210000Y-113177064D02*
X103210000Y-108822936D01*
%TO.C,3.3V1*%
X142170000Y-114385000D02*
X144830000Y-114385000D01*
X142170000Y-109245000D02*
X142170000Y-114385000D01*
X142170000Y-109245000D02*
X144830000Y-109245000D01*
X144830000Y-109245000D02*
X144830000Y-114385000D01*
X142170000Y-106645000D02*
X143500000Y-106645000D01*
X142170000Y-107975000D02*
X142170000Y-106645000D01*
%TO.C,BDT3*%
X196330000Y-74180000D02*
X196330000Y-75510000D01*
X196330000Y-72910000D02*
X196330000Y-67770000D01*
X193670000Y-72910000D02*
X193670000Y-67770000D01*
X196330000Y-72910000D02*
X193670000Y-72910000D01*
X196330000Y-67770000D02*
X193670000Y-67770000D01*
X196330000Y-75510000D02*
X195000000Y-75510000D01*
%TO.C,R25*%
X186745276Y-88177500D02*
X187254724Y-88177500D01*
X186745276Y-87132500D02*
X187254724Y-87132500D01*
%TO.C,Jumper3*%
X108740000Y-90485000D02*
X105630000Y-90485000D01*
X106200000Y-90485000D02*
X105630000Y-90485000D01*
X113370000Y-87825000D02*
X112800000Y-87825000D01*
X113370000Y-90485000D02*
X110260000Y-90485000D01*
X113370000Y-87825000D02*
X113370000Y-90485000D01*
X105630000Y-87825000D02*
X105630000Y-90485000D01*
X112800000Y-87825000D02*
X112800000Y-86305000D01*
X111280000Y-87825000D02*
X107720000Y-87825000D01*
%TO.C,R20*%
X102842224Y-89022500D02*
X102332776Y-89022500D01*
X102842224Y-87977500D02*
X102332776Y-87977500D01*
%TO.C,C12*%
X176490000Y-113353733D02*
X176490000Y-113646267D01*
X177510000Y-113353733D02*
X177510000Y-113646267D01*
%TO.C,R29*%
X131254724Y-64340000D02*
X130745276Y-64340000D01*
X131254724Y-65385000D02*
X130745276Y-65385000D01*
D14*
%TO.C,D3*%
X153700000Y-111000000D02*
X153700000Y-114000000D01*
X153580000Y-114000000D02*
X153700000Y-114000000D01*
X152300000Y-111220000D02*
X152300000Y-111140000D01*
X152300000Y-111230000D02*
X152300000Y-114000000D01*
X152420000Y-111000000D02*
X152430000Y-111000000D01*
X152430000Y-114000000D02*
X152300000Y-114000000D01*
X152400000Y-111000000D02*
X152310000Y-111130000D01*
X153350000Y-112010000D02*
X152630000Y-112010000D01*
X152980000Y-112190000D02*
X153350000Y-112010000D01*
X153590000Y-111000000D02*
X153700000Y-111000000D01*
X152630000Y-112010000D02*
X152980000Y-112190000D01*
D15*
%TO.C,DriverMotor2*%
X120025000Y-96420000D02*
X121550000Y-96420000D01*
D13*
%TO.C,R18*%
X102842224Y-92022500D02*
X102332776Y-92022500D01*
X102842224Y-90977500D02*
X102332776Y-90977500D01*
%TO.C,C3*%
X128410000Y-65208063D02*
X128410000Y-59452500D01*
X128410000Y-59452500D02*
X126060000Y-59452500D01*
X122758750Y-66906250D02*
X123546250Y-66906250D01*
X127345563Y-66272500D02*
X126060000Y-66272500D01*
X123152500Y-67300000D02*
X123152500Y-66512500D01*
X121590000Y-65208063D02*
X121590000Y-59452500D01*
X127345563Y-66272500D02*
X128410000Y-65208063D01*
X122654437Y-66272500D02*
X121590000Y-65208063D01*
X121590000Y-59452500D02*
X123940000Y-59452500D01*
X122654437Y-66272500D02*
X123940000Y-66272500D01*
%TO.C,Jumper2*%
X112830000Y-114370000D02*
X110170000Y-114370000D01*
X110170000Y-114370000D02*
X110170000Y-111260000D01*
X110170000Y-109740000D02*
X110170000Y-106630000D01*
X112830000Y-112280000D02*
X112830000Y-108720000D01*
X112830000Y-106630000D02*
X110170000Y-106630000D01*
X110170000Y-107200000D02*
X110170000Y-106630000D01*
X112830000Y-113800000D02*
X114350000Y-113800000D01*
X112830000Y-114370000D02*
X112830000Y-113800000D01*
%TO.C,R4*%
X173245276Y-64522500D02*
X173754724Y-64522500D01*
X173245276Y-63477500D02*
X173754724Y-63477500D01*
%TO.C,U5*%
X142550000Y-97637500D02*
X142550000Y-81662500D01*
X137450000Y-81662500D02*
X137450000Y-97637500D01*
X137450000Y-97637500D02*
X142550000Y-97637500D01*
%TO.C,J4*%
X183830000Y-79925000D02*
X183830000Y-79985000D01*
X181170000Y-79925000D02*
X183830000Y-79925000D01*
X181170000Y-79985000D02*
X183830000Y-79985000D01*
X181170000Y-79925000D02*
X181170000Y-79985000D01*
X181170000Y-78655000D02*
X181170000Y-77325000D01*
X181170000Y-77325000D02*
X182500000Y-77325000D01*
%TD*%
M02*
