%TF.GenerationSoftware,KiCad,Pcbnew,(6.0.8)*%
%TF.CreationDate,2022-12-15T01:07:25+01:00*%
%TF.ProjectId,CarteMereRobobeer,43617274-654d-4657-9265-526f626f6265,rev?*%
%TF.SameCoordinates,Original*%
%TF.FileFunction,Soldermask,Bot*%
%TF.FilePolarity,Negative*%
%FSLAX46Y46*%
G04 Gerber Fmt 4.6, Leading zero omitted, Abs format (unit mm)*
G04 Created by KiCad (PCBNEW (6.0.8)) date 2022-12-15 01:07:25*
%MOMM*%
%LPD*%
G01*
G04 APERTURE LIST*
G04 Aperture macros list*
%AMRoundRect*
0 Rectangle with rounded corners*
0 $1 Rounding radius*
0 $2 $3 $4 $5 $6 $7 $8 $9 X,Y pos of 4 corners*
0 Add a 4 corners polygon primitive as box body*
4,1,4,$2,$3,$4,$5,$6,$7,$8,$9,$2,$3,0*
0 Add four circle primitives for the rounded corners*
1,1,$1+$1,$2,$3*
1,1,$1+$1,$4,$5*
1,1,$1+$1,$6,$7*
1,1,$1+$1,$8,$9*
0 Add four rect primitives between the rounded corners*
20,1,$1+$1,$2,$3,$4,$5,0*
20,1,$1+$1,$4,$5,$6,$7,0*
20,1,$1+$1,$6,$7,$8,$9,0*
20,1,$1+$1,$8,$9,$2,$3,0*%
G04 Aperture macros list end*
%ADD10O,1.700000X1.700000*%
%ADD11R,1.700000X1.700000*%
%ADD12C,6.000000*%
%ADD13R,6.000000X6.000000*%
%ADD14C,3.200000*%
%ADD15RoundRect,0.237500X0.237500X-0.300000X0.237500X0.300000X-0.237500X0.300000X-0.237500X-0.300000X0*%
%ADD16RoundRect,0.237500X0.300000X0.237500X-0.300000X0.237500X-0.300000X-0.237500X0.300000X-0.237500X0*%
%ADD17RoundRect,0.237500X-0.237500X0.300000X-0.237500X-0.300000X0.237500X-0.300000X0.237500X0.300000X0*%
%ADD18RoundRect,0.237500X0.250000X0.237500X-0.250000X0.237500X-0.250000X-0.237500X0.250000X-0.237500X0*%
G04 APERTURE END LIST*
D10*
%TO.C,CapteurCouleur1*%
X151700000Y-119500000D03*
X154240000Y-119500000D03*
X156780000Y-119500000D03*
D11*
X159320000Y-119500000D03*
%TD*%
D10*
%TO.C,BDT1*%
X92000000Y-70475000D03*
X92000000Y-73015000D03*
D11*
X92000000Y-75555000D03*
%TD*%
%TO.C,GND1*%
X139500000Y-108000000D03*
X139500000Y-110540000D03*
X139500000Y-113080000D03*
%TD*%
D10*
%TO.C,JVL53L0X_2490*%
X91500000Y-59850000D03*
D11*
X91500000Y-57310000D03*
D10*
X91500000Y-54770000D03*
X91500000Y-52230000D03*
X91500000Y-49690000D03*
X91500000Y-47150000D03*
%TD*%
D11*
%TO.C,AlimRasp1*%
X103225000Y-38500000D03*
D10*
X105765000Y-38500000D03*
%TD*%
%TO.C,BDT2*%
X92000000Y-85500000D03*
X92000000Y-88040000D03*
D11*
X92000000Y-90580000D03*
%TD*%
D12*
%TO.C,BAT1*%
X135400000Y-40000000D03*
D13*
X142600000Y-40000000D03*
%TD*%
D14*
%TO.C,H1*%
X194000000Y-118000000D03*
%TD*%
D11*
%TO.C,Rasp_conn1*%
X118500000Y-38500000D03*
D10*
X115960000Y-38500000D03*
X113420000Y-38500000D03*
%TD*%
%TO.C,Servomoteur1*%
X155960000Y-38500000D03*
D11*
X158500000Y-38500000D03*
D10*
X161040000Y-38500000D03*
%TD*%
%TO.C,J2*%
X112000000Y-83000000D03*
%TD*%
%TO.C,J3*%
X177500000Y-78655000D03*
%TD*%
%TO.C,MOTOR_1*%
X92000000Y-109350000D03*
X92000000Y-106810000D03*
X92000000Y-104270000D03*
X92000000Y-101730000D03*
X92000000Y-99190000D03*
D11*
X92000000Y-96650000D03*
%TD*%
D10*
%TO.C,J1*%
X107460000Y-83155000D03*
%TD*%
%TO.C,BDT4*%
X195500000Y-86665000D03*
X195500000Y-84125000D03*
D11*
X195500000Y-81585000D03*
%TD*%
D10*
%TO.C,MOTOR_2*%
X105150000Y-119500000D03*
X107690000Y-119500000D03*
X110230000Y-119500000D03*
X112770000Y-119500000D03*
X115310000Y-119500000D03*
D11*
X117850000Y-119500000D03*
%TD*%
D10*
%TO.C,5V1*%
X135500000Y-107975000D03*
X135500000Y-110515000D03*
X135500000Y-113055000D03*
%TD*%
D14*
%TO.C,H3*%
X90000000Y-40000000D03*
%TD*%
D10*
%TO.C,3.3V1*%
X143500000Y-107975000D03*
X143500000Y-110515000D03*
X143500000Y-113055000D03*
%TD*%
%TO.C,BDT3*%
X195000000Y-74180000D03*
X195000000Y-71640000D03*
D11*
X195000000Y-69100000D03*
%TD*%
D14*
%TO.C,H2*%
X194000000Y-40000000D03*
%TD*%
%TO.C,H4*%
X90000000Y-118000000D03*
%TD*%
D10*
%TO.C,J4*%
X182500000Y-78655000D03*
%TD*%
D15*
%TO.C,C8*%
X162000000Y-81862500D03*
X162000000Y-80137500D03*
%TD*%
D16*
%TO.C,C6*%
X147000000Y-90000000D03*
X145275000Y-90000000D03*
%TD*%
%TO.C,C0*%
X135862500Y-93562500D03*
X134137500Y-93562500D03*
%TD*%
D17*
%TO.C,C10*%
X159500000Y-96137500D03*
X159500000Y-97862500D03*
%TD*%
D16*
%TO.C,C7*%
X148362500Y-80500000D03*
X146637500Y-80500000D03*
%TD*%
D18*
%TO.C,R28*%
X152912500Y-78500000D03*
X151087500Y-78500000D03*
%TD*%
D17*
%TO.C,C9*%
X152500000Y-95637500D03*
X152500000Y-97362500D03*
%TD*%
D16*
%TO.C,C1*%
X135862500Y-81562500D03*
X134137500Y-81562500D03*
%TD*%
M02*
