%TF.GenerationSoftware,KiCad,Pcbnew,(6.0.8)*%
%TF.CreationDate,2022-12-15T01:07:25+01:00*%
%TF.ProjectId,CarteMereRobobeer,43617274-654d-4657-9265-526f626f6265,rev?*%
%TF.SameCoordinates,Original*%
%TF.FileFunction,Legend,Bot*%
%TF.FilePolarity,Positive*%
%FSLAX46Y46*%
G04 Gerber Fmt 4.6, Leading zero omitted, Abs format (unit mm)*
G04 Created by KiCad (PCBNEW (6.0.8)) date 2022-12-15 01:07:25*
%MOMM*%
%LPD*%
G01*
G04 APERTURE LIST*
%ADD10C,0.150000*%
%ADD11C,0.120000*%
G04 APERTURE END LIST*
D10*
%TO.C,C8*%
X163787142Y-80833333D02*
X163834761Y-80785714D01*
X163882380Y-80642857D01*
X163882380Y-80547619D01*
X163834761Y-80404761D01*
X163739523Y-80309523D01*
X163644285Y-80261904D01*
X163453809Y-80214285D01*
X163310952Y-80214285D01*
X163120476Y-80261904D01*
X163025238Y-80309523D01*
X162930000Y-80404761D01*
X162882380Y-80547619D01*
X162882380Y-80642857D01*
X162930000Y-80785714D01*
X162977619Y-80833333D01*
X163310952Y-81404761D02*
X163263333Y-81309523D01*
X163215714Y-81261904D01*
X163120476Y-81214285D01*
X163072857Y-81214285D01*
X162977619Y-81261904D01*
X162930000Y-81309523D01*
X162882380Y-81404761D01*
X162882380Y-81595238D01*
X162930000Y-81690476D01*
X162977619Y-81738095D01*
X163072857Y-81785714D01*
X163120476Y-81785714D01*
X163215714Y-81738095D01*
X163263333Y-81690476D01*
X163310952Y-81595238D01*
X163310952Y-81404761D01*
X163358571Y-81309523D01*
X163406190Y-81261904D01*
X163501428Y-81214285D01*
X163691904Y-81214285D01*
X163787142Y-81261904D01*
X163834761Y-81309523D01*
X163882380Y-81404761D01*
X163882380Y-81595238D01*
X163834761Y-81690476D01*
X163787142Y-81738095D01*
X163691904Y-81785714D01*
X163501428Y-81785714D01*
X163406190Y-81738095D01*
X163358571Y-81690476D01*
X163310952Y-81595238D01*
%TO.C,C6*%
X146304166Y-88927142D02*
X146351785Y-88974761D01*
X146494642Y-89022380D01*
X146589880Y-89022380D01*
X146732738Y-88974761D01*
X146827976Y-88879523D01*
X146875595Y-88784285D01*
X146923214Y-88593809D01*
X146923214Y-88450952D01*
X146875595Y-88260476D01*
X146827976Y-88165238D01*
X146732738Y-88070000D01*
X146589880Y-88022380D01*
X146494642Y-88022380D01*
X146351785Y-88070000D01*
X146304166Y-88117619D01*
X145447023Y-88022380D02*
X145637500Y-88022380D01*
X145732738Y-88070000D01*
X145780357Y-88117619D01*
X145875595Y-88260476D01*
X145923214Y-88450952D01*
X145923214Y-88831904D01*
X145875595Y-88927142D01*
X145827976Y-88974761D01*
X145732738Y-89022380D01*
X145542261Y-89022380D01*
X145447023Y-88974761D01*
X145399404Y-88927142D01*
X145351785Y-88831904D01*
X145351785Y-88593809D01*
X145399404Y-88498571D01*
X145447023Y-88450952D01*
X145542261Y-88403333D01*
X145732738Y-88403333D01*
X145827976Y-88450952D01*
X145875595Y-88498571D01*
X145923214Y-88593809D01*
%TO.C,C0*%
X135166666Y-92489642D02*
X135214285Y-92537261D01*
X135357142Y-92584880D01*
X135452380Y-92584880D01*
X135595238Y-92537261D01*
X135690476Y-92442023D01*
X135738095Y-92346785D01*
X135785714Y-92156309D01*
X135785714Y-92013452D01*
X135738095Y-91822976D01*
X135690476Y-91727738D01*
X135595238Y-91632500D01*
X135452380Y-91584880D01*
X135357142Y-91584880D01*
X135214285Y-91632500D01*
X135166666Y-91680119D01*
X134547619Y-91584880D02*
X134452380Y-91584880D01*
X134357142Y-91632500D01*
X134309523Y-91680119D01*
X134261904Y-91775357D01*
X134214285Y-91965833D01*
X134214285Y-92203928D01*
X134261904Y-92394404D01*
X134309523Y-92489642D01*
X134357142Y-92537261D01*
X134452380Y-92584880D01*
X134547619Y-92584880D01*
X134642857Y-92537261D01*
X134690476Y-92489642D01*
X134738095Y-92394404D01*
X134785714Y-92203928D01*
X134785714Y-91965833D01*
X134738095Y-91775357D01*
X134690476Y-91680119D01*
X134642857Y-91632500D01*
X134547619Y-91584880D01*
%TO.C,C10*%
X158427142Y-96357142D02*
X158474761Y-96309523D01*
X158522380Y-96166666D01*
X158522380Y-96071428D01*
X158474761Y-95928571D01*
X158379523Y-95833333D01*
X158284285Y-95785714D01*
X158093809Y-95738095D01*
X157950952Y-95738095D01*
X157760476Y-95785714D01*
X157665238Y-95833333D01*
X157570000Y-95928571D01*
X157522380Y-96071428D01*
X157522380Y-96166666D01*
X157570000Y-96309523D01*
X157617619Y-96357142D01*
X158522380Y-97309523D02*
X158522380Y-96738095D01*
X158522380Y-97023809D02*
X157522380Y-97023809D01*
X157665238Y-96928571D01*
X157760476Y-96833333D01*
X157808095Y-96738095D01*
X157522380Y-97928571D02*
X157522380Y-98023809D01*
X157570000Y-98119047D01*
X157617619Y-98166666D01*
X157712857Y-98214285D01*
X157903333Y-98261904D01*
X158141428Y-98261904D01*
X158331904Y-98214285D01*
X158427142Y-98166666D01*
X158474761Y-98119047D01*
X158522380Y-98023809D01*
X158522380Y-97928571D01*
X158474761Y-97833333D01*
X158427142Y-97785714D01*
X158331904Y-97738095D01*
X158141428Y-97690476D01*
X157903333Y-97690476D01*
X157712857Y-97738095D01*
X157617619Y-97785714D01*
X157570000Y-97833333D01*
X157522380Y-97928571D01*
%TO.C,C7*%
X147666666Y-79427142D02*
X147714285Y-79474761D01*
X147857142Y-79522380D01*
X147952380Y-79522380D01*
X148095238Y-79474761D01*
X148190476Y-79379523D01*
X148238095Y-79284285D01*
X148285714Y-79093809D01*
X148285714Y-78950952D01*
X148238095Y-78760476D01*
X148190476Y-78665238D01*
X148095238Y-78570000D01*
X147952380Y-78522380D01*
X147857142Y-78522380D01*
X147714285Y-78570000D01*
X147666666Y-78617619D01*
X147333333Y-78522380D02*
X146666666Y-78522380D01*
X147095238Y-79522380D01*
%TO.C,R28*%
X152642857Y-77452380D02*
X152976190Y-76976190D01*
X153214285Y-77452380D02*
X153214285Y-76452380D01*
X152833333Y-76452380D01*
X152738095Y-76500000D01*
X152690476Y-76547619D01*
X152642857Y-76642857D01*
X152642857Y-76785714D01*
X152690476Y-76880952D01*
X152738095Y-76928571D01*
X152833333Y-76976190D01*
X153214285Y-76976190D01*
X152261904Y-76547619D02*
X152214285Y-76500000D01*
X152119047Y-76452380D01*
X151880952Y-76452380D01*
X151785714Y-76500000D01*
X151738095Y-76547619D01*
X151690476Y-76642857D01*
X151690476Y-76738095D01*
X151738095Y-76880952D01*
X152309523Y-77452380D01*
X151690476Y-77452380D01*
X151119047Y-76880952D02*
X151214285Y-76833333D01*
X151261904Y-76785714D01*
X151309523Y-76690476D01*
X151309523Y-76642857D01*
X151261904Y-76547619D01*
X151214285Y-76500000D01*
X151119047Y-76452380D01*
X150928571Y-76452380D01*
X150833333Y-76500000D01*
X150785714Y-76547619D01*
X150738095Y-76642857D01*
X150738095Y-76690476D01*
X150785714Y-76785714D01*
X150833333Y-76833333D01*
X150928571Y-76880952D01*
X151119047Y-76880952D01*
X151214285Y-76928571D01*
X151261904Y-76976190D01*
X151309523Y-77071428D01*
X151309523Y-77261904D01*
X151261904Y-77357142D01*
X151214285Y-77404761D01*
X151119047Y-77452380D01*
X150928571Y-77452380D01*
X150833333Y-77404761D01*
X150785714Y-77357142D01*
X150738095Y-77261904D01*
X150738095Y-77071428D01*
X150785714Y-76976190D01*
X150833333Y-76928571D01*
X150928571Y-76880952D01*
%TO.C,C9*%
X151427142Y-96333333D02*
X151474761Y-96285714D01*
X151522380Y-96142857D01*
X151522380Y-96047619D01*
X151474761Y-95904761D01*
X151379523Y-95809523D01*
X151284285Y-95761904D01*
X151093809Y-95714285D01*
X150950952Y-95714285D01*
X150760476Y-95761904D01*
X150665238Y-95809523D01*
X150570000Y-95904761D01*
X150522380Y-96047619D01*
X150522380Y-96142857D01*
X150570000Y-96285714D01*
X150617619Y-96333333D01*
X151522380Y-96809523D02*
X151522380Y-97000000D01*
X151474761Y-97095238D01*
X151427142Y-97142857D01*
X151284285Y-97238095D01*
X151093809Y-97285714D01*
X150712857Y-97285714D01*
X150617619Y-97238095D01*
X150570000Y-97190476D01*
X150522380Y-97095238D01*
X150522380Y-96904761D01*
X150570000Y-96809523D01*
X150617619Y-96761904D01*
X150712857Y-96714285D01*
X150950952Y-96714285D01*
X151046190Y-96761904D01*
X151093809Y-96809523D01*
X151141428Y-96904761D01*
X151141428Y-97095238D01*
X151093809Y-97190476D01*
X151046190Y-97238095D01*
X150950952Y-97285714D01*
%TO.C,C1*%
X135166666Y-80489642D02*
X135214285Y-80537261D01*
X135357142Y-80584880D01*
X135452380Y-80584880D01*
X135595238Y-80537261D01*
X135690476Y-80442023D01*
X135738095Y-80346785D01*
X135785714Y-80156309D01*
X135785714Y-80013452D01*
X135738095Y-79822976D01*
X135690476Y-79727738D01*
X135595238Y-79632500D01*
X135452380Y-79584880D01*
X135357142Y-79584880D01*
X135214285Y-79632500D01*
X135166666Y-79680119D01*
X134214285Y-80584880D02*
X134785714Y-80584880D01*
X134500000Y-80584880D02*
X134500000Y-79584880D01*
X134595238Y-79727738D01*
X134690476Y-79822976D01*
X134785714Y-79870595D01*
D11*
%TO.C,C8*%
X161490000Y-81146267D02*
X161490000Y-80853733D01*
X162510000Y-81146267D02*
X162510000Y-80853733D01*
%TO.C,C6*%
X146283767Y-89490000D02*
X145991233Y-89490000D01*
X146283767Y-90510000D02*
X145991233Y-90510000D01*
%TO.C,C0*%
X135146267Y-93052500D02*
X134853733Y-93052500D01*
X135146267Y-94072500D02*
X134853733Y-94072500D01*
%TO.C,C10*%
X160010000Y-96853733D02*
X160010000Y-97146267D01*
X158990000Y-96853733D02*
X158990000Y-97146267D01*
%TO.C,C7*%
X147646267Y-81010000D02*
X147353733Y-81010000D01*
X147646267Y-79990000D02*
X147353733Y-79990000D01*
%TO.C,R28*%
X152254724Y-77977500D02*
X151745276Y-77977500D01*
X152254724Y-79022500D02*
X151745276Y-79022500D01*
%TO.C,C9*%
X151990000Y-96353733D02*
X151990000Y-96646267D01*
X153010000Y-96353733D02*
X153010000Y-96646267D01*
%TO.C,C1*%
X135146267Y-81052500D02*
X134853733Y-81052500D01*
X135146267Y-82072500D02*
X134853733Y-82072500D01*
%TD*%
M02*
