%TF.GenerationSoftware,KiCad,Pcbnew,(6.0.8)*%
%TF.CreationDate,2022-12-15T01:07:25+01:00*%
%TF.ProjectId,CarteMereRobobeer,43617274-654d-4657-9265-526f626f6265,rev?*%
%TF.SameCoordinates,Original*%
%TF.FileFunction,Soldermask,Top*%
%TF.FilePolarity,Negative*%
%FSLAX46Y46*%
G04 Gerber Fmt 4.6, Leading zero omitted, Abs format (unit mm)*
G04 Created by KiCad (PCBNEW (6.0.8)) date 2022-12-15 01:07:25*
%MOMM*%
%LPD*%
G01*
G04 APERTURE LIST*
G04 Aperture macros list*
%AMRoundRect*
0 Rectangle with rounded corners*
0 $1 Rounding radius*
0 $2 $3 $4 $5 $6 $7 $8 $9 X,Y pos of 4 corners*
0 Add a 4 corners polygon primitive as box body*
4,1,4,$2,$3,$4,$5,$6,$7,$8,$9,$2,$3,0*
0 Add four circle primitives for the rounded corners*
1,1,$1+$1,$2,$3*
1,1,$1+$1,$4,$5*
1,1,$1+$1,$6,$7*
1,1,$1+$1,$8,$9*
0 Add four rect primitives between the rounded corners*
20,1,$1+$1,$2,$3,$4,$5,0*
20,1,$1+$1,$4,$5,$6,$7,0*
20,1,$1+$1,$6,$7,$8,$9,0*
20,1,$1+$1,$8,$9,$2,$3,0*%
G04 Aperture macros list end*
%ADD10RoundRect,0.249999X1.425001X-0.450001X1.425001X0.450001X-1.425001X0.450001X-1.425001X-0.450001X0*%
%ADD11RoundRect,0.237500X-0.250000X-0.237500X0.250000X-0.237500X0.250000X0.237500X-0.250000X0.237500X0*%
%ADD12R,0.953999X0.618800*%
%ADD13O,1.700000X1.700000*%
%ADD14R,1.700000X1.700000*%
%ADD15RoundRect,0.237500X0.237500X-0.250000X0.237500X0.250000X-0.237500X0.250000X-0.237500X-0.250000X0*%
%ADD16RoundRect,0.042000X-0.943000X-0.258000X0.943000X-0.258000X0.943000X0.258000X-0.943000X0.258000X0*%
%ADD17RoundRect,0.237500X0.250000X0.237500X-0.250000X0.237500X-0.250000X-0.237500X0.250000X-0.237500X0*%
%ADD18R,2.000000X0.800000*%
%ADD19R,1.200000X0.800000*%
%ADD20RoundRect,0.250000X-1.500000X-0.550000X1.500000X-0.550000X1.500000X0.550000X-1.500000X0.550000X0*%
%ADD21RoundRect,0.237500X-0.237500X0.300000X-0.237500X-0.300000X0.237500X-0.300000X0.237500X0.300000X0*%
%ADD22R,2.400000X0.740000*%
%ADD23R,0.800000X2.000000*%
%ADD24R,0.800000X1.200000*%
%ADD25R,2.900000X5.400000*%
%ADD26RoundRect,0.237500X-0.300000X-0.237500X0.300000X-0.237500X0.300000X0.237500X-0.300000X0.237500X0*%
%ADD27R,1.000000X2.510000*%
%ADD28RoundRect,0.249999X-0.450001X-1.425001X0.450001X-1.425001X0.450001X1.425001X-0.450001X1.425001X0*%
%ADD29R,2.100000X1.400000*%
%ADD30RoundRect,0.075000X-0.700000X-0.075000X0.700000X-0.075000X0.700000X0.075000X-0.700000X0.075000X0*%
%ADD31RoundRect,0.075000X-0.075000X-0.700000X0.075000X-0.700000X0.075000X0.700000X-0.075000X0.700000X0*%
%ADD32C,6.000000*%
%ADD33R,6.000000X6.000000*%
%ADD34R,2.200000X1.200000*%
%ADD35R,6.400000X5.800000*%
%ADD36RoundRect,0.249999X0.450001X1.425001X-0.450001X1.425001X-0.450001X-1.425001X0.450001X-1.425001X0*%
%ADD37C,3.200000*%
%ADD38R,1.525000X0.650000*%
%ADD39R,2.390000X3.200000*%
%ADD40RoundRect,0.250000X1.000000X-1.950000X1.000000X1.950000X-1.000000X1.950000X-1.000000X-1.950000X0*%
%ADD41R,2.510000X1.000000*%
%ADD42RoundRect,0.250000X0.550000X-1.500000X0.550000X1.500000X-0.550000X1.500000X-0.550000X-1.500000X0*%
%ADD43R,2.000000X7.875000*%
G04 APERTURE END LIST*
D10*
%TO.C,R11*%
X101500000Y-103050000D03*
X101500000Y-96950000D03*
%TD*%
D11*
%TO.C,R27*%
X186087500Y-84655000D03*
X187912500Y-84655000D03*
%TD*%
%TO.C,R17*%
X101587500Y-76000000D03*
X103412500Y-76000000D03*
%TD*%
D12*
%TO.C,D7*%
X118854200Y-62362500D03*
X115145800Y-62362500D03*
%TD*%
D13*
%TO.C,CapteurCouleur1*%
X151700000Y-119500000D03*
X154240000Y-119500000D03*
X156780000Y-119500000D03*
D14*
X159320000Y-119500000D03*
%TD*%
D15*
%TO.C,R7*%
X156000000Y-108412500D03*
X156000000Y-106587500D03*
%TD*%
D16*
%TO.C,U4*%
X162030000Y-48095000D03*
X162030000Y-49365000D03*
X162030000Y-50635000D03*
X162030000Y-51905000D03*
X166970000Y-51905000D03*
X166970000Y-50635000D03*
X166970000Y-49365000D03*
X166970000Y-48095000D03*
%TD*%
D17*
%TO.C,R3*%
X144362500Y-48000000D03*
X142537500Y-48000000D03*
%TD*%
D13*
%TO.C,BDT1*%
X92000000Y-70475000D03*
X92000000Y-73015000D03*
D14*
X92000000Y-75555000D03*
%TD*%
D11*
%TO.C,R26*%
X186087500Y-72140000D03*
X187912500Y-72140000D03*
%TD*%
D15*
%TO.C,R6*%
X159000000Y-108412500D03*
X159000000Y-106587500D03*
%TD*%
D11*
%TO.C,R24*%
X186087500Y-75140000D03*
X187912500Y-75140000D03*
%TD*%
D18*
%TO.C,D5*%
X149380000Y-48000000D03*
D19*
X147230000Y-48000000D03*
%TD*%
D20*
%TO.C,CO1*%
X131300000Y-57862500D03*
X136700000Y-57862500D03*
%TD*%
D21*
%TO.C,C2*%
X115000000Y-52500000D03*
X115000000Y-54225000D03*
%TD*%
D15*
%TO.C,R8*%
X153000000Y-108412500D03*
X153000000Y-106587500D03*
%TD*%
D14*
%TO.C,GND1*%
X139500000Y-108000000D03*
X139500000Y-110540000D03*
X139500000Y-113080000D03*
%TD*%
D22*
%TO.C,STLinkv3*%
X123450000Y-80810000D03*
X119550000Y-80810000D03*
X123450000Y-79540000D03*
X119550000Y-79540000D03*
X123450000Y-78270000D03*
X119550000Y-78270000D03*
X123450000Y-77000000D03*
X119550000Y-77000000D03*
X123450000Y-75730000D03*
X119550000Y-75730000D03*
X123450000Y-74460000D03*
X119550000Y-74460000D03*
X123450000Y-73190000D03*
X119550000Y-73190000D03*
%TD*%
D11*
%TO.C,R22*%
X186087500Y-69155000D03*
X187912500Y-69155000D03*
%TD*%
D23*
%TO.C,D1*%
X159000000Y-113380000D03*
D24*
X159000000Y-111230000D03*
%TD*%
D25*
%TO.C,L1*%
X109950000Y-57862500D03*
X100050000Y-57862500D03*
%TD*%
D21*
%TO.C,C11*%
X177000000Y-103637500D03*
X177000000Y-105362500D03*
%TD*%
D26*
%TO.C,C14*%
X147637500Y-71000000D03*
X149362500Y-71000000D03*
%TD*%
D27*
%TO.C,Jumper4*%
X112040000Y-74345000D03*
X109500000Y-77655000D03*
X106960000Y-74345000D03*
%TD*%
D11*
%TO.C,R23*%
X186087500Y-81655000D03*
X187912500Y-81655000D03*
%TD*%
D26*
%TO.C,C13*%
X147637500Y-66000000D03*
X149362500Y-66000000D03*
%TD*%
D13*
%TO.C,JVL53L0X_2490*%
X91500000Y-59850000D03*
D14*
X91500000Y-57310000D03*
D13*
X91500000Y-54770000D03*
X91500000Y-52230000D03*
X91500000Y-49690000D03*
X91500000Y-47150000D03*
%TD*%
D28*
%TO.C,Rsc1*%
X129450000Y-49362500D03*
X135550000Y-49362500D03*
%TD*%
D14*
%TO.C,AlimRasp1*%
X103225000Y-38500000D03*
D13*
X105765000Y-38500000D03*
%TD*%
D15*
%TO.C,R9*%
X150000000Y-108325000D03*
X150000000Y-106500000D03*
%TD*%
D11*
%TO.C,R16*%
X101675000Y-86155000D03*
X103500000Y-86155000D03*
%TD*%
D17*
%TO.C,R21*%
X103412500Y-73000000D03*
X101587500Y-73000000D03*
%TD*%
D11*
%TO.C,R5*%
X172587500Y-60000000D03*
X174412500Y-60000000D03*
%TD*%
D23*
%TO.C,D4*%
X150000000Y-113380000D03*
D24*
X150000000Y-111230000D03*
%TD*%
D29*
%TO.C,User_btn1*%
X180450000Y-110250000D03*
X189550000Y-110250000D03*
X180450000Y-114750000D03*
X189550000Y-114750000D03*
%TD*%
D30*
%TO.C,U6*%
X149825000Y-83750000D03*
X149825000Y-84250000D03*
X149825000Y-84750000D03*
X149825000Y-85250000D03*
X149825000Y-85750000D03*
X149825000Y-86250000D03*
X149825000Y-86750000D03*
X149825000Y-87250000D03*
X149825000Y-87750000D03*
X149825000Y-88250000D03*
X149825000Y-88750000D03*
X149825000Y-89250000D03*
X149825000Y-89750000D03*
X149825000Y-90250000D03*
X149825000Y-90750000D03*
X149825000Y-91250000D03*
D31*
X151750000Y-93175000D03*
X152250000Y-93175000D03*
X152750000Y-93175000D03*
X153250000Y-93175000D03*
X153750000Y-93175000D03*
X154250000Y-93175000D03*
X154750000Y-93175000D03*
X155250000Y-93175000D03*
X155750000Y-93175000D03*
X156250000Y-93175000D03*
X156750000Y-93175000D03*
X157250000Y-93175000D03*
X157750000Y-93175000D03*
X158250000Y-93175000D03*
X158750000Y-93175000D03*
X159250000Y-93175000D03*
D30*
X161175000Y-91250000D03*
X161175000Y-90750000D03*
X161175000Y-90250000D03*
X161175000Y-89750000D03*
X161175000Y-89250000D03*
X161175000Y-88750000D03*
X161175000Y-88250000D03*
X161175000Y-87750000D03*
X161175000Y-87250000D03*
X161175000Y-86750000D03*
X161175000Y-86250000D03*
X161175000Y-85750000D03*
X161175000Y-85250000D03*
X161175000Y-84750000D03*
X161175000Y-84250000D03*
X161175000Y-83750000D03*
D31*
X159250000Y-81825000D03*
X158750000Y-81825000D03*
X158250000Y-81825000D03*
X157750000Y-81825000D03*
X157250000Y-81825000D03*
X156750000Y-81825000D03*
X156250000Y-81825000D03*
X155750000Y-81825000D03*
X155250000Y-81825000D03*
X154750000Y-81825000D03*
X154250000Y-81825000D03*
X153750000Y-81825000D03*
X153250000Y-81825000D03*
X152750000Y-81825000D03*
X152250000Y-81825000D03*
X151750000Y-81825000D03*
%TD*%
D13*
%TO.C,BDT2*%
X92000000Y-85500000D03*
X92000000Y-88040000D03*
D14*
X92000000Y-90580000D03*
%TD*%
D32*
%TO.C,BAT1*%
X135400000Y-40000000D03*
D33*
X142600000Y-40000000D03*
%TD*%
D17*
%TO.C,R2*%
X100547900Y-48362500D03*
X98722900Y-48362500D03*
%TD*%
D34*
%TO.C,Reg3.3*%
X144475000Y-70755000D03*
D35*
X138175000Y-68475000D03*
D34*
X144475000Y-68475000D03*
X144475000Y-66195000D03*
%TD*%
D36*
%TO.C,Rsc2*%
X178550000Y-47000000D03*
X172450000Y-47000000D03*
%TD*%
D27*
%TO.C,Jumper6*%
X177460000Y-73810000D03*
X180000000Y-70500000D03*
X182540000Y-73810000D03*
%TD*%
D37*
%TO.C,H1*%
X194000000Y-118000000D03*
%TD*%
D14*
%TO.C,Rasp_conn1*%
X118500000Y-38500000D03*
D13*
X115960000Y-38500000D03*
X113420000Y-38500000D03*
%TD*%
D21*
%TO.C,C4*%
X158500000Y-51000000D03*
X158500000Y-52725000D03*
%TD*%
D38*
%TO.C,DriverMotor1*%
X120788000Y-109095000D03*
X120788000Y-110365000D03*
X120788000Y-111635000D03*
X120788000Y-112905000D03*
X126212000Y-112905000D03*
X126212000Y-111635000D03*
X126212000Y-110365000D03*
X126212000Y-109095000D03*
D39*
X123500000Y-111000000D03*
%TD*%
D12*
%TO.C,D8*%
X160354200Y-63137500D03*
X156645800Y-63137500D03*
%TD*%
D27*
%TO.C,Jumper5*%
X177460000Y-86310000D03*
X180000000Y-83000000D03*
X182540000Y-86310000D03*
%TD*%
D13*
%TO.C,Servomoteur1*%
X155960000Y-38500000D03*
D14*
X158500000Y-38500000D03*
D13*
X161040000Y-38500000D03*
%TD*%
%TO.C,J2*%
X112000000Y-83000000D03*
%TD*%
%TO.C,J3*%
X177500000Y-78655000D03*
%TD*%
D40*
%TO.C,CO2*%
X166500000Y-63700000D03*
X166500000Y-56300000D03*
%TD*%
D13*
%TO.C,MOTOR_1*%
X92000000Y-109350000D03*
X92000000Y-106810000D03*
X92000000Y-104270000D03*
X92000000Y-101730000D03*
X92000000Y-99190000D03*
D14*
X92000000Y-96650000D03*
%TD*%
D41*
%TO.C,Jumper1*%
X113155000Y-101540000D03*
X109845000Y-99000000D03*
X113155000Y-96460000D03*
%TD*%
D23*
%TO.C,D2*%
X156000000Y-113380000D03*
D24*
X156000000Y-111230000D03*
%TD*%
D11*
%TO.C,R19*%
X101587500Y-79000000D03*
X103412500Y-79000000D03*
%TD*%
%TO.C,R1*%
X130087500Y-62862500D03*
X131912500Y-62862500D03*
%TD*%
D25*
%TO.C,L2*%
X153450000Y-57000000D03*
X143550000Y-57000000D03*
%TD*%
D18*
%TO.C,D6*%
X105120000Y-48362500D03*
D19*
X107270000Y-48362500D03*
%TD*%
D13*
%TO.C,J1*%
X107460000Y-83155000D03*
%TD*%
%TO.C,BDT4*%
X195500000Y-86665000D03*
X195500000Y-84125000D03*
D14*
X195500000Y-81585000D03*
%TD*%
D13*
%TO.C,MOTOR_2*%
X105150000Y-119500000D03*
X107690000Y-119500000D03*
X110230000Y-119500000D03*
X112770000Y-119500000D03*
X115310000Y-119500000D03*
D14*
X117850000Y-119500000D03*
%TD*%
D13*
%TO.C,5V1*%
X135500000Y-107975000D03*
X135500000Y-110515000D03*
X135500000Y-113055000D03*
%TD*%
D37*
%TO.C,H3*%
X90000000Y-40000000D03*
%TD*%
D29*
%TO.C,reset1*%
X180450000Y-101250000D03*
X189550000Y-101250000D03*
X180450000Y-105750000D03*
X189550000Y-105750000D03*
%TD*%
D20*
%TO.C,C5*%
X173800000Y-55000000D03*
X179200000Y-55000000D03*
%TD*%
D16*
%TO.C,U2*%
X119030000Y-51457500D03*
X119030000Y-52727500D03*
X119030000Y-53997500D03*
X119030000Y-55267500D03*
X123970000Y-55267500D03*
X123970000Y-53997500D03*
X123970000Y-52727500D03*
X123970000Y-51457500D03*
%TD*%
D10*
%TO.C,R10*%
X101500000Y-114050000D03*
X101500000Y-107950000D03*
%TD*%
D13*
%TO.C,3.3V1*%
X143500000Y-107975000D03*
X143500000Y-110515000D03*
X143500000Y-113055000D03*
%TD*%
%TO.C,BDT3*%
X195000000Y-74180000D03*
X195000000Y-71640000D03*
D14*
X195000000Y-69100000D03*
%TD*%
D37*
%TO.C,H2*%
X194000000Y-40000000D03*
%TD*%
D11*
%TO.C,R25*%
X186087500Y-87655000D03*
X187912500Y-87655000D03*
%TD*%
D27*
%TO.C,Jumper3*%
X112040000Y-87500000D03*
X109500000Y-90810000D03*
X106960000Y-87500000D03*
%TD*%
D17*
%TO.C,R20*%
X103500000Y-88500000D03*
X101675000Y-88500000D03*
%TD*%
D37*
%TO.C,H4*%
X90000000Y-118000000D03*
%TD*%
D21*
%TO.C,C12*%
X177000000Y-112637500D03*
X177000000Y-114362500D03*
%TD*%
D17*
%TO.C,R29*%
X131912500Y-64862500D03*
X130087500Y-64862500D03*
%TD*%
D23*
%TO.C,D3*%
X153000000Y-113380000D03*
D24*
X153000000Y-111230000D03*
%TD*%
D38*
%TO.C,DriverMotor2*%
X120788000Y-97095000D03*
X120788000Y-98365000D03*
X120788000Y-99635000D03*
X120788000Y-100905000D03*
X126212000Y-100905000D03*
X126212000Y-99635000D03*
X126212000Y-98365000D03*
X126212000Y-97095000D03*
D39*
X123500000Y-99000000D03*
%TD*%
D17*
%TO.C,R18*%
X103500000Y-91500000D03*
X101675000Y-91500000D03*
%TD*%
D42*
%TO.C,C3*%
X125000000Y-65562500D03*
X125000000Y-60162500D03*
%TD*%
D41*
%TO.C,Jumper2*%
X113155000Y-113040000D03*
X109845000Y-110500000D03*
X113155000Y-107960000D03*
%TD*%
D11*
%TO.C,R4*%
X172587500Y-64000000D03*
X174412500Y-64000000D03*
%TD*%
D43*
%TO.C,U5*%
X140000000Y-93500000D03*
X140000000Y-81625000D03*
%TD*%
D13*
%TO.C,J4*%
X182500000Y-78655000D03*
%TD*%
M02*
